<?xml version="1.0"?>
<svg xmlns="http://www.w3.org/2000/svg" xmlns:xlink="http://www.w3.org/1999/xlink" xmlns:svgjs="http://svgjs.com/svgjs" version="1.1" width="30" height="30" x="0" y="0" viewBox="0 0 512 512" style="enable-background:new 0 0 512 512" xml:space="preserve" class=""><g><rect xmlns="http://www.w3.org/2000/svg" fill="#0f1375" height="304" rx="32" width="464" x="24" y="104" data-original="#a3d4f7" style="" class=""/><circle xmlns="http://www.w3.org/2000/svg" cx="424" cy="344" fill="#ffb632" r="32" data-original="#ffb632" style=""/><rect xmlns="http://www.w3.org/2000/svg" fill="#e9eef2" height="64" rx="16" width="64" x="72" y="152" data-original="#e9eef2" style=""/><path xmlns="http://www.w3.org/2000/svg" d="m192 336h-120a8 8 0 0 1 0-16h120a8 8 0 0 1 0 16z" fill="#cfd809" data-original="#1261a0" style="" class=""/><path xmlns="http://www.w3.org/2000/svg" d="m232 368.006-160-.006a8 8 0 0 1 0-16l160 .006a8 8 0 0 1 0 16z" fill="#cfd809" data-original="#1261a0" style="" class=""/><circle xmlns="http://www.w3.org/2000/svg" cx="384" cy="344" fill="#d13330" r="32" data-original="#d13330" style=""/><path xmlns="http://www.w3.org/2000/svg" d="m72 176h16a8 8 0 0 1 0 16h-16z" fill="#dadcde" data-original="#dadcde" style=""/><path xmlns="http://www.w3.org/2000/svg" d="m136 192h-16a8 8 0 0 1 0-16h16z" fill="#dadcde" data-original="#dadcde" style=""/><g xmlns="http://www.w3.org/2000/svg" fill="#1261a0"><path d="m431.994 224a8 8 0 0 1 -7.149-11.58c.066-.131 7.155-14.58 7.155-28.42s-7.089-28.289-7.161-28.434a8 8 0 0 1 14.316-7.144c.362.723 8.845 17.892 8.845 35.578s-8.483 34.855-8.845 35.578a8 8 0 0 1 -7.161 4.422z" fill="#cfd809" data-original="#1261a0" style="" class=""/><path d="m368 208a8 8 0 0 1 -5.657-13.657c2.268-2.3 5.657-7.209 5.657-10.343s-3.389-8.038-5.679-10.365a8 8 0 0 1 11.336-11.292c1.059 1.057 10.343 10.657 10.343 21.657s-9.284 20.6-10.343 21.657a7.974 7.974 0 0 1 -5.657 2.343z" fill="#cfd809" data-original="#1261a0" style="" class=""/><path d="m120 272h-48a8 8 0 0 1 0-16h48a8 8 0 0 1 0 16z" fill="#cfd809" data-original="#1261a0" style="" class=""/><path d="m216 272h-48a8 8 0 0 1 0-16h48a8 8 0 0 1 0 16z" fill="#cfd809" data-original="#1261a0" style="" class=""/><path d="m312 272h-48a8 8 0 0 1 0-16h48a8 8 0 0 1 0 16z" fill="#cfd809" data-original="#1261a0" style="" class=""/><path d="m408 272h-48a8 8 0 0 1 0-16h48a8 8 0 0 1 0 16z" fill="#cfd809" data-original="#1261a0" style="" class=""/><path d="m405.657 154.343a8 8 0 0 0 -11.314 11.314c.056.057 5.657 6.2 5.657 18.343s-5.512 18.184-5.746 18.435l.089-.092a8 8 0 0 0 11.314 11.314c1.059-1.057 10.343-10.886 10.343-29.657s-9.284-28.6-10.343-29.657z" fill="#cfd809" data-original="#1261a0" style="" class=""/></g></g></svg>
