<svg width="150" height="150" viewBox="0 0 150 150" fill="none" xmlns="http://www.w3.org/2000/svg">
<path d="M11.448 63.1709C11.448 63.1709 9.28201 86.6999 26.88 105.567C44.478 124.434 71.427 130.071 93.18 135.216C114.933 140.361 133.314 130.767 138.18 112.437C143.046 94.1069 126.993 85.7999 120.567 62.9369C114.141 40.0739 115.83 33.1799 98.232 16.8389C80.634 0.497929 49.539 3.53093 30.954 23.3999C12.369 43.2689 11.448 63.1709 11.448 63.1709Z" fill="#1807D2"/>
<path opacity="0.7" d="M11.448 63.1709C11.448 63.1709 9.28201 86.6999 26.88 105.567C44.478 124.434 71.427 130.071 93.18 135.216C114.933 140.361 133.314 130.767 138.18 112.437C143.046 94.1069 126.993 85.7999 120.567 62.9369C114.141 40.0739 115.83 33.1799 98.232 16.8389C80.634 0.497929 49.539 3.53093 30.954 23.3999C12.369 43.2689 11.448 63.1709 11.448 63.1709Z" fill="white"/>
<path d="M5.72701 112.398C6.62701 112.332 8.37301 111.357 8.37601 111.357C8.37901 111.357 7.38301 110.397 7.31101 110.343C6.49201 109.743 4.55401 109.038 3.62401 109.701C3.47238 109.815 3.34651 109.96 3.25464 110.126C3.16276 110.292 3.10693 110.476 3.0908 110.665C3.07466 110.854 3.09858 111.044 3.16099 111.224C3.2234 111.403 3.32291 111.567 3.45301 111.705C3.98401 112.314 4.96801 112.452 5.72701 112.398Z" fill="#263238"/>
<path d="M9.04801 117.213C9.85801 116.928 11.199 115.635 11.304 115.53C12.0422 116.3 12.8309 117.019 13.665 117.684C14.148 118.071 14.646 118.449 15.165 118.821C14.907 118.686 14.679 118.566 14.646 118.554C13.695 118.182 11.646 118.023 10.917 118.908C10.798 119.058 10.7123 119.231 10.6654 119.417C10.6185 119.602 10.6115 119.795 10.645 119.984C10.6785 120.172 10.7516 120.351 10.8595 120.509C10.9674 120.667 11.1077 120.8 11.271 120.9C11.943 121.347 12.93 121.221 13.647 120.966C14.364 120.711 15.543 119.631 15.849 119.34C16.044 119.481 16.236 119.625 16.431 119.763C17.37 120.435 18.312 121.101 19.215 121.782C19.533 122.022 19.836 122.271 20.142 122.517C19.914 122.397 19.722 122.298 19.692 122.286C18.741 121.914 16.692 121.755 15.963 122.64C15.8471 122.79 15.7642 122.964 15.7196 123.148C15.675 123.333 15.6699 123.525 15.7044 123.712C15.7389 123.898 15.8124 124.076 15.92 124.232C16.0276 124.389 16.167 124.521 16.329 124.62C17.001 125.064 17.988 124.938 18.705 124.686C19.422 124.434 20.487 123.453 20.85 123.111C21.15 123.372 21.45 123.633 21.75 123.903C21.939 124.089 22.134 124.257 22.314 124.455L22.857 125.031C23.187 125.406 23.532 125.793 23.844 126.171C24.066 126.432 24.27 126.681 24.477 126.936C24.177 126.693 23.538 126.231 23.484 126.198C22.584 125.688 20.595 125.217 19.746 125.985C19.6085 126.116 19.5002 126.274 19.428 126.45C19.3558 126.625 19.3214 126.814 19.3271 127.003C19.3327 127.193 19.3783 127.379 19.4608 127.55C19.5434 127.721 19.661 127.873 19.806 127.995C20.406 128.535 21.399 128.562 22.146 128.421C22.971 128.262 24.438 127.236 24.621 127.107C24.96 127.527 25.29 127.941 25.593 128.334C26.412 129.39 27.093 130.329 27.618 131.088L28.29 130.734C27.732 129.966 27.006 129 26.124 127.914C25.779 127.485 25.401 127.035 25.011 126.576C25.3845 126.138 25.7311 125.679 26.049 125.199C26.862 125.499 28.533 125.442 28.749 125.436C28.803 125.976 28.848 126.498 28.884 126.996C28.98 128.289 29.028 129.423 29.055 130.332L29.784 129.945C29.739 129.093 29.67 128.079 29.559 126.945C29.508 126.396 29.442 125.814 29.367 125.214C29.577 125.154 31.302 124.65 31.938 124.104C32.52 123.609 33.12 122.817 33.072 122.004C33.067 121.814 33.022 121.628 32.9401 121.456C32.8582 121.285 32.7411 121.133 32.5965 121.01C32.4519 120.887 32.283 120.795 32.1008 120.742C31.9186 120.688 31.7272 120.674 31.539 120.699C30.414 120.882 29.523 122.739 29.37 123.747C29.37 123.807 29.334 124.464 29.325 124.878C29.295 124.635 29.265 124.398 29.232 124.146C29.163 123.648 29.082 123.153 28.998 122.622C28.948 122.368 28.897 122.11 28.845 121.848C28.8 121.587 28.719 121.32 28.656 121.053C28.5 120.435 28.308 119.82 28.104 119.202C28.539 119.145 30.081 118.902 30.732 118.509C31.383 118.116 32.094 117.414 32.169 116.613C32.1926 116.425 32.1763 116.233 32.1213 116.052C32.0662 115.87 31.9736 115.702 31.8495 115.558C31.7253 115.414 31.5724 115.298 31.4006 115.218C31.2287 115.137 31.0418 115.093 30.852 115.089C29.712 115.089 28.551 116.802 28.245 117.789C28.227 117.852 28.086 118.575 28.017 118.974C27.891 118.602 27.768 118.233 27.627 117.864C27.225 116.796 26.781 115.728 26.346 114.66L25.953 113.679C26.109 113.658 27.948 113.421 28.677 112.971C29.325 112.569 30.039 111.876 30.111 111.075C30.1392 110.885 30.1265 110.691 30.0739 110.506C30.0213 110.321 29.93 110.15 29.8059 110.003C29.6819 109.857 29.5281 109.738 29.3546 109.655C29.1812 109.573 28.9921 109.528 28.8 109.524C27.657 109.524 26.496 111.237 26.193 112.209C26.169 112.284 25.971 113.325 25.932 113.592C25.632 112.872 25.365 112.149 25.119 111.429C24.7824 110.456 24.5089 109.462 24.3 108.453C24.372 108.453 26.295 108.204 27.042 107.742C27.687 107.34 28.401 106.647 28.476 105.846C28.5 105.658 28.4842 105.467 28.4295 105.285C28.3748 105.103 28.2825 104.935 28.1586 104.791C28.0347 104.647 27.8819 104.531 27.7102 104.451C27.5385 104.37 27.3517 104.326 27.162 104.322C26.019 104.322 24.858 106.035 24.555 107.007C24.531 107.085 24.315 108.207 24.291 108.411C24.291 108.351 24.261 108.294 24.249 108.234C24.0674 107.216 23.9761 106.184 23.976 105.15C23.976 104.58 23.994 104.034 24.03 103.503C24.393 103.503 26.049 103.443 26.769 103.101C27.489 102.759 28.239 102.162 28.404 101.373C28.4481 101.188 28.4529 100.997 28.4182 100.81C28.3835 100.624 28.3101 100.447 28.2027 100.29C28.0952 100.134 27.9561 100.002 27.7945 99.9025C27.6328 99.8033 27.4521 99.739 27.264 99.714C26.127 99.6 24.786 101.163 24.375 102.099C24.354 102.15 24.183 102.699 24.075 103.086C24.096 102.849 24.111 102.6 24.135 102.372C24.222 101.511 24.357 100.731 24.48 100.038C24.552 99.645 24.627 99.294 24.699 98.964C25.053 98.769 26.46 97.974 26.931 97.35C27.402 96.726 27.807 95.85 27.585 95.064C27.5394 94.8788 27.4552 94.7053 27.3379 94.555C27.2206 94.4046 27.0728 94.2808 26.9043 94.1915C26.7357 94.1023 26.5502 94.0497 26.3599 94.0372C26.1696 94.0247 25.9788 94.0526 25.8 94.119C24.738 94.539 24.27 96.546 24.336 97.563C24.336 97.653 24.591 99.018 24.609 99.006H24.63C24.555 99.321 24.477 99.66 24.399 100.035C24.261 100.725 24.099 101.505 24.003 102.366C23.8776 103.292 23.8064 104.225 23.79 105.159C23.767 106.206 23.8372 107.253 24 108.288C24 108.288 24 108.312 24 108.324C23.85 108.024 23.4 107.202 23.358 107.145C22.758 106.311 21.147 105.045 20.058 105.384C19.8787 105.446 19.7144 105.544 19.5757 105.674C19.437 105.803 19.3271 105.96 19.2529 106.135C19.1788 106.309 19.1422 106.497 19.1455 106.687C19.1488 106.876 19.1919 107.063 19.272 107.235C19.587 107.976 20.472 108.417 21.219 108.603C22.053 108.81 23.883 108.471 24.03 108.444C24.2202 109.492 24.4808 110.527 24.81 111.54C24.999 112.14 25.206 112.722 25.41 113.31C25.272 113.055 25.146 112.83 25.125 112.8C24.525 111.966 22.914 110.7 21.825 111.039C21.6457 111.101 21.4814 111.199 21.3427 111.329C21.204 111.458 21.0941 111.615 21.0199 111.79C20.9458 111.964 20.9092 112.152 20.9125 112.342C20.9158 112.531 20.9589 112.718 21.039 112.89C21.354 113.634 22.239 114.072 22.983 114.258C23.727 114.444 25.302 114.189 25.716 114.114C25.803 114.339 25.884 114.564 25.971 114.789C26.382 115.869 26.799 116.943 27.171 118.008C27.303 118.383 27.42 118.758 27.54 119.133C27.417 118.908 27.309 118.719 27.291 118.692C26.691 117.858 25.077 116.592 23.991 116.931C23.8115 116.992 23.6468 117.091 23.5078 117.22C23.3688 117.349 23.2585 117.506 23.1841 117.681C23.1097 117.855 23.0728 118.044 23.0759 118.233C23.079 118.423 23.122 118.61 23.202 118.782C23.52 119.523 24.402 119.964 25.149 120.15C25.896 120.336 27.315 120.102 27.807 120.018C27.918 120.405 28.029 120.792 28.107 121.173C28.161 121.434 28.233 121.683 28.275 121.947C28.317 122.211 28.365 122.469 28.41 122.724C28.476 123.222 28.551 123.735 28.605 124.224C28.644 124.563 28.677 124.887 28.71 125.211C28.581 124.836 28.317 124.107 28.287 124.047C27.8604 123.261 27.241 122.596 26.487 122.115C26.4426 122.026 26.3904 121.94 26.331 121.86C26.2221 121.705 26.0817 121.574 25.9189 121.476C25.7561 121.378 25.5746 121.316 25.3862 121.293C25.1977 121.27 25.0066 121.287 24.8251 121.343C24.6437 121.399 24.476 121.492 24.333 121.617C23.493 122.391 23.778 124.431 24.204 125.358C24.231 125.412 24.57 125.973 24.804 126.324C24.642 126.138 24.504 125.955 24.321 125.766C23.991 125.388 23.649 125.019 23.286 124.623L22.731 124.059C22.551 123.87 22.335 123.69 22.131 123.501C21.66 123.075 21.162 122.664 20.652 122.265C20.982 121.965 22.152 120.93 22.452 120.234C22.752 119.538 22.983 118.572 22.602 117.861C22.5199 117.689 22.4025 117.537 22.2574 117.414C22.1123 117.291 21.9429 117.2 21.7602 117.147C21.5775 117.094 21.3856 117.08 21.1972 117.107C21.0089 117.133 20.8282 117.199 20.667 117.3C19.719 117.939 19.689 120 19.971 120.981C19.989 121.041 20.271 121.722 20.433 122.091C20.133 121.854 19.833 121.614 19.497 121.383C18.573 120.714 17.613 120.066 16.662 119.418L15.792 118.818C15.912 118.716 17.313 117.504 17.673 116.718C17.991 116.025 18.204 115.056 17.823 114.345C17.7389 114.177 17.6205 114.028 17.4754 113.908C17.3303 113.789 17.1617 113.701 16.9806 113.65C16.7994 113.6 16.6097 113.587 16.4236 113.615C16.2375 113.642 16.0591 113.708 15.9 113.808C14.952 114.444 14.922 116.508 15.207 117.486C15.228 117.558 15.636 118.539 15.75 118.782C15.114 118.338 14.484 117.882 13.878 117.426C13.0592 116.801 12.2816 116.123 11.55 115.398C11.604 115.35 13.077 114.09 13.443 113.298C13.761 112.608 13.977 111.636 13.596 110.925C13.5119 110.755 13.393 110.604 13.2469 110.483C13.1008 110.362 12.9308 110.273 12.748 110.222C12.5653 110.17 12.3737 110.158 12.186 110.186C11.9982 110.213 11.8183 110.28 11.658 110.382C10.71 111.021 10.68 113.082 10.965 114.06C10.986 114.138 11.427 115.191 11.52 115.374L11.388 115.251C10.6738 114.503 10.0282 113.693 9.45901 112.83C9.13801 112.356 8.85901 111.888 8.59501 111.426C8.89501 111.219 10.245 110.259 10.656 109.578C11.067 108.897 11.367 107.985 11.067 107.238C11.0025 107.059 10.901 106.896 10.7693 106.76C10.6376 106.623 10.4786 106.515 10.3026 106.444C10.1266 106.373 9.93754 106.339 9.74775 106.346C9.55796 106.352 9.37167 106.399 9.20101 106.482C8.19001 107.013 7.93501 109.059 8.10901 110.064C8.10901 110.118 8.27401 110.664 8.40901 111.057C8.29501 110.847 8.17201 110.631 8.06701 110.427C7.66501 109.662 7.34401 108.927 7.06501 108.294C6.91201 107.925 6.76501 107.589 6.65701 107.274C6.84301 106.92 7.57801 105.474 7.62601 104.7C7.67401 103.926 7.50001 102.951 6.90001 102.426C6.76043 102.297 6.59532 102.199 6.41543 102.139C6.23554 102.078 6.04489 102.056 5.85588 102.074C5.66686 102.092 5.48372 102.149 5.31834 102.242C5.15297 102.335 5.00908 102.462 4.89601 102.615C4.24201 103.551 4.95901 105.483 5.57701 106.296C5.63101 106.368 6.59101 107.367 6.60001 107.349V107.328C6.71101 107.628 6.83401 107.961 6.97201 108.315C7.23901 108.966 7.54501 109.701 7.92901 110.478C8.33763 111.32 8.79542 112.138 9.30001 112.926C9.85806 113.812 10.4935 114.646 11.199 115.419L11.226 115.446C10.926 115.278 10.107 114.846 10.026 114.816C9.07501 114.444 7.02601 114.285 6.30001 115.17C6.18402 115.32 6.10094 115.493 6.05618 115.677C6.01142 115.861 6.00599 116.053 6.04024 116.24C6.07448 116.426 6.14764 116.603 6.25495 116.76C6.36225 116.916 6.50129 117.048 6.66301 117.147C7.34401 117.6 8.32801 117.468 9.04801 117.213Z" fill="#263238"/>
<path d="M23.88 103.338C23.901 103.338 23.58 101.988 23.55 101.904C23.205 100.944 21.972 99.2941 20.829 99.3331C20.6398 99.3455 20.4554 99.3976 20.2876 99.4857C20.1197 99.5739 19.9723 99.6963 19.8546 99.845C19.737 99.9937 19.6519 100.165 19.6048 100.349C19.5577 100.533 19.5496 100.724 19.581 100.911C19.692 101.712 20.433 102.372 21.099 102.744C21.879 103.182 23.877 103.338 23.88 103.338Z" fill="#263238"/>
<path d="M143.769 112.398C142.869 112.332 141.123 111.357 141.123 111.357C141.123 111.357 142.116 110.397 142.185 110.343C143.004 109.743 144.945 109.038 145.875 109.701C146.026 109.815 146.152 109.96 146.244 110.127C146.335 110.293 146.391 110.476 146.407 110.666C146.423 110.855 146.398 111.045 146.336 111.224C146.273 111.403 146.173 111.567 146.043 111.705C145.5 112.314 144.528 112.452 143.769 112.398Z" fill="#263238"/>
<path d="M140.451 117.212C139.641 116.927 138.3 115.634 138.192 115.529C137.455 116.299 136.666 117.019 135.831 117.683C135.348 118.07 134.85 118.448 134.346 118.82C134.601 118.685 134.832 118.565 134.865 118.553C135.816 118.181 137.865 118.022 138.591 118.907C138.707 119.057 138.79 119.23 138.834 119.414C138.879 119.599 138.884 119.791 138.849 119.977C138.815 120.164 138.741 120.341 138.634 120.497C138.526 120.653 138.387 120.785 138.225 120.884C137.553 121.331 136.569 121.205 135.849 120.95C135.129 120.695 133.953 119.615 133.65 119.324L133.065 119.747C132.126 120.419 131.187 121.085 130.284 121.766C129.966 122.006 129.66 122.255 129.354 122.501C129.582 122.381 129.774 122.282 129.807 122.27C130.755 121.898 132.807 121.739 133.533 122.624C133.649 122.774 133.732 122.948 133.776 123.132C133.821 123.317 133.826 123.509 133.792 123.696C133.757 123.882 133.684 124.06 133.576 124.216C133.468 124.373 133.329 124.505 133.167 124.604C132.495 125.048 131.508 124.922 130.791 124.67C130.074 124.418 129.009 123.437 128.646 123.095C128.346 123.356 128.046 123.617 127.746 123.887C127.554 124.073 127.359 124.241 127.179 124.439C126.999 124.637 126.816 124.823 126.639 125.015C126.306 125.39 125.964 125.777 125.649 126.155C125.43 126.416 125.223 126.665 125.016 126.92C125.331 126.677 125.955 126.215 126.012 126.182C126.894 125.672 128.901 125.201 129.747 125.969C129.884 126.1 129.993 126.258 130.065 126.433C130.137 126.609 130.172 126.798 130.166 126.987C130.16 127.177 130.115 127.363 130.032 127.534C129.95 127.705 129.832 127.857 129.687 127.979C129.087 128.519 128.097 128.546 127.347 128.405C126.525 128.246 125.058 127.22 124.875 127.091C124.533 127.511 124.206 127.925 123.9 128.318C123.084 129.374 122.4 130.313 121.875 131.072L121.2 130.718C121.758 129.95 122.487 128.984 123.366 127.898C123.711 127.469 124.089 127.019 124.482 126.56C124.108 126.122 123.761 125.662 123.441 125.183C122.628 125.483 120.957 125.426 120.741 125.42C120.69 125.96 120.642 126.482 120.606 126.98C120.51 128.273 120.462 129.407 120.438 130.316L119.706 129.929C119.751 129.077 119.823 128.063 119.931 126.929C119.985 126.38 120.051 125.798 120.123 125.198C119.913 125.138 118.191 124.634 117.552 124.088C116.973 123.593 116.373 122.801 116.421 121.988C116.426 121.798 116.47 121.612 116.552 121.44C116.633 121.269 116.75 121.117 116.895 120.994C117.039 120.871 117.208 120.779 117.39 120.726C117.572 120.672 117.763 120.658 117.951 120.683C119.079 120.866 119.967 122.723 120.12 123.731C120.12 123.791 120.156 124.448 120.165 124.862C120.198 124.619 120.225 124.382 120.261 124.13C120.327 123.632 120.408 123.137 120.495 122.606C120.543 122.351 120.594 122.093 120.645 121.832C120.696 121.571 120.771 121.304 120.834 121.037C120.993 120.419 121.182 119.804 121.386 119.186C120.951 119.129 119.409 118.886 118.758 118.493C118.107 118.1 117.396 117.398 117.324 116.597C117.3 116.409 117.316 116.217 117.371 116.036C117.425 115.854 117.518 115.686 117.641 115.542C117.765 115.398 117.918 115.282 118.09 115.201C118.262 115.121 118.448 115.077 118.638 115.073C119.781 115.073 120.942 116.786 121.245 117.773C121.266 117.836 121.404 118.559 121.473 118.958C121.599 118.586 121.725 118.217 121.863 117.848C122.268 116.78 122.709 115.712 123.144 114.644C123.279 114.317 123.408 113.99 123.537 113.663C123.384 113.642 121.542 113.405 120.813 112.955C120.168 112.553 119.454 111.86 119.379 111.059C119.355 110.871 119.371 110.679 119.426 110.498C119.48 110.316 119.572 110.148 119.696 110.004C119.82 109.86 119.973 109.744 120.145 109.663C120.317 109.583 120.503 109.539 120.693 109.535C121.836 109.535 122.997 111.248 123.303 112.22C123.324 112.295 123.525 113.336 123.561 113.603C123.861 112.883 124.128 112.16 124.377 111.44C124.715 110.467 124.989 109.473 125.199 108.464C125.127 108.464 123.207 108.215 122.46 107.753C121.812 107.351 121.098 106.658 121.023 105.857C120.999 105.668 121.016 105.477 121.071 105.295C121.126 105.114 121.218 104.946 121.343 104.802C121.467 104.658 121.62 104.542 121.791 104.461C121.963 104.381 122.15 104.337 122.34 104.333C123.483 104.333 124.641 106.046 124.947 107.018C124.971 107.096 125.184 108.218 125.208 108.422C125.208 108.362 125.241 108.305 125.25 108.245C125.433 107.227 125.524 106.195 125.523 105.161C125.523 104.591 125.505 104.045 125.469 103.514C125.106 103.514 123.45 103.454 122.733 103.112C122.016 102.77 121.26 102.173 121.098 101.384C121.053 101.199 121.048 101.007 121.083 100.821C121.117 100.634 121.191 100.457 121.298 100.3C121.406 100.144 121.545 100.012 121.707 99.9125C121.869 99.8134 122.05 99.7495 122.238 99.7249C123.375 99.6109 124.716 101.174 125.124 102.11C125.148 102.161 125.316 102.71 125.424 103.097C125.403 102.86 125.388 102.611 125.364 102.383C125.277 101.522 125.145 100.742 125.019 100.049C124.947 99.6559 124.872 99.3049 124.8 98.9749C124.449 98.7799 123.042 97.9849 122.571 97.3609C122.1 96.7369 121.695 95.8609 121.914 95.0749C121.96 94.8908 122.044 94.7183 122.16 94.5688C122.277 94.4192 122.424 94.2959 122.592 94.2068C122.759 94.1177 122.943 94.0648 123.133 94.0515C123.322 94.0383 123.512 94.065 123.69 94.1299C124.752 94.5499 125.22 96.5569 125.154 97.5739C125.154 97.6639 124.899 99.0289 124.881 99.0169H124.86C124.935 99.3319 125.016 99.6709 125.094 100.046C125.232 100.736 125.394 101.516 125.49 102.377C125.614 103.303 125.685 104.236 125.7 105.17C125.724 106.217 125.655 107.264 125.493 108.299V108.335C125.643 108.035 126.093 107.213 126.135 107.156C126.735 106.322 128.346 105.056 129.435 105.395C129.615 105.456 129.779 105.555 129.918 105.684C130.057 105.813 130.167 105.97 130.241 106.145C130.316 106.319 130.352 106.508 130.349 106.698C130.345 106.887 130.302 107.074 130.221 107.246C129.906 107.987 129.021 108.428 128.277 108.614C127.443 108.821 125.61 108.482 125.463 108.455C125.273 109.503 125.012 110.538 124.683 111.551C124.494 112.151 124.287 112.733 124.083 113.321C124.221 113.066 124.347 112.841 124.368 112.811C124.968 111.977 126.582 110.711 127.668 111.05C127.848 111.111 128.012 111.21 128.151 111.339C128.29 111.468 128.401 111.625 128.475 111.8C128.549 111.974 128.586 112.162 128.583 112.352C128.58 112.542 128.537 112.729 128.457 112.901C128.139 113.645 127.257 114.083 126.51 114.269C125.763 114.455 124.191 114.2 123.777 114.125L123.525 114.8C123.111 115.88 122.694 116.954 122.325 118.019C122.193 118.394 122.076 118.769 121.959 119.144C122.082 118.919 122.187 118.73 122.205 118.703C122.805 117.869 124.419 116.603 125.505 116.942C125.684 117.004 125.849 117.102 125.987 117.232C126.126 117.361 126.236 117.518 126.31 117.692C126.384 117.867 126.421 118.055 126.418 118.245C126.414 118.434 126.371 118.621 126.291 118.793C125.973 119.534 125.091 119.975 124.344 120.161C123.597 120.347 122.178 120.113 121.686 120.029C121.578 120.416 121.467 120.803 121.386 121.184C121.332 121.445 121.26 121.694 121.221 121.958C121.182 122.222 121.131 122.48 121.086 122.735C121.017 123.233 120.945 123.746 120.891 124.235C120.849 124.574 120.816 124.898 120.783 125.222C120.912 124.847 121.179 124.118 121.206 124.058C121.627 123.262 122.244 122.588 123 122.099C123.042 122.008 123.095 121.923 123.156 121.844C123.265 121.688 123.405 121.558 123.567 121.46C123.73 121.362 123.911 121.3 124.099 121.277C124.287 121.254 124.478 121.271 124.66 121.327C124.841 121.383 125.008 121.476 125.151 121.601C125.991 122.375 125.709 124.415 125.28 125.342C125.253 125.396 124.914 125.957 124.68 126.308C124.842 126.122 124.998 125.939 125.166 125.75C125.496 125.372 125.835 125.003 126.201 124.607L126.753 124.043C126.936 123.854 127.152 123.674 127.353 123.485C127.824 123.059 128.322 122.648 128.835 122.249C128.505 121.949 127.335 120.914 127.035 120.218C126.735 119.522 126.501 118.556 126.882 117.845C126.966 117.674 127.085 117.524 127.231 117.402C127.377 117.281 127.546 117.191 127.729 117.14C127.912 117.088 128.104 117.076 128.292 117.103C128.48 117.131 128.66 117.197 128.82 117.299C129.768 117.938 129.795 119.999 129.513 120.98C129.495 121.04 129.213 121.721 129.051 122.09C129.351 121.853 129.666 121.613 129.987 121.382C130.914 120.713 131.871 120.065 132.825 119.417L133.692 118.817C133.575 118.715 132.171 117.503 131.811 116.717C131.493 116.024 131.28 115.055 131.661 114.344C131.745 114.173 131.864 114.022 132.01 113.901C132.156 113.78 132.326 113.69 132.509 113.639C132.691 113.588 132.883 113.576 133.071 113.604C133.259 113.631 133.439 113.699 133.599 113.801C134.544 114.437 134.574 116.501 134.292 117.479C134.271 117.551 133.863 118.532 133.746 118.775C134.385 118.331 135.015 117.875 135.618 117.419C136.437 116.794 137.215 116.117 137.946 115.391C137.892 115.343 136.422 114.083 136.053 113.291C135.735 112.601 135.522 111.629 135.903 110.918C135.987 110.748 136.105 110.597 136.251 110.476C136.397 110.355 136.567 110.266 136.749 110.215C136.932 110.163 137.123 110.151 137.311 110.179C137.498 110.206 137.678 110.273 137.838 110.375C138.786 111.014 138.816 113.075 138.531 114.053C138.51 114.131 138.072 115.184 137.979 115.367L138.111 115.244C138.823 114.495 139.468 113.685 140.037 112.823C140.358 112.349 140.637 111.881 140.901 111.419C140.601 111.212 139.251 110.252 138.843 109.571C138.435 108.89 138.132 107.978 138.432 107.231C138.497 107.052 138.598 106.889 138.73 106.752C138.861 106.616 139.02 106.508 139.196 106.437C139.372 106.365 139.561 106.332 139.751 106.339C139.941 106.345 140.127 106.392 140.298 106.475C141.309 107.006 141.564 109.052 141.39 110.057C141.39 110.111 141.222 110.657 141.09 111.05C141.204 110.84 141.327 110.624 141.435 110.42C141.837 109.655 142.155 108.92 142.434 108.287C142.59 107.918 142.734 107.582 142.845 107.267C142.656 106.913 141.924 105.467 141.873 104.693C141.822 103.919 141.978 102.95 142.587 102.425C142.727 102.296 142.892 102.198 143.072 102.138C143.251 102.077 143.442 102.055 143.631 102.073C143.82 102.09 144.003 102.148 144.169 102.241C144.334 102.334 144.478 102.461 144.591 102.614C145.245 103.55 144.528 105.482 143.913 106.295C143.859 106.367 142.896 107.366 142.887 107.348V107.327C142.779 107.627 142.656 107.96 142.515 108.314C142.251 108.965 141.945 109.7 141.558 110.477C141.151 111.319 140.696 112.136 140.193 112.925C139.637 113.812 139.001 114.646 138.294 115.418L138.267 115.445C138.567 115.277 139.386 114.845 139.467 114.815C140.415 114.443 142.467 114.284 143.193 115.169C143.309 115.319 143.392 115.492 143.436 115.676C143.481 115.861 143.486 116.053 143.451 116.239C143.417 116.426 143.343 116.603 143.236 116.759C143.128 116.915 142.989 117.047 142.827 117.146C142.155 117.599 141.168 117.467 140.451 117.212Z" fill="#263238"/>
<path d="M125.619 103.338C125.598 103.338 125.919 101.988 125.946 101.904C126.291 100.944 127.527 99.2941 128.667 99.3331C128.856 99.3451 129.041 99.3968 129.209 99.4848C129.377 99.5729 129.525 99.6953 129.643 99.8441C129.76 99.9929 129.845 100.165 129.892 100.349C129.939 100.532 129.947 100.724 129.915 100.911C129.807 101.712 129.063 102.372 128.4 102.744C127.62 103.182 125.619 103.338 125.619 103.338Z" fill="#263238"/>
<path d="M27.669 60.1799L27.918 60.3449" stroke="#263238" stroke-miterlimit="10"/>
<path d="M28.422 60.672L74.391 90.561" stroke="#263238" stroke-miterlimit="10" stroke-dasharray="2 2"/>
<path d="M74.643 90.726L74.892 90.888L74.73 90.639" stroke="#263238" stroke-miterlimit="10"/>
<path d="M74.406 90.138L34.974 29.5081" stroke="#263238" stroke-miterlimit="10" stroke-dasharray="1.98 1.98"/>
<path d="M34.809 29.259L34.647 29.007" stroke="#263238" stroke-miterlimit="10"/>
<path d="M122.118 60.1799L121.869 60.3449" stroke="#263238" stroke-miterlimit="10"/>
<path d="M121.365 60.672L75.396 90.561" stroke="#263238" stroke-miterlimit="10" stroke-dasharray="2 2"/>
<path d="M75.144 90.726L74.892 90.888L75.057 90.639" stroke="#263238" stroke-miterlimit="10"/>
<path d="M75.381 90.138L114.813 29.5081" stroke="#263238" stroke-miterlimit="10" stroke-dasharray="1.98 1.98"/>
<path d="M114.975 29.259L115.14 29.007" stroke="#263238" stroke-miterlimit="10"/>
<path d="M74.892 19.7009V20.0009" stroke="#263238" stroke-miterlimit="10"/>
<path d="M74.892 20.6039V90.2879" stroke="#263238" stroke-miterlimit="10" stroke-dasharray="2.01 2.01"/>
<path d="M74.892 90.5881V90.8881" stroke="#263238" stroke-miterlimit="10"/>
<path d="M75.453 27.57C80.5478 27.57 84.678 23.4398 84.678 18.345C84.678 13.2502 80.5478 9.12 75.453 9.12C70.3582 9.12 66.228 13.2502 66.228 18.345C66.228 23.4398 70.3582 27.57 75.453 27.57Z" fill="#263238" stroke="#263238" stroke-width="2" stroke-miterlimit="10"/>
<path d="M75.453 18.345L83.217 13.365C82.0699 11.5791 80.3433 10.2423 78.327 9.57898L75.453 18.345Z" fill="#1807D2" stroke="#263238" stroke-miterlimit="10"/>
<path d="M75.453 18.345L79.8 26.478C80.9214 25.8768 81.9063 25.0501 82.6928 24.05C83.4794 23.0498 84.0505 21.8977 84.3703 20.6661C84.69 19.4346 84.7516 18.1502 84.5511 16.8937C84.3505 15.6372 83.8923 14.4358 83.205 13.365L75.453 18.345Z" fill="white" stroke="#263238" stroke-miterlimit="10"/>
<path d="M120.124 35.4697C123.725 31.8683 123.725 26.0292 120.124 22.4278C116.522 18.8264 110.683 18.8264 107.082 22.4278C103.48 26.0292 103.48 31.8683 107.082 35.4697C110.683 39.0711 116.522 39.0711 120.124 35.4697Z" stroke="#263238" stroke-miterlimit="10"/>
<path d="M113.601 36.9451C118.017 36.9451 121.596 33.3656 121.596 28.9501C121.596 24.5346 118.017 20.9551 113.601 20.9551C109.186 20.9551 105.606 24.5346 105.606 28.9501C105.606 33.3656 109.186 36.9451 113.601 36.9451Z" fill="#263238"/>
<path d="M118.2 28.9501L110.457 24.4771V33.4201L118.2 28.9501Z" fill="white"/>
<path d="M136.176 61.2751C137.414 56.1061 134.228 50.9121 129.059 49.674C123.89 48.4359 118.696 51.6225 117.458 56.7915C116.22 61.9605 119.406 67.1544 124.575 68.3925C129.744 69.6306 134.938 66.444 136.176 61.2751Z" fill="#263238"/>
<path d="M133.509 60.6367C134.39 56.9445 132.111 53.2372 128.419 52.3562C124.726 51.4752 121.019 53.7542 120.138 57.4464C119.257 61.1386 121.536 64.8459 125.228 65.7268C128.92 66.6078 132.628 64.3289 133.509 60.6367Z" fill="white"/>
<path d="M130.824 59.9846C131.35 57.7681 129.98 55.5445 127.764 55.0181C125.547 54.4917 123.324 55.8618 122.797 58.0783C122.271 60.2948 123.641 62.5184 125.857 63.0448C128.074 63.5712 130.297 62.2011 130.824 59.9846Z" fill="#263238"/>
<path d="M128.985 59.555C129.268 58.362 128.53 57.1657 127.337 56.883C126.144 56.6003 124.948 57.3383 124.665 58.5313C124.382 59.7244 125.12 60.9207 126.313 61.2034C127.506 61.4861 128.703 60.7481 128.985 59.555Z" fill="white"/>
<path d="M139.08 54.42L137.856 53.943L138.39 53.682C138.421 53.6679 138.449 53.6477 138.472 53.6228C138.495 53.5978 138.513 53.5684 138.524 53.5365C138.536 53.5045 138.541 53.4706 138.539 53.4366C138.537 53.4027 138.529 53.3695 138.514 53.3389C138.499 53.3083 138.478 53.281 138.453 53.2585C138.427 53.2361 138.398 53.219 138.365 53.2082C138.333 53.1974 138.299 53.1931 138.265 53.1956C138.231 53.1982 138.198 53.2075 138.168 53.223L137.781 53.412L138.396 52.08L136.113 53.1L135.78 54.381L126.705 58.8C126.675 58.8147 126.648 58.8352 126.626 58.8604C126.603 58.8856 126.586 58.9149 126.575 58.9467C126.565 58.9784 126.56 59.012 126.562 59.0456C126.564 59.0791 126.573 59.1118 126.588 59.142C126.602 59.1723 126.622 59.1995 126.647 59.222C126.672 59.2444 126.701 59.2616 126.733 59.2725C126.764 59.2834 126.798 59.2879 126.831 59.2855C126.865 59.2832 126.897 59.2742 126.927 59.259L136.032 54.825L137.025 55.386L139.08 54.42Z" fill="#263238"/>
<path d="M35.451 38.1689C40.7645 38.1689 45.072 33.8614 45.072 28.5479C45.072 23.2343 40.7645 18.9269 35.451 18.9269C30.1375 18.9269 25.83 23.2343 25.83 28.5479C25.83 33.8614 30.1375 38.1689 35.451 38.1689Z" fill="white" stroke="#263238" stroke-width="2" stroke-miterlimit="10"/>
<path d="M35.451 38.1689C39.3048 38.1689 42.429 33.8614 42.429 28.5479C42.429 23.2343 39.3048 18.9269 35.451 18.9269C31.5972 18.9269 28.473 23.2343 28.473 28.5479C28.473 33.8614 31.5972 38.1689 35.451 38.1689Z" fill="white" stroke="#263238" stroke-miterlimit="10"/>
<path d="M35.451 38.1689C37.0913 38.1689 38.421 33.8614 38.421 28.5479C38.421 23.2343 37.0913 18.9269 35.451 18.9269C33.8107 18.9269 32.481 23.2343 32.481 28.5479C32.481 33.8614 33.8107 38.1689 35.451 38.1689Z" fill="white" stroke="#263238" stroke-miterlimit="10"/>
<path d="M30.354 20.4209H40.719" stroke="#263238" stroke-miterlimit="10"/>
<path d="M26.868 24.192H44.019" stroke="#263238" stroke-miterlimit="10"/>
<path d="M25.878 27.96H45.054" stroke="#263238" stroke-miterlimit="10"/>
<path d="M26.301 31.731H44.49" stroke="#263238" stroke-miterlimit="10"/>
<path d="M28.893 35.4989H42.18" stroke="#263238" stroke-miterlimit="10"/>
<path d="M22.857 68.658C28.1705 68.658 32.478 64.3505 32.478 59.037C32.478 53.7235 28.1705 49.416 22.857 49.416C17.5435 49.416 13.236 53.7235 13.236 59.037C13.236 64.3505 17.5435 68.658 22.857 68.658Z" fill="#263238" stroke="#263238" stroke-width="2" stroke-miterlimit="10"/>
<path d="M28.953 54.489H16.194V64.698H28.953V54.489Z" fill="white" stroke="#263238" stroke-width="2" stroke-miterlimit="10"/>
<path d="M29.751 54.489H15.396V58.635H29.751V54.489Z" fill="white" stroke="#263238" stroke-width="2" stroke-miterlimit="10"/>
<path d="M22.56 54.3869C22.56 54.3869 19.56 50.8738 19.047 51.0418C18.534 51.2099 17.208 53.5499 17.961 53.8019C18.714 54.0539 22.56 54.3869 22.56 54.3869Z" fill="#1807D2"/>
<path d="M22.587 54.3869C22.587 54.3869 25.587 50.8738 26.1 51.0418C26.613 51.2099 27.942 53.5499 27.189 53.8019C26.436 54.0539 22.587 54.3869 22.587 54.3869Z" fill="#1807D2"/>
<path d="M23.481 61.665L22.578 60.096L21.642 61.665V54.639H23.481V61.665Z" fill="#1807D2"/>
<path d="M27.117 85.5419L74.859 58.6709L123.771 85.5419V124.497H27.705L27.117 85.5419Z" fill="#263238" stroke="#263238" stroke-linecap="round" stroke-linejoin="round"/>
<path d="M111.18 65.9188H39.714V129.477H111.18V65.9188Z" fill="white" stroke="#263238" stroke-miterlimit="10"/>
<path d="M47.913 77.0488H102.099" stroke="#263238" stroke-miterlimit="10"/>
<path d="M47.913 82.6138H102.099" stroke="#263238" stroke-miterlimit="10"/>
<path d="M47.913 88.1788H102.099" stroke="#263238" stroke-miterlimit="10"/>
<path d="M47.913 93.7439H102.099" stroke="#263238" stroke-miterlimit="10"/>
<path d="M47.913 99.309H102.099" stroke="#263238" stroke-miterlimit="10"/>
<path d="M47.913 104.874H102.099" stroke="#263238" stroke-miterlimit="10"/>
<path d="M123.771 139.143H27.117V85.5419L75.447 118.347L123.771 85.5419V139.143Z" fill="#1807D2" stroke="#263238" stroke-miterlimit="10"/>
<path d="M27.117 139.143L62.259 109.38" stroke="#263238" stroke-miterlimit="10"/>
<path d="M123.618 139.143L88.737 109.332" stroke="#263238" stroke-miterlimit="10"/>
<path d="M85.899 48.201C85.899 48.201 85.536 49.899 86.022 50.445C86.508 50.991 88.326 52.932 88.326 53.235C88.326 53.538 87.726 62.274 87.726 62.274L84.936 60.273L83.238 65.49C83.238 65.49 87.483 67.311 89.487 67.674C91.491 68.037 91.851 67.491 91.851 65.916C91.851 64.341 90.273 52.266 90.273 52.266C90.273 52.266 90.759 49.476 90.759 48.99C90.759 48.504 90.942 48.261 90.516 48.018C90.09 47.775 86.634 47.418 86.634 47.418C86.634 47.418 85.899 47.715 85.899 48.201Z" fill="white" stroke="#263238" stroke-linecap="round" stroke-linejoin="round"/>
<path d="M84.999 61.0081L84.078 65.6821L83.232 65.4901L84.999 61.0081Z" fill="#263238" stroke="#263238" stroke-linecap="round" stroke-linejoin="round"/>
<path d="M91.8 49.5631L84.927 48.6391V46.9261C84.927 46.8465 84.9586 46.7702 85.0149 46.714C85.0711 46.6577 85.1474 46.6261 85.227 46.6261C85.3066 46.6261 85.3829 46.6577 85.4391 46.714C85.4954 46.7702 85.527 46.8465 85.527 46.9261V48.1261L91.272 48.9001L91.371 47.5141C91.3647 47.4698 91.3684 47.4246 91.3819 47.3819C91.3953 47.3392 91.4182 47.3001 91.4487 47.2673C91.4792 47.2346 91.5167 47.2091 91.5584 47.1928C91.6001 47.1764 91.6449 47.1696 91.6895 47.1728C91.7342 47.176 91.7775 47.1891 91.8165 47.2113C91.8554 47.2334 91.8888 47.264 91.9144 47.3008C91.9399 47.3375 91.9569 47.3795 91.9641 47.4237C91.9713 47.4679 91.9686 47.5131 91.956 47.5561L91.8 49.5631Z" fill="#263238"/>
<path d="M86.508 48.9899L90.267 49.3529L90.51 48.0179L86.628 47.4119L86.508 48.9899Z" fill="white" stroke="#263238" stroke-linecap="round" stroke-linejoin="round"/>
<path d="M85.839 49.173C85.839 49.173 85.839 47.655 86.022 47.535C86.205 47.415 88.812 47.595 88.812 47.958C88.812 48.321 88.812 48.504 88.512 48.504C88.212 48.504 87.612 48.564 87.612 48.564C87.612 48.564 89.007 49.839 88.581 50.991" fill="white"/>
<path d="M85.839 49.173C85.839 49.173 85.839 47.655 86.022 47.535C86.205 47.415 88.812 47.595 88.812 47.958C88.812 48.321 88.812 48.504 88.512 48.504C88.212 48.504 87.612 48.564 87.612 48.564C87.612 48.564 89.007 49.839 88.581 50.991" stroke="#263238" stroke-linecap="round" stroke-linejoin="round"/>
<path d="M87.72 62.274L87.477 64.944" stroke="#263238" stroke-linecap="round" stroke-linejoin="round"/>
<path d="M56.913 61.1101C56.913 61.1101 48.339 67.8001 48.561 68.5231C48.783 69.2461 55.143 75.3271 57.246 76.8181C59.349 78.3091 60.51 78.9781 60.51 78.9781L61.836 79.8061C61.836 79.8061 61.284 80.7061 61.617 80.8591C61.95 81.0121 63.165 81.6331 63.33 81.3001C63.495 80.9671 64.383 78.4801 64.272 77.8711C64.161 77.2621 60.951 76.7641 60.732 76.5421C60.513 76.3201 55.254 68.1421 55.254 68.1421L59.349 64.9351L56.913 61.1101Z" fill="white" stroke="#263238" stroke-linecap="round" stroke-linejoin="round"/>
<path d="M56.766 61.3322L58.323 65.5532L59.349 64.9262L56.766 61.3322Z" fill="#263238" stroke="#263238" stroke-linecap="round" stroke-linejoin="round"/>
<path d="M61.836 79.7999C61.836 79.7999 62.226 80.6309 62.889 80.6999" stroke="#263238" stroke-linecap="round" stroke-linejoin="round"/>
<path d="M55.254 68.1329L54.147 66.1979" stroke="#263238" stroke-linecap="round" stroke-linejoin="round"/>
<path d="M62.613 128.706L62.523 133.623L66.552 133.71L66.909 128.352L62.613 128.706Z" fill="white" stroke="#263238" stroke-linecap="round" stroke-linejoin="round"/>
<path d="M62.628 128.439V129.654L66.807 129.849L66.903 128.586L62.628 128.439Z" fill="#263238" stroke="#263238" stroke-linecap="round" stroke-linejoin="round"/>
<path d="M64.515 132.339C64.515 132.339 63.984 130.257 63.186 130.212C62.388 130.167 61.986 130.788 61.686 131.364C61.386 131.94 59.427 133.887 58.761 134.364C58.095 134.841 56.637 135.471 56.415 136.887C56.193 138.303 57.033 138.882 57.615 139.014C58.197 139.146 60.804 139.191 62.355 139.014C63.906 138.837 68.133 139.257 68.379 139.014C68.625 138.771 68.955 137.994 68.733 137.463C68.559 137.076 68.3512 136.706 68.112 136.356C68.112 136.356 68.556 135.072 68.289 134.364C68.022 133.656 67.491 132.768 67.581 132.369C67.671 131.97 68.643 131.13 67.98 131.085C67.317 131.04 66.252 131.838 65.58 132.06C65.2346 132.186 64.878 132.28 64.515 132.339V132.339Z" fill="#263238" stroke="#263238" stroke-linecap="round" stroke-linejoin="round"/>
<path d="M67.35 136.545C66.729 136.635 64.35 137.784 62.832 138.141C61.314 138.498 60 138.537 59.289 138.183C58.578 137.829 57.96 136.767 57.429 136.101C56.898 135.435 56.457 137.121 56.457 137.121L56.382 137.154C56.292 138.387 57.066 138.9 57.606 139.026C58.146 139.152 60.795 139.203 62.346 139.026C63.897 138.849 68.124 139.269 68.37 139.026C68.616 138.783 68.946 138.006 68.724 137.475C68.55 137.088 68.3422 136.718 68.103 136.368C67.839 136.323 67.971 136.458 67.35 136.545Z" fill="white" stroke="#263238" stroke-linecap="round" stroke-linejoin="round"/>
<path d="M60.9 132.6C60.9 132.6 62.1 132.336 63.6 133.8L62.805 134.463C62.805 134.463 61.254 133.263 60.279 133.263L60.9 132.6Z" fill="white" stroke="#263238" stroke-linecap="round" stroke-linejoin="round"/>
<path d="M59.778 133.5C59.778 133.5 60.978 133.233 62.478 134.7L61.683 135.366C61.683 135.366 60.132 134.166 59.157 134.166L59.778 133.5Z" fill="white" stroke="#263238" stroke-linecap="round" stroke-linejoin="round"/>
<path d="M63.276 133.356L64.515 132.339" stroke="#263238" stroke-linecap="round" stroke-linejoin="round"/>
<path d="M61.683 135.351C61.683 135.351 61.983 136.014 61.461 136.413C60.939 136.812 57.429 136.146 57.474 135.66C57.519 135.174 59.157 134.16 59.157 134.16C60.0725 134.377 60.9328 134.783 61.683 135.351V135.351Z" fill="white" stroke="#263238" stroke-linecap="round" stroke-linejoin="round"/>
<path d="M88.026 128.706L88.113 133.623L84.084 133.71L83.73 128.352L88.026 128.706Z" fill="white" stroke="#263238" stroke-linecap="round" stroke-linejoin="round"/>
<path d="M83.808 129.264V129.993L88.083 129.945L88.035 128.877L83.712 128.829L83.808 129.264Z" fill="#263238" stroke="#263238" stroke-linecap="round" stroke-linejoin="round"/>
<path d="M86.121 132.339C86.121 132.339 86.652 130.257 87.45 130.212C88.248 130.167 88.65 130.788 88.95 131.364C89.25 131.94 91.209 133.887 91.872 134.364C92.535 134.841 93.999 135.471 94.218 136.887C94.437 138.303 93.6 138.882 93.018 139.014C92.436 139.146 89.829 139.191 88.278 139.014C86.727 138.837 82.5 139.257 82.257 139.014C82.014 138.771 81.681 137.994 81.9 137.463C82.074 137.076 82.2818 136.706 82.521 136.356C82.521 136.356 82.077 135.072 82.344 134.364C82.611 133.656 83.142 132.768 83.052 132.369C82.962 131.97 81.99 131.13 82.653 131.085C83.316 131.04 84.381 131.838 85.053 132.06C85.3993 132.187 85.7569 132.28 86.121 132.339V132.339Z" fill="#263238" stroke="#263238" stroke-linecap="round" stroke-linejoin="round"/>
<path d="M83.286 136.545C83.907 136.635 86.286 137.784 87.804 138.141C89.322 138.498 90.639 138.537 91.347 138.183C92.055 137.829 92.676 136.767 93.207 136.101C93.738 135.435 94.182 137.121 94.182 137.121L94.254 137.154C94.344 138.387 93.57 138.9 93.03 139.026C92.49 139.152 89.841 139.203 88.29 139.026C86.739 138.849 82.512 139.269 82.269 139.026C82.026 138.783 81.693 138.006 81.912 137.475C82.086 137.088 82.2938 136.718 82.533 136.368C82.8 136.323 82.665 136.458 83.286 136.545Z" fill="white" stroke="#263238" stroke-linecap="round" stroke-linejoin="round"/>
<path d="M89.751 132.6C89.751 132.6 88.551 132.336 87.051 133.8L87.849 134.463C87.849 134.463 89.397 133.263 90.372 133.263L89.751 132.6Z" fill="white" stroke="#263238" stroke-linecap="round" stroke-linejoin="round"/>
<path d="M90.858 133.5C90.858 133.5 89.658 133.233 88.158 134.7L88.956 135.366C88.956 135.366 90.504 134.166 91.479 134.166L90.858 133.5Z" fill="white" stroke="#263238" stroke-linecap="round" stroke-linejoin="round"/>
<path d="M87.36 133.356L86.121 132.339" stroke="#263238" stroke-linecap="round" stroke-linejoin="round"/>
<path d="M88.956 135.351C88.956 135.351 88.656 136.014 89.175 136.413C89.694 136.812 93.207 136.146 93.162 135.66C93.117 135.174 91.479 134.16 91.479 134.16C90.5643 134.377 89.7049 134.783 88.956 135.351V135.351Z" fill="white" stroke="#263238" stroke-linecap="round" stroke-linejoin="round"/>
<path d="M64.464 76.8C64.464 76.8 62.121 86.367 61.242 94.473C60.363 102.579 58.995 129.132 58.995 129.132H69.735C69.735 129.132 72.957 102.183 73.446 97.401C73.935 92.619 73.932 89.601 73.932 89.601L79.986 129.144H92.775C92.775 129.144 87.894 104.052 85.941 92.544C83.988 81.036 81.255 76.533 81.255 76.533L64.464 76.8Z" fill="#B0B0B0" stroke="#263238" stroke-linecap="round" stroke-linejoin="round"/>
<path d="M73.641 77.493C73.548 77.772 71.004 81.594 71.784 81.885C72.564 82.176 74.031 82.185 74.031 81.399V78.273C74.031 78.273 74.226 82.668 75.105 82.473C75.984 82.278 77.154 82.473 76.863 81.495C76.572 80.517 74.325 77.4 74.325 77.4C74.325 77.4 73.932 76.614 73.641 77.493Z" fill="#B0B0B0" stroke="#263238" stroke-linecap="round" stroke-linejoin="round"/>
<path d="M74.043 77.814C74.043 77.814 76.257 80.958 76.044 81.243C75.831 81.528 75.543 81.813 75.33 81.387C75.117 80.961 74.043 77.814 74.043 77.814Z" stroke="#263238" stroke-miterlimit="10"/>
<path d="M73.971 77.457C73.971 77.457 72.327 80.958 72.543 81.099C72.6201 81.1466 72.7073 81.1752 72.7976 81.1823C72.8879 81.1894 72.9786 81.175 73.0622 81.1401C73.1457 81.1052 73.2198 81.0509 73.2782 80.9816C73.3366 80.9124 73.3777 80.8303 73.398 80.742C73.542 80.244 73.971 77.457 73.971 77.457Z" stroke="#263238" stroke-miterlimit="10"/>
<path d="M80.643 87.4351C80.733 87.9301 80.811 88.398 80.865 88.818" stroke="#263238" stroke-linecap="round" stroke-linejoin="round"/>
<path d="M78.327 77.7869C78.327 77.7869 79.545 82.1369 80.328 85.8299" stroke="#263238" stroke-linecap="round" stroke-linejoin="round"/>
<path d="M77.448 77.7869C77.448 77.7869 78.228 83.2529 78.618 84.7169" stroke="#263238" stroke-linecap="round" stroke-linejoin="round"/>
<path d="M66.822 85.3558C66.78 85.7338 66.744 86.0788 66.708 86.3758" stroke="#263238" stroke-linecap="round" stroke-linejoin="round"/>
<path d="M67.587 77.7869C67.587 77.7869 67.263 81.1259 66.987 83.8859" stroke="#263238" stroke-linecap="round" stroke-linejoin="round"/>
<path d="M66.807 77.9821L66.414 82.6681" stroke="#263238" stroke-linecap="round" stroke-linejoin="round"/>
<path d="M73.647 37.95C73.647 37.95 77.286 38.3129 76.437 40.1939C75.588 42.0749 74.739 42.4379 74.556 42.4379C74.373 42.4379 72.918 40.1939 72.918 40.1939L73.647 37.95Z" fill="#263238" stroke="#263238" stroke-linecap="round" stroke-linejoin="round"/>
<path d="M73.221 39.708C73.221 39.708 74.616 40.497 75.042 41.952C75.468 43.407 76.557 43.833 76.863 43.773C77.169 43.713 77.589 44.622 77.226 45.228L76.863 45.828C76.863 45.828 77.163 49.953 76.8 50.499C76.437 51.045 74.193 50.742 74.193 50.742C74.193 50.742 73.707 52.683 74.133 53.898C74.559 55.113 75.831 55.716 76.317 55.716C76.803 55.716 77.832 55.116 79.227 55.839C80.622 56.562 85.293 60.084 85.293 60.084L82.8 66.9L80.13 65.505L82.011 77.091L63.813 77.517C63.813 77.517 63.996 69.267 63.513 67.749C63.1755 66.743 62.7488 65.7691 62.238 64.839L59.934 66.657L56.718 61.077C56.718 61.077 61.449 56.346 63.318 55.92C65.187 55.494 67.443 56.043 68.172 55.131C68.901 54.219 68.292 49.914 68.292 49.914C68.292 49.914 66.534 49.314 65.502 46.215C64.47 43.116 67.989 39.915 67.989 39.915C67.989 39.915 69.582 38.253 73.221 39.708Z" fill="white" stroke="#263238" stroke-linecap="round" stroke-linejoin="round"/>
<path d="M74.193 50.7479L72.552 50.4719L73.869 51.9869L74.193 50.7479Z" fill="#263238" stroke="#263238" stroke-linecap="round" stroke-linejoin="round"/>
<path d="M73.422 42.9931C73.422 42.9931 73.422 41.8411 74.454 41.8411" stroke="#263238" stroke-width="2" stroke-linecap="round" stroke-linejoin="round"/>
<path d="M76.134 47.169L74.01 46.137C74.01 46.137 73.83 48.321 74.61 48.261C75.39 48.201 76.134 47.169 76.134 47.169Z" fill="#263238" stroke="#263238" stroke-linecap="round" stroke-linejoin="round"/>
<path d="M74.055 44.118C74.055 44.118 74.739 43.377 75.309 44.004" stroke="#263238" stroke-linecap="round" stroke-linejoin="round"/>
<path d="M73.995 46.8299L75.903 47.4509C75.985 47.3611 76.0621 47.267 76.134 47.1689L74.01 46.1399C74.01 46.1399 73.986 46.4489 73.995 46.8299Z" fill="white" stroke="#263238" stroke-linecap="round" stroke-linejoin="round"/>
<path d="M62.121 42.318C62.121 42.318 60.786 39.588 58.905 39.891C57.024 40.194 55.569 42.255 56.175 45.168C56.175 45.168 56.475 45.957 56.721 46.623C56.721 46.623 54.357 45.897 53.082 47.472C51.807 49.047 52.782 50.688 54.234 51.477C55.686 52.266 56.541 52.206 56.541 52.206C56.541 52.206 53.325 53.175 54.477 54.39C55.629 55.605 59.148 54.813 58.419 53.79C57.69 52.767 57.147 52.89 57.147 52.89C57.147 52.89 60.057 51.798 59.754 51.009C59.451 50.22 57.996 49.614 57.996 49.614C57.996 49.614 60.786 50.586 62.304 49.674C63.822 48.762 62.484 44.874 62.484 44.874L62.121 42.318Z" fill="#263238" stroke="#263238" stroke-linecap="round" stroke-linejoin="round"/>
<path d="M74.313 36.615C74.313 36.615 74.799 38.313 73.95 39.768C73.101 41.223 71.28 43.713 71.037 46.503C70.794 49.293 71.583 52.752 72.069 53.904C72.555 55.056 71.469 55.299 70.674 55.239C69.879 55.179 69.582 54.693 69.582 53.601C69.582 52.509 69.339 50.568 69.339 50.568C69.339 50.568 66.246 50.268 64.791 49.413C63.336 48.558 61.212 45.654 62.121 42.318C63.03 38.982 65.457 38.01 66.921 37.404C68.385 36.798 70.38 36.858 71.775 36.555C73.17 36.252 74.253 35.886 74.313 36.615Z" fill="#263238" stroke="#263238" stroke-linecap="round" stroke-linejoin="round"/>
<path d="M69.9 45.108L69.354 47.292C69.354 47.292 68.202 46.746 68.019 45.774C67.836 44.802 69.219 44.319 70.203 45.174" fill="white"/>
<path d="M69.9 45.108L69.354 47.292C69.354 47.292 68.202 46.746 68.019 45.774C67.836 44.802 69.219 44.319 70.203 45.174" stroke="#263238" stroke-linecap="round" stroke-linejoin="round"/>
<path d="M87.6 48.564L86.811 48.627" stroke="#263238" stroke-linecap="round" stroke-linejoin="round"/>
<path d="M81.924 46.812L102.144 49.641L99.396 34.683L81.3 43.398L81.924 46.812Z" fill="#1807D2" stroke="#263238" stroke-linecap="round" stroke-linejoin="round"/>
<path d="M81.2987 43.3987L78.2945 43.9479L78.916 47.3475L81.9202 46.7983L81.2987 43.3987Z" fill="#1807D2" stroke="#263238" stroke-linecap="round" stroke-linejoin="round"/>
<path d="M85.293 60.09C85.293 60.09 80.622 56.571 79.227 55.845C77.832 55.119 76.827 55.707 76.338 55.722C75.6876 56.6586 74.8119 57.4163 73.7917 57.9254C72.7714 58.4345 71.6394 58.6785 70.5 58.635C66.51 58.584 65.4 56.364 65.16 55.716C64.5494 55.7218 63.9407 55.7851 63.342 55.905C61.461 56.331 56.742 61.062 56.742 61.062L59.958 66.642L62.262 64.824C62.7728 65.7541 63.1995 66.728 63.537 67.734C64.023 69.252 63.837 77.502 63.837 77.502L82.035 77.076L80.154 65.49L82.8 66.9L85.293 60.09Z" fill="#263238" stroke="#263238" stroke-linecap="round" stroke-linejoin="round"/>
<path d="M73.7793 71.6439C76.787 70.9279 78.6447 67.9093 77.9288 64.9017C77.2128 61.894 74.1942 60.0362 71.1866 60.7522C68.1789 61.4682 66.3212 64.4868 67.0371 67.4944C67.7531 70.5021 70.7717 72.3598 73.7793 71.6439Z" stroke="white" stroke-miterlimit="10"/>
<path d="M75.903 63.66H69.264L72.537 66.813L75.903 63.66Z" fill="#1807D2"/>
<path d="M73.866 66.1171L76.176 68.1571V63.951L73.866 66.1171Z" fill="#1807D2"/>
<path d="M71.232 66.1111L68.892 63.8551V68.0611L71.232 66.1111Z" fill="#1807D2"/>
<path d="M73.572 66.3899L72.534 67.3649L71.523 66.3899L69.087 68.4209H75.87L73.572 66.3899Z" fill="#1807D2"/>
<path d="M9.09302 139.143H141.189" stroke="#263238" stroke-miterlimit="10"/>
</svg>
