<svg width="150" height="150" viewBox="0 0 150 150" fill="none" xmlns="http://www.w3.org/2000/svg">
<path d="M50.157 21.5761C50.157 21.5761 27.426 33.1561 16.089 51C4.752 68.844 5.649 91.8 19.425 108.84C33.201 125.88 59.532 123.642 81.579 134.436C103.626 145.23 127.95 143.007 138.375 120.138C148.8 97.269 133.08 88.722 130.38 62.2561C127.68 35.7901 103.821 -2.96395 50.157 21.5761Z" fill="#1818D4"/>
<path opacity="0.7" d="M50.157 21.5761C50.157 21.5761 27.426 33.1561 16.089 51C4.752 68.844 5.649 91.8 19.425 108.84C33.201 125.88 59.532 123.642 81.579 134.436C103.626 145.23 127.95 143.007 138.375 120.138C148.8 97.269 133.08 88.722 130.38 62.2561C127.68 35.7901 103.821 -2.96395 50.157 21.5761Z" fill="white"/>
<path d="M37.05 113.544C37.95 113.244 39.546 111.777 39.546 111.774C39.546 111.771 38.262 111.027 38.175 110.991C37.164 110.565 34.959 110.337 34.158 111.27C34.0313 111.429 33.9392 111.612 33.8875 111.809C33.8359 112.005 33.8258 112.21 33.858 112.411C33.8902 112.611 33.9639 112.803 34.0745 112.973C34.1851 113.144 34.33 113.289 34.5 113.4C35.208 113.904 36.27 113.796 37.05 113.544Z" fill="#9C9C9C"/>
<path d="M53.673 99.4021C53.694 99.4021 53.013 98.0731 52.959 97.9921C52.359 97.0921 50.637 95.6731 49.455 96.0091C49.2601 96.0704 49.0803 96.172 48.9272 96.3072C48.7741 96.4425 48.6512 96.6084 48.5663 96.7943C48.4815 96.9801 48.4366 97.1817 48.4347 97.386C48.4327 97.5902 48.4737 97.7927 48.555 97.9801C48.876 98.7841 49.821 99.2821 50.613 99.5011C51.543 99.7591 53.67 99.4051 53.673 99.4021Z" fill="#9C9C9C"/>
<path d="M41.757 117.717C42.531 117.21 43.599 115.515 43.683 115.38C44.6513 115.993 45.6595 116.54 46.701 117.018C47.301 117.3 47.925 117.567 48.549 117.825C48.249 117.747 47.976 117.684 47.949 117.678C46.86 117.534 44.673 117.897 44.148 119.007C44.0657 119.195 44.0239 119.397 44.0254 119.602C44.0268 119.807 44.0715 120.009 44.1564 120.195C44.2414 120.382 44.3647 120.548 44.5184 120.683C44.672 120.819 44.8525 120.92 45.048 120.981C45.864 121.281 46.848 120.888 47.547 120.438C48.246 119.988 49.182 118.551 49.425 118.17L50.145 118.47C51.3 118.929 52.452 119.37 53.571 119.862C53.964 120.03 54.345 120.213 54.729 120.39C54.459 120.324 54.234 120.27 54.198 120.267C53.109 120.123 50.925 120.486 50.397 121.596C50.3147 121.783 50.273 121.986 50.2744 122.191C50.2759 122.395 50.3206 122.597 50.4056 122.783C50.4906 122.969 50.6139 123.135 50.7675 123.27C50.9211 123.405 51.1016 123.507 51.297 123.567C52.116 123.867 53.112 123.474 53.796 123.024C54.48 122.574 55.338 121.278 55.632 120.828C56.016 121.023 56.403 121.218 56.769 121.428C57.015 121.575 57.264 121.698 57.504 121.86L58.218 122.319C58.659 122.619 59.118 122.943 59.544 123.255C59.844 123.471 60.12 123.681 60.402 123.891C60.012 123.72 59.241 123.396 59.172 123.378C58.119 123.078 55.902 123.099 55.215 124.116C55.1049 124.288 55.0324 124.482 55.0022 124.684C54.972 124.886 54.9848 125.092 55.0397 125.289C55.0947 125.486 55.1905 125.669 55.321 125.826C55.4515 125.983 55.6137 126.111 55.797 126.201C56.559 126.612 57.597 126.384 58.35 126.042C59.169 125.667 60.45 124.218 60.594 124.035C61.059 124.386 61.509 124.731 61.926 125.064C63.144 126.027 64.158 126.894 64.926 127.572L65.526 127.026C64.722 126.348 63.648 125.466 62.355 124.488C61.884 124.131 61.374 123.756 60.855 123.378C61.1319 122.824 61.3763 122.254 61.587 121.671C62.508 121.764 64.242 121.287 64.467 121.224C64.662 121.773 64.845 122.31 65.01 122.817C65.484 124.266 65.847 125.517 66.114 126.51L66.786 125.91C66.507 124.983 66.147 123.852 65.7 122.577C65.505 122.019 65.286 121.428 65.052 120.822C65.259 120.705 66.927 119.733 67.452 119.001C67.929 118.335 68.352 117.354 68.094 116.523C68.0395 116.327 67.9445 116.144 67.8149 115.986C67.6853 115.829 67.5241 115.7 67.3418 115.609C67.1594 115.517 66.9599 115.465 66.7562 115.456C66.5524 115.447 66.349 115.48 66.159 115.554C65.028 116.037 64.578 118.206 64.677 119.298C64.677 119.364 64.827 120.057 64.923 120.498C64.827 120.249 64.737 120.009 64.623 119.757C64.425 119.253 64.212 118.758 63.987 118.224C63.867 117.969 63.75 117.714 63.627 117.456C63.504 117.198 63.36 116.937 63.225 116.673C62.904 116.073 62.547 115.473 62.172 114.873C62.613 114.699 64.164 114.057 64.74 113.469C65.316 112.881 65.88 111.969 65.748 111.12C65.7248 110.917 65.6592 110.722 65.5553 110.546C65.4515 110.37 65.3118 110.219 65.1454 110.101C64.9789 109.983 64.7895 109.901 64.5894 109.861C64.3893 109.821 64.183 109.824 63.984 109.869C62.784 110.169 62.019 112.251 61.953 113.346C61.953 113.412 61.989 114.204 62.019 114.639C61.791 114.285 61.566 113.931 61.326 113.58C60.63 112.569 59.892 111.567 59.163 110.565C58.938 110.265 58.719 109.95 58.5 109.641C58.656 109.581 60.516 108.858 61.161 108.201C61.734 107.601 62.301 106.701 62.172 105.849C62.1484 105.646 62.0824 105.451 61.9783 105.275C61.8741 105.099 61.7341 104.948 61.5675 104.83C61.4008 104.712 61.2112 104.63 61.0109 104.59C60.8106 104.55 60.6042 104.553 60.405 104.598C59.205 104.898 58.44 106.98 58.374 108.075C58.374 108.159 58.428 109.296 58.458 109.575C57.972 108.894 57.495 108.213 57.051 107.523C56.4457 106.595 55.9025 105.628 55.425 104.628C55.497 104.601 57.441 103.854 58.101 103.179C58.674 102.579 59.241 101.679 59.112 100.83C59.0888 100.627 59.0232 100.432 58.9193 100.256C58.8155 100.081 58.6758 99.9287 58.5094 99.8107C58.3429 99.6926 58.1535 99.611 57.9534 99.5711C57.7533 99.5312 57.547 99.5339 57.348 99.5791C56.148 99.8791 55.383 101.961 55.317 103.056C55.317 103.128 55.356 103.995 55.386 104.406L55.32 104.424C54.8636 103.406 54.5001 102.349 54.234 101.265C54.081 100.665 53.967 100.092 53.868 99.5311C54.243 99.4291 55.968 98.9461 56.622 98.4031C57.276 97.8601 57.918 97.0441 57.885 96.1771C57.8833 95.973 57.8388 95.7715 57.7543 95.5856C57.6698 95.3998 57.5473 95.2338 57.3946 95.0983C57.2419 94.9629 57.0624 94.861 56.8678 94.7993C56.6732 94.7376 56.4679 94.7174 56.265 94.7401C55.05 94.9111 54.051 96.8911 53.865 97.9741C53.865 98.0311 53.817 98.6401 53.796 99.0841C53.757 98.8291 53.709 98.5681 53.676 98.3221C53.547 97.4011 53.484 96.5521 53.433 95.7991C53.409 95.3701 53.397 94.9801 53.388 94.6171C53.703 94.3171 54.969 93.1171 55.299 92.3581C55.629 91.5991 55.824 90.5581 55.395 89.8021C55.3 89.6212 55.1679 89.4623 55.0074 89.3358C54.847 89.2093 54.6616 89.1181 54.4635 89.068C54.2654 89.0179 54.0589 89.0101 53.8576 89.0451C53.6563 89.0801 53.4646 89.1571 53.295 89.2711C52.293 89.9851 52.32 92.2021 52.653 93.2491C52.683 93.3391 53.292 94.7011 53.31 94.6861L53.328 94.6681C53.328 95.0161 53.328 95.3911 53.352 95.8021C53.385 96.5581 53.427 97.4131 53.538 98.3401C53.6462 99.3389 53.8125 100.331 54.036 101.31C54.2809 102.41 54.6243 103.485 55.062 104.523L55.08 104.559C54.846 104.286 54.165 103.545 54.105 103.494C53.277 102.774 51.252 101.871 50.205 102.507C50.0331 102.617 49.8864 102.762 49.7744 102.933C49.6624 103.104 49.5877 103.296 49.5552 103.498C49.5226 103.7 49.5329 103.906 49.5854 104.103C49.638 104.3 49.7315 104.484 49.86 104.643C50.382 105.336 51.423 105.567 52.245 105.57C53.169 105.57 54.993 104.745 55.14 104.67C55.6098 105.716 56.149 106.729 56.754 107.703C57.102 108.27 57.471 108.834 57.849 109.392C57.639 109.164 57.45 108.96 57.42 108.933C56.592 108.216 54.567 107.31 53.52 107.946C53.3481 108.056 53.2014 108.201 53.0894 108.372C52.9774 108.543 52.9027 108.735 52.8702 108.937C52.8376 109.139 52.8479 109.345 52.9004 109.542C52.953 109.739 53.0465 109.923 53.175 110.082C53.694 110.778 54.738 111.006 55.56 111.009C56.382 111.012 57.96 110.337 58.374 110.154C58.521 110.367 58.674 110.583 58.815 110.796C59.523 111.813 60.234 112.83 60.915 113.844C61.152 114.204 61.371 114.564 61.59 114.924C61.404 114.72 61.245 114.552 61.218 114.528C60.39 113.808 58.365 112.905 57.318 113.541C57.1463 113.652 56.9999 113.797 56.8882 113.968C56.7765 114.139 56.7021 114.331 56.6698 114.533C56.6375 114.734 56.6481 114.94 56.7009 115.138C56.7536 115.335 56.8474 115.519 56.976 115.677C57.495 116.37 58.539 116.601 59.358 116.604C60.177 116.607 61.608 116.004 62.1 115.782C62.316 116.157 62.532 116.532 62.721 116.907C62.847 117.165 62.985 117.405 63.093 117.672C63.201 117.939 63.324 118.194 63.435 118.449C63.636 118.953 63.843 119.469 64.035 119.964C64.164 120.306 64.281 120.636 64.398 120.966C64.17 120.606 63.702 119.913 63.657 119.859C63.0032 119.146 62.1767 118.612 61.257 118.311C61.1887 118.228 61.1123 118.151 61.029 118.083C60.8754 117.949 60.6954 117.848 60.5004 117.788C60.3055 117.728 60.1001 117.709 59.8975 117.734C59.695 117.758 59.4998 117.825 59.3247 117.929C59.1495 118.034 58.9984 118.174 58.881 118.341C58.203 119.367 59.025 121.425 59.712 122.283C59.751 122.334 60.252 122.832 60.573 123.141L59.895 122.7C59.454 122.4 58.995 122.1 58.521 121.773L57.798 121.329C57.558 121.176 57.288 121.044 57.03 120.9C56.43 120.576 55.803 120.276 55.167 120C55.437 119.613 56.367 118.224 56.532 117.414C56.697 116.604 56.658 115.542 56.079 114.897C55.9475 114.741 55.7846 114.614 55.6009 114.525C55.4172 114.436 55.2169 114.387 55.0129 114.381C54.8089 114.374 54.6058 114.411 54.4168 114.488C54.2279 114.565 54.0572 114.681 53.916 114.828C53.091 115.728 53.592 117.897 54.138 118.848C54.174 118.908 54.642 119.544 54.909 119.889C54.525 119.721 54.141 119.55 53.748 119.391C52.608 118.932 51.441 118.491 50.28 118.068C49.923 117.936 49.569 117.798 49.215 117.663C49.314 117.528 50.466 115.899 50.64 114.993C50.796 114.189 50.769 113.121 50.187 112.476C50.0555 112.32 49.8926 112.193 49.7089 112.104C49.5252 112.015 49.3249 111.966 49.1209 111.96C48.9169 111.953 48.7138 111.99 48.5248 112.067C48.3359 112.144 48.1652 112.26 48.024 112.407C47.199 113.307 47.7 115.476 48.249 116.427C48.288 116.499 48.966 117.414 49.149 117.627C48.369 117.327 47.595 117.027 46.842 116.694C45.8255 116.254 44.8393 115.747 43.89 115.176C43.935 115.113 45.147 113.418 45.324 112.491C45.477 111.687 45.45 110.619 44.871 109.974C44.7395 109.818 44.5766 109.691 44.3929 109.602C44.2092 109.513 44.0089 109.464 43.8049 109.458C43.6009 109.451 43.3978 109.488 43.2088 109.565C43.0199 109.642 42.8492 109.758 42.708 109.905C41.883 110.805 42.384 112.974 42.93 113.925C42.966 113.988 43.482 114.687 43.737 115.014L43.689 115.065C42.748 114.466 41.8624 113.785 41.043 113.028C40.584 112.617 40.17 112.2 39.777 111.783C40.035 111.483 41.199 110.142 41.454 109.323C41.709 108.504 41.784 107.475 41.28 106.773C41.1656 106.604 41.017 106.461 40.8437 106.353C40.6705 106.245 40.4764 106.174 40.2742 106.146C40.072 106.118 39.8661 106.132 39.6699 106.189C39.4736 106.245 39.2914 106.342 39.135 106.473C38.217 107.289 38.478 109.491 38.916 110.496C38.94 110.55 39.246 111.078 39.474 111.459C39.3 111.27 39.117 111.078 38.952 110.892C38.352 110.196 37.815 109.521 37.359 108.918C37.101 108.573 36.876 108.258 36.666 107.961C36.771 107.541 37.167 105.846 37.017 105.021C36.867 104.196 36.459 103.221 35.685 102.837C35.5063 102.739 35.309 102.679 35.1058 102.662C34.9026 102.646 34.6981 102.672 34.5057 102.739C34.3132 102.806 34.1371 102.913 33.9889 103.053C33.8406 103.193 33.7234 103.363 33.645 103.551C33.204 104.697 34.449 106.53 35.301 107.22C35.376 107.28 36.636 108.078 36.642 108.057C36.6426 108.048 36.6426 108.039 36.642 108.03C36.837 108.33 37.05 108.63 37.287 108.966C37.731 109.566 38.241 110.268 38.844 110.979C39.4862 111.753 40.1723 112.489 40.899 113.184C41.7106 113.96 42.589 114.663 43.524 115.284L43.56 115.305C43.215 115.206 42.237 114.963 42.159 114.954C41.07 114.81 38.886 115.173 38.358 116.283C38.2757 116.471 38.2339 116.673 38.2354 116.878C38.2368 117.083 38.2815 117.285 38.3664 117.471C38.4514 117.658 38.5747 117.824 38.7284 117.959C38.882 118.095 39.0625 118.196 39.258 118.257C40.077 118.551 41.073 118.17 41.757 117.717Z" fill="#9C9C9C"/>
<path d="M97.884 41.613C98.526 42.687 100.839 44.262 100.842 44.262C100.845 44.262 101.418 42.423 101.442 42.3C101.688 40.899 101.34 38.043 99.942 37.299C99.7044 37.1818 99.4449 37.1159 99.1801 37.1057C98.9154 37.0954 98.6516 37.141 98.4056 37.2395C98.1597 37.338 97.9373 37.4871 97.7528 37.6772C97.5684 37.8674 97.426 38.0942 97.335 38.343C96.9 39.387 97.338 40.701 97.884 41.613Z" fill="#9C9C9C"/>
<path d="M120.567 58.575C120.567 58.602 122.067 57.357 122.148 57.267C123.129 56.232 124.413 53.667 123.648 52.26C123.514 52.0311 123.334 51.8329 123.119 51.6783C122.904 51.5237 122.659 51.4162 122.399 51.3627C122.139 51.3092 121.872 51.311 121.613 51.3679C121.354 51.4248 121.11 51.5356 120.897 51.693C119.97 52.332 119.613 53.67 119.562 54.732C119.505 55.98 120.567 58.572 120.567 58.575Z" fill="#9C9C9C"/>
<path d="M93.957 48.7741C94.824 49.6051 97.278 50.4691 97.473 50.5351C96.978 51.9378 96.5771 53.372 96.273 54.828C96.09 55.674 95.931 56.5351 95.784 57.3991C95.784 56.9941 95.784 56.6311 95.784 56.5801C95.652 55.1641 94.563 52.5001 93.006 52.1551C92.7458 52.1044 92.4778 52.1091 92.2196 52.169C91.9613 52.2288 91.7185 52.3424 91.5071 52.5023C91.2957 52.6622 91.1203 52.8649 90.9924 53.0971C90.8646 53.3293 90.7871 53.5859 90.765 53.8501C90.633 54.9691 91.407 56.1211 92.175 56.8501C92.943 57.5791 95.031 58.3771 95.583 58.5751C95.529 58.9051 95.472 59.238 95.421 59.568C95.172 61.161 94.932 62.7511 94.647 64.3051C94.548 64.8511 94.428 65.3881 94.311 65.9251C94.311 65.5651 94.311 65.262 94.311 65.217C94.179 63.798 93.09 61.1371 91.533 60.7891C91.2728 60.7389 91.0049 60.744 90.7468 60.8043C90.4887 60.8645 90.2462 60.9784 90.0351 61.1386C89.8239 61.2988 89.6489 61.5017 89.5214 61.734C89.3939 61.9663 89.3167 62.2229 89.295 62.487C89.163 63.603 89.934 64.755 90.702 65.487C91.47 66.219 93.357 66.9331 94.002 67.1731C93.867 67.7191 93.732 68.265 93.576 68.787C93.459 69.141 93.375 69.4891 93.24 69.8401L92.862 70.875C92.601 71.523 92.334 72.195 92.061 72.825C91.875 73.26 91.689 73.674 91.503 74.091C91.608 73.548 91.803 72.4801 91.803 72.3901C91.887 70.9681 91.203 68.1721 89.727 67.5901C89.4773 67.5006 89.2116 67.4647 88.9471 67.4849C88.6826 67.505 88.4254 67.5807 88.1921 67.7069C87.9589 67.8332 87.7549 68.0072 87.5934 68.2176C87.4319 68.428 87.3166 68.6701 87.255 68.928C86.955 70.011 87.555 71.268 88.191 72.111C88.905 73.041 91.104 74.229 91.38 74.376C91.08 75.063 90.762 75.7321 90.462 76.3561C89.592 78.1771 88.788 79.7071 88.152 80.8801L89.019 81.4981C89.649 80.2981 90.453 78.6751 91.317 76.7551C91.635 76.0561 91.962 75.303 92.289 74.526C93.0695 74.7189 93.8609 74.8641 94.659 74.961C94.809 76.161 95.91 78.213 96.054 78.477C95.415 78.882 94.791 79.2691 94.194 79.6231C92.499 80.6431 91.008 81.465 89.841 82.086L90.786 82.761C91.881 82.143 93.207 81.3631 94.686 80.4301C95.337 80.0221 96.024 79.572 96.723 79.104C96.93 79.332 98.64 81.162 99.723 81.618C100.704 82.029 102.066 82.2841 103.041 81.7171C103.275 81.5925 103.48 81.42 103.643 81.2108C103.805 81.0016 103.922 80.7605 103.985 80.5031C104.048 80.2457 104.056 79.9779 104.009 79.7172C103.962 79.4565 103.86 79.2087 103.71 78.99C102.774 77.697 99.9 77.754 98.544 78.195C98.466 78.222 97.629 78.6 97.107 78.849C97.392 78.657 97.671 78.471 97.962 78.27C98.541 77.874 99.108 77.463 99.717 77.025L100.587 76.35C100.887 76.128 101.166 75.8611 101.46 75.6151C102.129 75.0331 102.78 74.415 103.419 73.767C103.767 74.271 105.027 76.05 105.936 76.608C106.845 77.166 108.153 77.622 109.2 77.208C109.45 77.1202 109.679 76.9807 109.871 76.7986C110.064 76.6164 110.216 76.3958 110.318 76.1509C110.419 75.9061 110.468 75.6426 110.461 75.3777C110.454 75.1127 110.391 74.8522 110.277 74.6131C109.548 73.1941 106.695 72.813 105.291 73.044C105.204 73.059 104.214 73.344 103.674 73.5C104.055 73.113 104.439 72.726 104.811 72.318C105.891 71.148 106.947 69.918 108.003 68.718C108.327 68.346 108.657 67.9801 108.981 67.6141C109.104 67.7941 110.553 69.9391 111.573 70.5661C112.473 71.1211 113.79 71.5801 114.84 71.1661C115.09 71.0779 115.318 70.9382 115.511 70.7559C115.703 70.5736 115.855 70.3529 115.956 70.1081C116.057 69.8633 116.106 69.6 116.099 69.3351C116.091 69.0703 116.028 68.81 115.914 68.5711C115.185 67.1521 112.332 66.771 110.928 67.002C110.823 67.017 109.398 67.422 109.041 67.542C109.761 66.732 110.484 65.931 111.231 65.169C112.232 64.1371 113.3 63.1711 114.426 62.277C114.483 62.361 115.986 64.6081 117.03 65.2501C117.93 65.8051 119.247 66.261 120.297 65.8501C120.547 65.7619 120.775 65.6222 120.968 65.4399C121.16 65.2576 121.312 65.0369 121.413 64.7921C121.514 64.5473 121.563 64.284 121.556 64.0191C121.548 63.7543 121.485 63.494 121.371 63.2551C120.642 61.8361 117.789 61.4551 116.385 61.6891C116.292 61.6891 115.209 62.0101 114.696 62.1661L114.654 62.085C115.813 61.2162 117.047 60.4522 118.341 59.802C119.049 59.436 119.745 59.1271 120.441 58.8391C120.678 59.2861 121.785 61.3171 122.661 61.9981C123.537 62.6791 124.761 63.2491 125.841 62.9551C126.099 62.8949 126.341 62.7812 126.552 62.6213C126.763 62.4613 126.938 62.2587 127.066 62.0267C127.194 61.7947 127.271 61.5384 127.293 61.2745C127.315 61.0106 127.281 60.745 127.194 60.495C126.624 58.995 123.834 58.311 122.412 58.395C122.334 58.395 121.551 58.53 120.984 58.629C121.284 58.506 121.614 58.3711 121.914 58.2571C123.042 57.8281 124.098 57.5041 125.04 57.2251C125.574 57.0691 126.063 56.9251 126.519 56.8231C126.981 57.1411 128.856 58.398 129.93 58.593C131.004 58.788 132.363 58.74 133.191 57.978C133.392 57.8058 133.555 57.593 133.669 57.3536C133.782 57.1143 133.844 56.8537 133.85 56.5888C133.857 56.3239 133.807 56.0606 133.705 55.8162C133.603 55.5718 133.45 55.3516 133.257 55.17C132.057 54.111 129.27 54.783 128.043 55.503C127.935 55.566 126.39 56.7331 126.414 56.751L126.441 56.769C126 56.871 125.526 56.9881 125.01 57.1231C124.065 57.3841 122.994 57.6871 121.854 58.0921C120.62 58.5219 119.412 59.0228 118.236 59.5921C116.916 60.2197 115.654 60.9626 114.465 61.812L114.426 61.845C114.702 61.47 115.446 60.3961 115.494 60.3061C116.166 59.0491 116.727 56.2291 115.62 55.0801C115.43 54.8951 115.204 54.7521 114.955 54.6602C114.707 54.5683 114.442 54.5296 114.177 54.5465C113.913 54.5635 113.655 54.6358 113.42 54.7587C113.186 54.8816 112.98 55.0524 112.815 55.26C112.089 56.121 112.098 57.507 112.332 58.545C112.596 59.715 114.165 61.788 114.291 61.953C113.103 62.849 111.977 63.8232 110.919 64.869C110.298 65.469 109.695 66.105 109.095 66.744C109.326 66.411 109.527 66.1111 109.551 66.0661C110.223 64.8121 110.784 61.989 109.677 60.843C109.488 60.6573 109.262 60.5136 109.014 60.4212C108.765 60.3287 108.5 60.2898 108.236 60.3067C107.971 60.3237 107.713 60.3963 107.479 60.5197C107.244 60.6432 107.039 60.8147 106.875 61.0231C106.146 61.8811 106.155 63.2671 106.389 64.3051C106.623 65.3431 107.931 67.1551 108.282 67.6231L107.598 68.3641C106.512 69.5641 105.435 70.749 104.34 71.886C103.956 72.288 103.56 72.669 103.167 73.053C103.371 72.753 103.542 72.507 103.563 72.453C104.235 71.199 104.796 68.3761 103.689 67.2301C103.5 67.0445 103.273 66.9009 103.025 66.8085C102.777 66.7161 102.512 66.6769 102.247 66.6936C101.983 66.7103 101.724 66.7825 101.49 66.9054C101.255 67.0283 101.048 67.1992 100.884 67.4071C100.158 68.2681 100.167 69.654 100.401 70.692C100.635 71.73 101.814 73.365 102.231 73.926C101.817 74.304 101.403 74.685 100.983 75.036C100.683 75.267 100.428 75.51 100.122 75.729L99.237 76.383C98.661 76.782 98.067 77.193 97.494 77.568C97.095 77.829 96.714 78.072 96.327 78.318C96.717 77.922 97.461 77.133 97.527 77.061C98.2405 76.0306 98.6784 74.8346 98.799 73.587C98.8837 73.4761 98.9581 73.3576 99.021 73.233C99.1468 72.9997 99.222 72.7425 99.2419 72.4782C99.2618 72.2139 99.2259 71.9484 99.1365 71.6988C99.0471 71.4493 98.9062 71.2214 98.723 71.0298C98.5398 70.8383 98.3183 70.6874 98.073 70.587C96.573 70.026 94.212 71.6581 93.327 72.7741C93.273 72.8401 92.787 73.617 92.487 74.112C92.619 73.794 92.751 73.488 92.883 73.158C93.147 72.51 93.393 71.856 93.657 71.151C93.774 70.806 93.894 70.4581 94.011 70.1071C94.128 69.7561 94.224 69.3811 94.335 69.0151C94.572 68.1571 94.77 67.2811 94.95 66.3901C95.517 66.6211 97.548 67.4101 98.616 67.3741C99.684 67.3381 101.016 66.996 101.673 66.075C101.833 65.8636 101.946 65.621 102.006 65.3628C102.066 65.1047 102.07 64.8368 102.02 64.5767C101.969 64.3167 101.864 64.0702 101.712 63.8533C101.56 63.6364 101.363 63.4541 101.136 63.318C99.747 62.535 97.158 63.7921 96.114 64.7581C96.048 64.8211 95.376 65.5981 95.016 66.0331C95.118 65.4991 95.226 64.965 95.316 64.419C95.568 62.844 95.775 61.2451 95.991 59.6491C96.054 59.1601 96.126 58.6741 96.195 58.1881C96.396 58.2721 98.79 59.262 99.987 59.22C101.049 59.184 102.387 58.8421 103.041 57.9211C103.201 57.7098 103.314 57.4673 103.374 57.2093C103.434 56.9513 103.439 56.6835 103.389 56.4234C103.339 56.1634 103.234 55.9168 103.082 55.6999C102.93 55.4829 102.734 55.3003 102.507 55.1641C101.115 54.3841 98.526 55.6381 97.482 56.6071C97.404 56.6791 96.438 57.8071 96.207 58.1071C96.36 57.0361 96.507 55.9681 96.723 54.9211C96.9921 53.5064 97.3518 52.1105 97.8 50.7421C97.893 50.7811 100.386 51.828 101.613 51.786C102.675 51.747 104.013 51.408 104.667 50.487C104.827 50.2756 104.941 50.0328 105.001 49.7746C105.06 49.5163 105.065 49.2483 105.015 48.988C104.965 48.7277 104.86 48.481 104.708 48.2637C104.556 48.0465 104.36 47.8636 104.133 47.727C102.741 46.9471 100.155 48.201 99.108 49.17C99.039 49.233 98.304 50.088 97.962 50.502L97.884 50.4571C98.3652 49.0939 98.9676 47.7767 99.684 46.5211C100.074 45.8251 100.482 45.18 100.884 44.562C101.328 44.805 103.371 45.8881 104.484 45.9751C105.546 46.0531 106.917 45.8611 107.664 45.0181C107.846 44.8255 107.985 44.5967 108.073 44.3467C108.161 44.0967 108.195 43.8311 108.173 43.567C108.151 43.303 108.074 43.0465 107.946 42.8143C107.819 42.582 107.644 42.3792 107.433 42.219C106.137 41.289 103.428 42.2521 102.282 43.1011C102.222 43.1461 101.64 43.6831 101.223 44.0821C101.412 43.8061 101.604 43.5181 101.793 43.2571C102.495 42.2791 103.2 41.4241 103.827 40.6711C104.19 40.2481 104.526 39.8701 104.841 39.5221C105.402 39.5221 107.661 39.5461 108.663 39.1171C109.665 38.6881 110.763 37.8961 111.045 36.8041C111.118 36.5488 111.136 36.2811 111.099 36.0184C111.061 35.7556 110.968 35.5038 110.827 35.2792C110.685 35.0547 110.498 34.8626 110.277 34.7154C110.056 34.5682 109.807 34.4693 109.545 34.4251C107.967 34.1971 106.005 36.3031 105.378 37.5811C105.324 37.6921 104.679 39.519 104.706 39.519H104.742C104.442 39.849 104.097 40.2061 103.743 40.6051C103.098 41.3431 102.372 42.186 101.643 43.152C100.848 44.1876 100.114 45.2684 99.444 46.3891C98.6898 47.6407 98.0483 48.9569 97.527 50.3221L97.509 50.3731C97.536 49.9051 97.56 48.6001 97.551 48.4981C97.419 47.0791 96.33 44.4181 94.773 44.0731C94.513 44.0229 94.2453 44.028 93.9874 44.088C93.7295 44.1481 93.4872 44.2617 93.2761 44.4216C93.065 44.5815 92.8899 44.784 92.7622 45.016C92.6346 45.2479 92.5571 45.5042 92.535 45.7681C92.418 46.8871 93.189 48.0391 93.957 48.7741Z" fill="#9C9C9C"/>
<path d="M112.101 101.583V100.578C112.101 95.403 118.653 95.178 118.653 91.494C118.653 89.895 117.351 88.851 115.413 88.851C113.292 88.851 111.951 90.006 111.951 91.644V92.055C111.951 92.463 111.729 92.655 111.318 92.655L107.337 92.505C106.965 92.505 106.704 92.319 106.704 92.061V91.65C106.704 87.15 110.277 84.057 115.527 84.057C120.663 84.057 123.975 86.961 123.975 91.314C123.975 97.494 117.312 97.533 117.312 100.914V101.583C117.322 101.669 117.313 101.755 117.284 101.837C117.256 101.918 117.21 101.992 117.149 102.053C117.088 102.114 117.014 102.16 116.933 102.188C116.851 102.217 116.765 102.226 116.679 102.216H112.734C112.648 102.226 112.562 102.217 112.48 102.188C112.399 102.16 112.325 102.114 112.264 102.053C112.203 101.992 112.157 101.918 112.129 101.837C112.1 101.755 112.091 101.669 112.101 101.583V101.583ZM111.765 107.583C111.765 105.945 113.217 104.604 114.966 104.604C116.643 104.604 118.131 105.945 118.131 107.583C118.131 109.221 116.631 110.562 114.93 110.562C113.229 110.562 111.765 109.215 111.765 107.577V107.583Z" fill="#263238"/>
<path d="M33.441 58.953V58.08C33.441 53.58 39.141 53.391 39.141 50.19C39.141 48.798 38.01 47.895 36.33 47.895C34.485 47.895 33.33 48.897 33.33 50.319V50.676C33.33 51.03 33.138 51.192 32.781 51.192L29.322 51.063C28.998 51.063 28.773 50.901 28.773 50.676V50.319C28.773 46.419 31.875 43.719 36.435 43.719C40.896 43.719 43.776 46.242 43.776 50.019C43.776 55.386 37.986 55.419 37.986 58.362V58.944C37.9947 59.0182 37.9864 59.0934 37.9619 59.1639C37.9373 59.2345 37.8972 59.2985 37.8444 59.3513C37.7915 59.4042 37.7275 59.4443 37.6569 59.4689C37.5864 59.4934 37.5112 59.5016 37.437 59.493H33.99C33.9167 59.5014 33.8424 59.4933 33.7725 59.4693C33.7027 59.4452 33.6392 59.4059 33.5865 59.3541C33.5339 59.3023 33.4935 59.2394 33.4683 59.17C33.4432 59.1006 33.4338 59.0265 33.441 58.953V58.953ZM33.141 64.158C33.141 62.736 34.401 61.572 35.919 61.572C37.374 61.572 38.67 62.736 38.67 64.158C38.67 65.58 37.374 66.744 35.889 66.744C35.1836 66.7618 34.4997 66.4999 33.9866 66.0154C33.4735 65.531 33.1728 64.8633 33.15 64.158H33.141Z" fill="#1818D4"/>
<path d="M105.849 24.528V24.087C105.849 21.816 108.723 21.717 108.723 20.1C108.723 19.398 108.15 18.939 107.301 18.939C106.371 18.939 105.783 19.446 105.783 20.166V20.346C105.783 20.526 105.684 20.607 105.504 20.607L103.758 20.541C103.593 20.541 103.479 20.46 103.479 20.346V20.166C103.479 18.189 105.048 16.833 107.352 16.833C109.605 16.833 111.06 18.108 111.06 20.019C111.06 22.719 108.135 22.746 108.135 24.219V24.519C108.139 24.5566 108.135 24.5947 108.123 24.6304C108.11 24.6661 108.09 24.6984 108.063 24.7251C108.036 24.7517 108.003 24.7718 107.967 24.7839C107.932 24.796 107.894 24.7998 107.856 24.795H106.125C106.088 24.7997 106.051 24.796 106.016 24.7844C105.981 24.7728 105.949 24.7534 105.923 24.7278C105.896 24.7022 105.876 24.6709 105.863 24.6363C105.85 24.6017 105.846 24.5647 105.849 24.528V24.528ZM105.702 27.159C105.683 26.8785 105.748 26.5987 105.89 26.3559C106.032 26.1132 106.244 25.9188 106.498 25.798C106.752 25.6771 107.036 25.6355 107.314 25.6785C107.592 25.7214 107.85 25.847 108.056 26.0389C108.261 26.2307 108.404 26.48 108.466 26.7543C108.528 27.0285 108.506 27.3151 108.403 27.5767C108.3 27.8383 108.121 28.0628 107.888 28.221C107.656 28.3793 107.381 28.4639 107.1 28.464C106.922 28.4704 106.745 28.4417 106.579 28.3796C106.412 28.3174 106.26 28.223 106.13 28.1017C106 27.9805 105.896 27.8348 105.822 27.673C105.749 27.5113 105.708 27.3366 105.702 27.159Z" fill="#1818D4"/>
<path d="M21.6 85.2V84.645C21.6 81.783 25.224 81.66 25.224 79.62C25.224 78.735 24.504 78.159 23.424 78.159C22.251 78.159 21.51 78.798 21.51 79.704V79.929C21.51 80.157 21.387 80.259 21.159 80.259L18.957 80.178C18.75 80.178 18.606 80.073 18.606 79.929V79.704C18.606 77.214 20.583 75.504 23.487 75.504C26.328 75.504 28.158 77.109 28.158 79.518C28.158 82.935 24.474 82.956 24.474 84.831V85.2C24.4798 85.2475 24.4748 85.2957 24.4592 85.341C24.4436 85.3862 24.4179 85.4273 24.3841 85.4611C24.3502 85.495 24.3092 85.5206 24.2639 85.5362C24.2187 85.5518 24.1705 85.5569 24.123 85.551H21.945C21.898 85.5559 21.8505 85.5501 21.806 85.5341C21.7615 85.518 21.7212 85.4922 21.6881 85.4585C21.655 85.4248 21.6298 85.3841 21.6146 85.3393C21.5993 85.2946 21.5944 85.247 21.6 85.2V85.2ZM21.414 88.515C21.3905 88.1616 21.474 87.8093 21.6535 87.5039C21.8331 87.1986 22.1004 86.9544 22.4207 86.8031C22.7409 86.6518 23.0993 86.6004 23.4492 86.6556C23.7991 86.7109 24.1243 86.8702 24.3823 87.1128C24.6404 87.3554 24.8195 87.6701 24.8962 88.0159C24.973 88.3617 24.9438 88.7226 24.8126 89.0516C24.6813 89.3806 24.4541 89.6625 24.1604 89.8606C23.8667 90.0586 23.5202 90.1637 23.166 90.162C22.7145 90.1766 22.2757 90.0113 21.9461 89.7025C21.6164 89.3936 21.4229 88.9665 21.408 88.515H21.414Z" stroke="#263238" stroke-miterlimit="10"/>
<path d="M49.2 33.414V33.033C49.2 31.065 51.693 30.978 51.693 29.577C51.693 28.977 51.198 28.572 50.46 28.572C49.653 28.572 49.143 29.01 49.143 29.634V29.79C49.143 29.946 49.059 30.015 48.903 30.015L47.403 29.958C47.262 29.958 47.163 29.889 47.163 29.79V29.634C47.163 27.921 48.522 26.745 50.517 26.745C52.512 26.745 53.7 27.849 53.7 29.505C53.7 31.857 51.165 31.872 51.165 33.159V33.414C51.1689 33.4464 51.1653 33.4793 51.1546 33.5102C51.1439 33.5411 51.1264 33.5691 51.1033 33.5922C51.0802 33.6153 51.0521 33.6329 51.0212 33.6436C50.9904 33.6543 50.9575 33.6579 50.925 33.654H49.425C49.3938 33.6555 49.3626 33.6502 49.3336 33.6384C49.3046 33.6267 49.2785 33.6088 49.2571 33.586C49.2357 33.5632 49.2195 33.5359 49.2096 33.5063C49.1998 33.4766 49.1965 33.4451 49.2 33.414V33.414ZM49.074 35.694C49.0608 35.4543 49.1198 35.2161 49.2434 35.0103C49.367 34.8045 49.5494 34.6404 49.7672 34.5394C49.985 34.4384 50.2281 34.405 50.465 34.4436C50.702 34.4822 50.9219 34.5909 51.0964 34.7558C51.2709 34.9207 51.3919 35.1341 51.4438 35.3685C51.4957 35.6029 51.4761 35.8475 51.3876 36.0707C51.299 36.2938 51.1455 36.4852 50.947 36.6203C50.7485 36.7553 50.5141 36.8276 50.274 36.828C49.9642 36.8385 49.6628 36.7256 49.4361 36.5141C49.2094 36.3026 49.076 36.0098 49.065 35.7L49.074 35.694Z" fill="#263238"/>
<path d="M93.6 115.659V115.278C93.6 113.31 96.093 113.226 96.093 111.822C96.093 111.222 95.598 110.817 94.86 110.817C94.053 110.817 93.543 111.255 93.543 111.879V112.035C93.543 112.191 93.459 112.263 93.303 112.263L91.803 112.206C91.662 112.206 91.563 112.134 91.563 112.035V111.879C91.563 110.166 92.922 108.99 94.917 108.99C96.912 108.99 98.133 110.094 98.133 111.753C98.133 114.102 95.598 114.117 95.598 115.404V115.659C95.6018 115.692 95.5982 115.725 95.5875 115.756C95.5768 115.787 95.5593 115.815 95.5363 115.838C95.5132 115.861 95.4853 115.879 95.4544 115.89C95.4235 115.901 95.3906 115.905 95.358 115.902H93.858C93.824 115.908 93.789 115.907 93.7558 115.897C93.7227 115.887 93.6922 115.87 93.6671 115.846C93.6419 115.823 93.6227 115.793 93.611 115.761C93.5994 115.728 93.5956 115.693 93.6 115.659V115.659ZM93.474 117.939C93.4608 117.699 93.5198 117.461 93.6434 117.255C93.7669 117.049 93.9494 116.885 94.1672 116.784C94.385 116.683 94.6281 116.65 94.865 116.689C95.102 116.727 95.3219 116.836 95.4964 117.001C95.6709 117.166 95.7919 117.379 95.8438 117.614C95.8957 117.848 95.8761 118.093 95.7875 118.316C95.699 118.539 95.5455 118.73 95.347 118.865C95.1485 119 94.9141 119.073 94.674 119.073C94.3652 119.08 94.066 118.965 93.8418 118.753C93.6175 118.54 93.4864 118.248 93.477 117.939H93.474Z" stroke="#263238" stroke-miterlimit="10"/>
<path d="M81.855 122.487C81.834 122.424 81.813 122.361 81.789 122.298C81.765 122.235 81.747 122.169 81.723 122.106C81.699 122.043 81.681 121.98 81.657 121.917C81.633 121.854 81.615 121.788 81.591 121.725C81.567 121.662 81.549 121.599 81.525 121.536C81.501 121.473 81.483 121.407 81.459 121.344L81.393 121.155C81.372 121.089 81.348 121.026 81.327 120.963L81.261 120.774C81.24 120.708 81.216 120.645 81.195 120.582L81.129 120.393C81.108 120.327 81.084 120.264 81.063 120.201L81 120C80.979 119.934 80.955 119.871 80.934 119.808L80.865 119.619C80.844 119.553 80.823 119.49 80.799 119.427C80.775 119.364 80.757 119.301 80.733 119.238C80.709 119.175 80.691 119.109 80.667 119.046C80.643 118.983 80.625 118.92 80.601 118.857C79.623 115.881 76.599 113.697 73.272 113.697C70.047 113.697 67.242 115.575 66.072 118.221C66.042 118.281 66.015 118.344 65.988 118.404L65.907 118.59C65.877 118.65 65.85 118.71 65.823 118.773C65.796 118.836 65.766 118.896 65.739 118.956L65.658 119.139C65.628 119.202 65.601 119.262 65.574 119.325C65.547 119.388 65.517 119.445 65.49 119.508C65.463 119.571 65.433 119.628 65.406 119.691L65.325 119.874C65.295 119.934 65.268 119.997 65.241 120.057C65.214 120.117 65.184 120.18 65.157 120.24L65.076 120.426C65.046 120.486 65.019 120.546 64.992 120.609C64.965 120.672 64.935 120.732 64.908 120.792L64.827 120.975C64.797 121.038 64.77 121.098 64.743 121.161C64.716 121.224 64.686 121.281 64.659 121.344L64.578 121.527C64.548 121.587 64.521 121.65 64.494 121.71C64.467 121.77 64.437 121.833 64.41 121.896C63.8953 122.992 63.6309 124.189 63.636 125.4C63.636 130.23 67.806 134.178 72.963 134.178C78.009 134.178 82.398 130.23 82.398 125.4C82.397 124.479 82.2356 123.565 81.921 122.7C81.9 122.613 81.879 122.55 81.855 122.487Z" fill="#263238"/>
<path d="M74.718 56.04C59.247 56.04 48.714 65.145 48.714 78.423V79.623C48.7168 79.8213 48.7707 80.0155 48.8706 80.1869C48.9704 80.3582 49.1128 80.5009 49.284 80.601C49.3487 80.6633 49.419 80.7196 49.494 80.769C49.559 80.8322 49.6304 80.8885 49.707 80.937C49.772 81.0002 49.8434 81.0565 49.92 81.105C49.9844 81.1689 50.0559 81.2253 50.133 81.273C50.197 81.3362 50.2673 81.3925 50.343 81.441C50.4079 81.5052 50.4793 81.5625 50.556 81.612C50.6218 81.6744 50.6931 81.7306 50.769 81.78C50.8342 81.843 50.9055 81.8993 50.982 81.948C51.0461 82.011 51.1165 82.0673 51.192 82.116C51.2625 82.184 51.3399 82.2443 51.423 82.296C51.4842 82.3517 51.5493 82.4029 51.618 82.449C51.6838 82.5113 51.7551 82.5676 51.831 82.617C51.8957 82.6793 51.966 82.7356 52.041 82.785C52.1068 82.8474 52.1781 82.9036 52.254 82.953C52.3192 83.016 52.3905 83.0723 52.467 83.121C52.5311 83.184 52.6015 83.2403 52.677 83.289C52.7422 83.352 52.8135 83.4083 52.89 83.457C52.9541 83.52 53.0245 83.5763 53.1 83.625C53.1658 83.6873 53.2371 83.7436 53.313 83.793C53.3771 83.856 53.4475 83.9123 53.523 83.961C53.8696 84.266 54.3219 84.4233 54.783 84.399L64.431 84.759C65.424 84.759 65.964 84.309 65.964 83.316V82.326C65.964 78.357 69.21 75.564 74.364 75.564C79.053 75.564 82.209 78.087 82.209 81.966C82.2091 82.408 82.1669 82.849 82.083 83.283C77.241 89.631 64.638 92.43 64.638 104.751V107.715C64.638 108.915 65.295 109.578 66.504 109.578H78.12C79.32 109.578 79.986 108.921 79.986 107.715V105.738C79.986 95.754 99.627 95.643 99.627 77.43C99.627 64.596 89.859 56.04 74.718 56.04Z" fill="#263238"/>
<path d="M64.623 107.721V104.757C64.623 89.505 83.934 88.857 83.934 77.985C83.934 73.266 80.094 70.185 74.388 70.185C68.133 70.185 64.188 73.587 64.188 78.414V79.614C64.188 80.814 63.528 81.372 62.322 81.372L50.58 80.931C49.485 80.931 48.717 80.382 48.717 79.614V78.414C48.717 65.136 59.25 56.031 74.721 56.031C89.862 56.031 99.621 64.587 99.621 77.427C99.621 95.64 79.98 95.751 79.98 105.735V107.712C79.98 108.912 79.32 109.575 78.114 109.575H66.489C65.28 109.584 64.623 108.927 64.623 107.721ZM63.636 125.4C63.636 120.573 67.914 116.622 73.071 116.622C78.009 116.622 82.398 120.573 82.398 125.4C82.398 130.227 78 134.163 72.963 134.163C67.8 134.163 63.636 130.215 63.636 125.4Z" fill="#1818D4" stroke="#1818D4" stroke-miterlimit="10"/>
<path d="M72.483 144C81.5311 144 88.866 142.36 88.866 140.337C88.866 138.314 81.5311 136.674 72.483 136.674C63.4349 136.674 56.1 138.314 56.1 140.337C56.1 142.36 63.4349 144 72.483 144Z" fill="#263238"/>
<path d="M59.961 57.255L59.334 58.623C59.334 58.623 55.692 59.016 55.692 59.289C55.692 59.562 55.731 61.443 55.929 61.521C56.0795 61.5796 56.2465 61.5796 56.397 61.521L61.761 60.15L62.271 57.723L59.961 57.255Z" fill="white" stroke="#263238" stroke-linecap="round" stroke-linejoin="round"/>
<path d="M58.941 59.7001C58.2749 60.2458 57.5564 60.7241 56.796 61.1281C55.929 61.5181 55.896 62.1091 56.172 62.1091C56.448 62.1091 58.896 61.0831 58.896 61.0831C58.896 61.0831 61.119 60.5011 61.44 60.3241C61.761 60.1471 61.797 59.1631 61.797 59.1631" fill="white"/>
<path d="M58.941 59.7001C58.2749 60.2458 57.5564 60.7241 56.796 61.1281C55.929 61.5181 55.896 62.1091 56.172 62.1091C56.448 62.1091 58.896 61.0831 58.896 61.0831C58.896 61.0831 61.119 60.5011 61.44 60.3241C61.761 60.1471 61.797 59.1631 61.797 59.1631" stroke="#263238" stroke-linecap="round" stroke-linejoin="round"/>
<path d="M63.165 30.969L60.927 48.123L59.37 57.411L62.826 58.227L65.403 47.241L66.624 40.326L63.165 30.969Z" fill="#7D7D7D" stroke="#263238" stroke-linecap="round" stroke-linejoin="round"/>
<path d="M81.225 18.549L79.86 18.333L77.064 17.274L76.962 20.595L81.297 20.994L81.225 18.549Z" fill="white" stroke="#263238" stroke-linecap="round" stroke-linejoin="round"/>
<path d="M65.268 79.3801C64.2507 80.5663 63.3002 81.8082 62.421 83.1001C61.266 84.8641 61.674 86.7601 63.099 87.2371C64.524 87.7141 66.351 86.4211 66.828 85.4041C67.305 84.3871 67.167 83.8471 67.911 82.8301C68.655 81.8131 69.267 80.7961 68.997 79.4401C68.727 78.0841 66 78.4321 65.268 79.3801Z" fill="#7D7D7D" stroke="#263238" stroke-linecap="round" stroke-linejoin="round"/>
<path d="M66.69 85.659C66.594 85.455 66.483 85.239 66.351 85.008C65.262 83.091 63.351 83.244 62.151 83.601C61.362 85.212 61.812 86.814 63.105 87.246C64.398 87.678 66.066 86.622 66.69 85.659Z" fill="white" stroke="#263238" stroke-linecap="round" stroke-linejoin="round"/>
<path d="M66.351 85.008C65.946 85.608 65.403 87.246 63.3 86.568C62.7136 86.4174 62.189 86.0869 61.8 85.623C61.8455 85.9888 61.9923 86.3347 62.224 86.6215C62.4556 86.9083 62.7629 87.1246 63.111 87.246C64.533 87.72 66.363 86.43 66.84 85.413C67.317 84.396 67.179 83.856 67.923 82.839C68.667 81.822 69.279 80.805 69.009 79.449C69.009 81.075 68.409 81.345 67.653 82.227C66.897 83.109 66.759 84.396 66.351 85.008Z" fill="white" stroke="#263238" stroke-linecap="round" stroke-linejoin="round"/>
<path d="M85.275 79.3801C86.2923 80.5663 87.2428 81.8082 88.122 83.1001C89.277 84.8641 88.869 86.7601 87.444 87.2371C86.019 87.7141 84.192 86.4211 83.715 85.4041C83.238 84.3871 83.376 83.8471 82.632 82.8301C81.888 81.8131 81.276 80.7961 81.546 79.4401C81.816 78.0841 84.531 78.4321 85.275 79.3801Z" fill="#7D7D7D" stroke="#263238" stroke-linecap="round" stroke-linejoin="round"/>
<path d="M83.856 85.659C83.949 85.455 84.06 85.239 84.192 85.008C85.281 83.091 87.192 83.244 88.392 83.601C89.181 85.212 88.731 86.814 87.438 87.246C86.145 87.678 84.477 86.622 83.856 85.659Z" fill="white" stroke="#263238" stroke-linecap="round" stroke-linejoin="round"/>
<path d="M84.192 85.008C84.597 85.608 85.14 87.246 87.243 86.568C87.8294 86.4174 88.354 86.0869 88.743 85.623C88.6975 85.9888 88.5507 86.3347 88.319 86.6215C88.0874 86.9083 87.7801 87.1246 87.432 87.246C86.01 87.72 84.18 86.43 83.703 85.413C83.226 84.396 83.364 83.856 82.62 82.839C81.876 81.822 81.264 80.805 81.534 79.449C81.534 81.075 82.134 81.345 82.89 82.227C83.646 83.109 83.784 84.396 84.192 85.008Z" fill="white" stroke="#263238" stroke-linecap="round" stroke-linejoin="round"/>
<path d="M88.455 55.989C88.455 54.768 86.355 53.412 86.355 53.412C83.19 50.193 77.478 50.619 75.369 50.907C73.269 50.607 67.551 50.193 64.386 53.412C64.386 53.412 62.286 54.768 62.286 55.989C62.286 57.21 64.932 79.245 64.932 79.245C64.932 79.245 64.863 80.397 66.762 80.532C68.661 80.667 69.462 79.584 69.462 79.584L70.209 60.939C70.209 60.939 73.26 58.767 73.809 58.701C74.007 58.674 74.265 58.632 74.553 58.596V58.632C75.0902 58.52 75.6448 58.52 76.182 58.632V58.596C76.482 58.632 76.725 58.674 76.926 58.701C77.469 58.767 80.526 60.939 80.526 60.939L81.273 79.584C81.273 79.584 82.086 80.667 83.973 80.532C85.86 80.397 85.803 79.245 85.803 79.245C85.803 79.245 88.455 57.21 88.455 55.989Z" fill="#263238" stroke="#263238" stroke-linecap="round" stroke-linejoin="round"/>
<path d="M80.523 60.9391C80.523 60.9391 80.115 56.4631 82.083 54.7681" stroke="#707070" stroke-linecap="round" stroke-linejoin="round"/>
<path d="M70.218 60.9391C70.218 60.9391 70.422 57.2101 70.014 55.8541C69.606 54.4981 68.928 53.9551 68.928 53.9551" stroke="#707070" stroke-linecap="round" stroke-linejoin="round"/>
<path d="M72.726 52.056C72.726 52.056 74.895 54.564 75.303 56.667" stroke="#707070" stroke-linecap="round" stroke-linejoin="round"/>
<path d="M77.472 52.2C77.472 52.2 76.251 53.556 76.116 54.573" stroke="#707070" stroke-linecap="round" stroke-linejoin="round"/>
<path d="M74.421 25.818C74.421 25.818 72.456 25.545 71.778 26.223C71.1 26.901 68.793 29.4 68.793 29.4L70.014 50.961C70.014 50.961 72.795 52.047 75.168 52.047C77.541 52.047 80.253 51.165 80.868 50.691C81.483 50.217 80.937 27.096 80.937 27.096C80.937 27.096 75.9 25.614 74.421 25.818Z" fill="#1818D4" stroke="#263238" stroke-linecap="round" stroke-linejoin="round"/>
<path d="M78.015 26.292C79.0472 26.1353 80.0883 26.0441 81.132 26.019C82.488 26.019 83.832 26.088 83.832 26.088L87.222 22.833L80.4 21.273L80.943 18.156C80.943 18.156 85.959 17.817 88.467 18.291C90.975 18.765 94.908 19.986 95.112 19.986C95.316 19.986 95.586 20.733 95.382 21.273C95.178 21.813 88.8 28.869 86.895 30.699C85.6489 31.9202 84.472 33.2103 83.37 34.563L82.5 49.683C82.5 49.683 84.738 50.904 85.146 51.309C85.554 51.714 86.028 53.343 86.028 53.343C86.028 53.343 81.891 51.648 80.805 51.513C79.719 51.378 79.044 51.309 78.84 50.913C78.636 50.517 76.941 32.403 76.941 32.403L77.01 26.64C77.01 26.64 76.998 26.292 78.015 26.292Z" fill="#7D7D7D" stroke="#263238" stroke-linecap="round" stroke-linejoin="round"/>
<path d="M82.083 35.5801L78.42 36.0541L78.759 37.4101L80.592 37.8841L82.353 37.0711L82.083 35.5801Z" stroke="#263238" stroke-linecap="round" stroke-linejoin="round"/>
<path d="M84.183 27.4441L83.37 34.5631L85.473 28.5301" stroke="#263238" stroke-linecap="round" stroke-linejoin="round"/>
<path d="M87.234 22.833C87.234 22.833 88.929 23.172 91.506 22.155" stroke="#263238" stroke-linecap="round" stroke-linejoin="round"/>
<path d="M88.998 23.307C90.1115 23.338 91.2251 23.2474 92.319 23.037" stroke="#263238" stroke-linecap="round" stroke-linejoin="round"/>
<path d="M72.117 25.749L72.456 30.699C72.765 31.1055 73.1652 31.4337 73.6243 31.6572C74.0833 31.8808 74.5885 31.9934 75.099 31.986C76.794 31.92 76.998 30.699 76.998 30.699V26.631L72.117 25.749Z" fill="white" stroke="#263238" stroke-linecap="round" stroke-linejoin="round"/>
<path d="M77.064 28.326L76.929 32.4L78.354 30.162C78.354 30.162 79.914 32.127 80.319 32.061C80.724 31.995 80.049 31.179 79.914 30.435C79.779 29.691 78.624 27.042 78.489 26.298C78.354 25.554 77.064 25.416 76.989 25.755C76.9514 26.0478 76.9514 26.3442 76.989 26.637L77.064 28.326Z" fill="#7D7D7D" stroke="#263238" stroke-linecap="round" stroke-linejoin="round"/>
<path d="M72.387 31.9861C72.387 31.9861 72.657 50.9701 71.979 51.1861C71.301 51.4021 68.589 51.4591 66.879 52.2721C65.169 53.0851 64.371 53.4241 64.371 53.4241C64.371 53.4241 65.184 51.4591 66.135 50.5771C66.7671 50.009 67.4736 49.5296 68.235 49.1521L66.474 40.0681C66.474 40.0681 63.219 31.4551 63.15 30.9811C63.081 30.5071 69.321 26.9821 70.608 26.3701C71.895 25.7581 72.237 26.3041 72.237 26.3041L72.387 31.9861Z" fill="#7D7D7D" stroke="#263238" stroke-linecap="round" stroke-linejoin="round"/>
<path d="M70.692 25.41C70.692 25.41 69.066 30.564 68.928 31.242C68.79 31.92 68.928 31.92 69.405 31.443C69.882 30.966 71.1 29.817 71.1 29.817L72.387 31.986L72.318 27.987V25.68C72.318 25.68 72.252 24.732 70.692 25.41Z" fill="#7D7D7D" stroke="#263238" stroke-linecap="round" stroke-linejoin="round"/>
<path d="M67.506 36.531H71.505L71.439 38.157L69.675 38.766L67.437 38.157L67.506 36.531Z" stroke="#263238" stroke-linecap="round" stroke-linejoin="round"/>
<path d="M78.489 18.6991C78.489 18.6991 79.437 22.8331 79.641 23.4991C79.845 24.1651 78.558 26.8231 78.141 27.4321C77.9823 27.6962 77.764 27.9195 77.5035 28.0841C77.2431 28.2487 76.9477 28.3501 76.641 28.3801C76.167 28.3801 73.59 27.5011 72.978 27.0931C72.366 26.6851 71.76 26.2111 71.76 26.2111C71.4716 26.3426 71.1511 26.3871 70.8377 26.3391C70.5244 26.2911 70.2319 26.1528 69.996 25.9411C69.183 25.1941 68.097 24.3121 68.367 23.7031C68.4985 23.4042 68.7187 23.153 68.9977 22.9834C69.2768 22.8139 69.6012 22.7342 69.927 22.7551C70.674 22.7551 70.404 22.6861 70.404 22.6861C70.404 22.6861 69.048 20.7211 69.048 19.1611C69.048 17.6011 71.961 16.4611 73.656 16.4611C74.828 16.5099 75.9793 16.786 77.046 17.2741L78.489 18.6991Z" fill="white" stroke="#263238" stroke-linecap="round" stroke-linejoin="round"/>
<path d="M76.116 20.256L77.337 22.563L76.116 23.376L75.573 22.698" stroke="#263238" stroke-linecap="round" stroke-linejoin="round"/>
<path d="M78.354 22.359C78.354 22.359 78.42 22.902 77.607 23.784" stroke="#263238" stroke-linecap="round" stroke-linejoin="round"/>
<path d="M74.829 21.1051C74.829 21.4231 74.691 21.6811 74.529 21.6811C74.367 21.6811 74.229 21.4231 74.229 21.1051C74.229 20.7871 74.367 20.5291 74.529 20.5291C74.691 20.5291 74.829 20.7871 74.829 21.1051Z" fill="#263238"/>
<path d="M76.962 20.5951C77.131 20.5951 77.268 20.3372 77.268 20.0191C77.268 19.701 77.131 19.4431 76.962 19.4431C76.793 19.4431 76.656 19.701 76.656 20.0191C76.656 20.3372 76.793 20.5951 76.962 20.5951Z" fill="#263238"/>
<path d="M71.166 15.171C71.166 15.171 66.9 16.731 66.759 18.699C66.618 20.667 70.557 23.376 70.761 23.715C70.965 24.054 71.574 23.307 71.574 23.307C71.4384 23.1249 71.3438 22.9155 71.2967 22.6934C71.2496 22.4712 71.251 22.2415 71.301 22.02C71.505 21.342 72.387 20.52 72.387 20.19C72.387 19.86 71.37 20.46 71.37 19.443C71.37 18.426 73.878 17.817 75.369 17.883C76.86 17.949 78.15 20.46 79.236 19.239C80.322 18.018 78.759 17.682 78.759 17.682C78.759 17.682 80.859 17.409 80.859 16.326C80.859 15.243 79.773 14.493 79.299 14.493C78.825 14.493 77.538 15.309 77.538 14.427C77.538 13.545 78.825 13.137 77.604 11.727C76.383 10.317 74.826 11.727 74.826 12.27C74.826 12.813 74.418 13.827 74.148 13.827C73.878 13.827 73.062 12.609 72.114 13.287C71.829 13.5137 71.5966 13.7995 71.4329 14.1248C71.2692 14.4501 71.1781 14.8071 71.166 15.171V15.171Z" fill="#263238" stroke="#263238" stroke-linecap="round" stroke-linejoin="round"/>
<path d="M72.93 20.394L75.099 19.578" stroke="#263238" stroke-linecap="round" stroke-linejoin="round"/>
<path d="M75.438 18.63C75.3965 18.4171 75.4305 18.1965 75.534 18.006" stroke="#263238" stroke-linecap="round" stroke-linejoin="round"/>
<path d="M75.534 18C75.687 17.7 76.032 17.313 76.794 16.998" stroke="white" stroke-linecap="round" stroke-linejoin="round"/>
</svg>
