<svg width="150" height="150" viewBox="0 0 150 150" fill="none" xmlns="http://www.w3.org/2000/svg">
<path d="M28.914 121.65V123.906H45.804V121.65H28.914Z" fill="#E0E0E0"/>
<path d="M31.218 121.74C31.275 121.74 31.323 122.214 31.323 122.799C31.323 123.384 31.275 123.855 31.218 123.855C31.161 123.855 31.11 123.381 31.11 122.799C31.11 122.217 31.158 121.74 31.218 121.74Z" fill="#EBEBEB"/>
<path d="M30.849 121.695C30.909 121.695 30.954 122.169 30.954 122.751C30.954 123.333 30.909 123.81 30.849 123.81C30.789 123.81 30.744 123.336 30.744 122.751C30.744 122.166 30.789 121.695 30.849 121.695Z" fill="#EBEBEB"/>
<path d="M44.499 121.74C44.559 121.74 44.607 122.214 44.607 122.799C44.607 123.384 44.559 123.855 44.499 123.855C44.439 123.855 44.394 123.381 44.394 122.799C44.394 122.217 44.442 121.74 44.499 121.74Z" fill="#EBEBEB"/>
<path d="M44.133 121.695C44.19 121.695 44.238 122.169 44.238 122.751C44.238 123.333 44.19 123.81 44.133 123.81C44.076 123.81 44.025 123.336 44.025 122.751C44.025 122.166 44.073 121.695 44.133 121.695Z" fill="#EBEBEB"/>
<path d="M41.925 122.844C41.925 122.904 39.99 122.949 37.605 122.949C35.22 122.949 33.285 122.904 33.285 122.844C33.285 122.784 35.22 122.739 37.605 122.739C39.99 122.739 41.925 122.784 41.925 122.844Z" fill="#EBEBEB"/>
<path d="M28.842 131.808V136.32H45.732V131.808H28.842Z" fill="#E0E0E0"/>
<path d="M45.948 135.051C45.948 135.051 45.921 135.072 45.858 135.102C45.795 135.132 45.702 135.177 45.576 135.231C45.2089 135.387 44.824 135.496 44.43 135.558C43.7987 135.672 43.1474 135.58 42.573 135.294C42.2177 135.105 41.9147 134.831 41.691 134.496C41.4342 134.115 41.3274 133.652 41.391 133.197C41.4279 132.95 41.5316 132.717 41.691 132.525C41.7764 132.42 41.885 132.336 42.0084 132.279C42.1318 132.223 42.2665 132.196 42.402 132.201C42.5415 132.212 42.6771 132.252 42.8004 132.318C42.9238 132.384 43.0322 132.475 43.119 132.585C43.3037 132.803 43.4178 133.072 43.446 133.356C43.469 133.649 43.429 133.943 43.3286 134.219C43.2282 134.494 43.0698 134.746 42.864 134.955C42.4366 135.407 41.8602 135.689 41.241 135.75C40.6034 135.811 39.9602 135.731 39.357 135.516C38.7124 135.314 38.1402 134.93 37.71 134.409C37.4881 134.129 37.3545 133.79 37.326 133.434C37.3081 133.249 37.331 133.062 37.3932 132.887C37.4554 132.712 37.5554 132.552 37.686 132.42C37.829 132.283 38.0162 132.201 38.214 132.189C38.4096 132.184 38.6021 132.238 38.766 132.345C39.0826 132.552 39.3055 132.875 39.387 133.245C39.4576 133.606 39.4334 133.979 39.3167 134.327C39.1999 134.676 38.9947 134.988 38.721 135.234C38.1848 135.687 37.5189 135.958 36.819 136.008C36.1556 136.084 35.4836 136.018 34.848 135.813C34.2241 135.617 33.6917 135.202 33.348 134.646C33.1771 134.382 33.0711 134.081 33.0388 133.768C33.0065 133.455 33.0487 133.139 33.162 132.846C33.2181 132.699 33.3105 132.568 33.4307 132.467C33.5508 132.365 33.6947 132.295 33.849 132.264C33.9974 132.237 34.1497 132.242 34.2964 132.277C34.443 132.312 34.5808 132.377 34.701 132.468C34.9116 132.653 35.0623 132.896 35.1339 133.167C35.2055 133.438 35.1947 133.724 35.103 133.989C34.9388 134.462 34.6433 134.878 34.251 135.189C33.6013 135.739 32.7859 136.056 31.935 136.089C31.4171 136.107 30.9011 136.017 30.4205 135.823C29.9398 135.629 29.5053 135.336 29.145 134.964C29.0729 134.89 29.0048 134.812 28.941 134.73C28.9185 134.703 28.8984 134.674 28.881 134.643C29.2376 135.037 29.6637 135.361 30.138 135.6C30.6968 135.874 31.3162 136.002 31.938 135.972C32.7589 135.925 33.5414 135.609 34.164 135.072C34.5294 134.776 34.804 134.383 34.956 133.938C35.0355 133.706 35.0445 133.456 34.9821 133.219C34.9196 132.982 34.7884 132.769 34.605 132.606C34.5042 132.531 34.3892 132.477 34.2669 132.448C34.1446 132.42 34.0177 132.416 33.894 132.438C33.7686 132.464 33.6519 132.522 33.5552 132.606C33.4586 132.69 33.3851 132.797 33.342 132.918C33.2434 133.183 33.2085 133.467 33.2403 133.748C33.2721 134.029 33.3697 134.299 33.525 134.535C33.8471 135.049 34.3433 135.43 34.923 135.609C35.5311 135.802 36.1733 135.863 36.807 135.789C37.462 135.74 38.0852 135.487 38.589 135.066C38.8361 134.843 39.0213 134.561 39.1265 134.245C39.2316 133.93 39.2532 133.592 39.189 133.266C39.1214 132.949 38.9331 132.67 38.664 132.489C38.5426 132.399 38.3936 132.355 38.2428 132.363C38.0921 132.372 37.9492 132.434 37.839 132.537C37.7299 132.647 37.6465 132.78 37.5946 132.926C37.5428 133.073 37.5238 133.229 37.539 133.383C37.5643 133.698 37.6822 133.999 37.878 134.247C38.2823 134.735 38.8187 135.097 39.423 135.288C39.999 135.495 40.6133 135.574 41.223 135.519C41.7937 135.464 42.3258 135.206 42.723 134.793C42.9124 134.603 43.0588 134.375 43.1525 134.124C43.2462 133.873 43.2849 133.605 43.266 133.338C43.2559 133.095 43.1637 132.863 43.0046 132.679C42.8455 132.496 42.6289 132.372 42.39 132.327C42.2788 132.323 42.1683 132.345 42.0669 132.391C41.9655 132.437 41.8759 132.505 41.805 132.591C41.6587 132.762 41.5622 132.969 41.526 133.191C41.4646 133.611 41.562 134.039 41.799 134.391C42.007 134.711 42.2903 134.976 42.624 135.162C43.1783 135.446 43.809 135.546 44.424 135.447C44.8132 135.394 45.1955 135.298 45.564 135.162C45.816 135.099 45.945 135.042 45.948 135.051Z" fill="#EBEBEB"/>
<path d="M30.351 123.969V131.799H45.732V123.969H30.351Z" fill="#EBEBEB"/>
<path d="M32.907 124.239C32.964 124.239 33.012 125.934 33.012 128.028C33.012 130.122 32.964 131.817 32.907 131.817C32.85 131.817 32.799 130.122 32.799 128.028C32.799 125.934 32.847 124.239 32.907 124.239Z" fill="#E0E0E0"/>
<path d="M34.074 124.14C34.131 124.14 34.179 125.817 34.179 127.881C34.179 129.945 34.131 131.622 34.074 131.622C34.017 131.622 33.966 129.948 33.966 127.881C33.966 125.814 34.014 124.14 34.074 124.14Z" fill="#E0E0E0"/>
<path d="M43.995 123.9C44.052 123.9 44.1 125.664 44.1 127.842C44.1 130.02 44.052 131.781 43.995 131.781C43.938 131.781 43.887 130.017 43.887 127.842C43.887 125.667 43.935 123.9 43.995 123.9Z" fill="#E0E0E0"/>
<path d="M42.624 123.996C42.681 123.996 42.729 125.712 42.729 127.833C42.729 129.954 42.681 131.67 42.624 131.67C42.567 131.67 42.516 129.954 42.516 127.833C42.516 125.712 42.564 123.996 42.624 123.996Z" fill="#E0E0E0"/>
<path d="M125.421 106.878C127.017 106.053 128.892 105.948 130.665 106.239C131.616 106.398 132.606 106.68 133.254 107.397C133.902 108.114 134.022 109.368 133.281 109.98C132.837 110.346 132.222 110.403 131.646 110.394C130.26 110.379 128.724 110.136 127.617 110.97C126.984 111.444 126.564 112.236 125.817 112.47C125.07 112.704 124.245 112.263 123.855 111.597C123.494 110.902 123.415 110.096 123.633 109.344C123.721 108.823 123.929 108.33 124.239 107.902C124.549 107.474 124.953 107.124 125.421 106.878V106.878Z" fill="#EBEBEB"/>
<path d="M121.767 99.825C122.742 101.217 124.638 100.755 125.517 99.906C126.396 99.057 126.768 97.824 127.104 96.648C127.878 93.966 128.655 91.149 128.082 88.416C127.945 87.587 127.58 86.8123 127.029 86.178C126.75 85.8653 126.395 85.631 125.997 85.4983C125.6 85.3657 125.175 85.3394 124.764 85.422C123.81 85.677 123.216 86.622 122.787 87.501C121.523 90.1302 120.86 93.0078 120.846 95.925C120.846 97.281 121.002 98.703 121.767 99.825Z" fill="#EBEBEB"/>
<path d="M119.1 101.823C120.159 100.566 120.36 98.733 119.889 97.161C119.418 95.589 118.353 94.2451 117.126 93.1531C115.682 91.8678 114.002 90.8763 112.179 90.234C111.474 89.9501 110.716 89.8212 109.956 89.856C109.576 89.878 109.208 89.9926 108.882 90.1897C108.557 90.3869 108.285 90.6606 108.09 90.9871C107.568 91.9801 108.069 93.1831 108.609 94.1671C109.561 95.897 110.646 97.55 111.855 99.111C112.83 100.368 113.955 101.607 115.428 102.174C116.901 102.741 118.455 102.672 119.241 101.643" fill="#EBEBEB"/>
<path d="M121.701 120.831C121.753 120.624 121.783 120.412 121.791 120.198C121.836 119.739 121.89 119.16 121.959 118.473C122.045 117.622 122.174 116.776 122.346 115.938C122.572 114.915 122.88 113.912 123.267 112.938C123.647 111.971 124.161 111.062 124.794 110.238C125.31 109.566 125.969 109.018 126.723 108.633C127.236 108.381 127.784 108.21 128.349 108.126C128.562 108.119 128.773 108.089 128.979 108.036C128.766 108.013 128.55 108.013 128.337 108.036C127.75 108.081 127.176 108.23 126.642 108.477C125.849 108.852 125.152 109.406 124.608 110.094C123.946 110.931 123.412 111.861 123.024 112.854C122.636 113.839 122.335 114.856 122.124 115.893C121.961 116.741 121.847 117.597 121.785 118.458C121.731 119.19 121.71 119.784 121.701 120.195C121.679 120.406 121.679 120.62 121.701 120.831V120.831Z" fill="#E0E0E0"/>
<path d="M121.821 119.502C121.839 119.403 121.845 119.302 121.839 119.202C121.839 118.983 121.839 118.704 121.839 118.362C121.839 117.636 121.839 116.58 121.875 115.278C121.941 112.674 122.175 109.878 122.598 105.918C123.009 102.204 123.558 97.878 124.14 95.067C124.263 94.428 124.389 93.852 124.509 93.348C124.629 92.844 124.716 92.409 124.809 92.058C124.902 91.707 124.953 91.458 125.004 91.242C125.031 91.1439 125.049 91.0434 125.058 90.942C125.012 91.0292 124.978 91.122 124.956 91.218C124.89 91.428 124.809 91.695 124.71 92.022C124.611 92.349 124.491 92.802 124.365 93.306C124.239 93.81 124.095 94.383 123.96 95.022C123.239 98.3466 122.698 101.707 122.337 105.09C121.905 109.05 121.71 112.656 121.692 115.266C121.677 116.571 121.692 117.627 121.737 118.356C121.758 118.698 121.776 118.977 121.788 119.196C121.786 119.299 121.797 119.402 121.821 119.502V119.502Z" fill="#E0E0E0"/>
<path d="M121.839 112.548C121.862 112.256 121.862 111.964 121.839 111.672C121.806 111.108 121.728 110.292 121.569 109.296C121.378 108.128 121.12 106.972 120.798 105.834C120.42 104.433 119.935 103.063 119.349 101.736C118.345 99.2895 116.905 97.0459 115.098 95.115C114.783 94.7852 114.448 94.4746 114.096 94.185C113.943 94.056 113.796 93.927 113.67 93.825L113.283 93.558C113.05 93.3798 112.802 93.2212 112.542 93.084C112.5 93.141 113.589 93.78 114.963 95.244C116.711 97.1919 118.113 99.424 119.109 101.844C119.682 103.162 120.166 104.517 120.558 105.9C120.939 107.172 121.191 108.342 121.383 109.326C121.575 110.31 121.668 111.126 121.731 111.681C121.744 111.972 121.78 112.262 121.839 112.548Z" fill="#E0E0E0"/>
<path d="M114.651 123.759L115.35 133.305H127.611L128.31 123.759H114.651Z" fill="#EBEBEB"/>
<path d="M129.771 119.997H113.466V123.759H129.771V119.997Z" fill="#EBEBEB"/>
<path d="M113.466 132.939V133.983H114.234H129.504V132.939H113.466Z" fill="#E0E0E0"/>
<path d="M114.984 135.702L114.234 133.869H128.919L128.043 135.702H114.984Z" fill="#E0E0E0"/>
<path d="M128.082 126.879C128.067 126.91 128.048 126.94 128.025 126.966C127.974 127.032 127.914 127.11 127.842 127.209L127.125 128.124L127.095 128.166L127.065 128.121C126.615 127.5 126.015 126.672 125.31 125.694H125.4L123.672 128.142L123.618 128.217L123.558 128.145L121.518 125.7H121.635L121.524 125.841L119.7 128.145L119.637 128.223L119.583 128.142C118.959 127.263 118.383 126.438 117.852 125.697H117.954L115.824 128.124L115.788 128.166L115.758 128.118L115.092 126.999C115.02 126.876 114.966 126.777 114.921 126.699C114.899 126.666 114.881 126.631 114.867 126.594C114.895 126.622 114.919 126.653 114.939 126.687L115.128 126.987L115.827 128.088H115.761L117.861 125.631L117.912 125.571L117.96 125.637L119.706 128.073H119.586L121.416 125.772L121.527 125.628L121.587 125.556L121.647 125.628L123.69 128.07H123.576L125.322 125.634L125.373 125.562L125.421 125.634L127.14 128.088H127.077C127.392 127.71 127.638 127.413 127.821 127.188L128.019 126.957C128.055 126.9 128.079 126.876 128.082 126.879Z" fill="#F5F5F5"/>
<path d="M128.481 123.696C128.481 123.738 125.406 123.771 121.617 123.771C117.828 123.771 114.753 123.738 114.753 123.696C114.753 123.654 117.825 123.621 121.617 123.621C125.409 123.621 128.481 123.654 128.481 123.696Z" fill="#F5F5F5"/>
<path d="M58.563 24.252C58.563 24.252 58.536 24.252 58.491 24.231L58.293 24.153L57.537 23.838L54.762 22.638L45.642 18.666L45.324 18.525H45.39L36.453 22.362L33.753 23.496L33.015 23.796C32.9309 23.8346 32.8436 23.8658 32.754 23.889C32.8336 23.8416 32.9169 23.8004 33.003 23.766L33.729 23.436L36.429 22.251L45.345 18.384H45.378H45.411L45.729 18.522L54.831 22.542L57.582 23.775L58.326 24.12L58.518 24.213C58.5345 24.2242 58.5496 24.2373 58.563 24.252V24.252Z" fill="#E0E0E0"/>
<path d="M72.789 22.9441H14.202V66.8131H72.789V22.9441Z" fill="#E0E0E0"/>
<path d="M70.962 24.984H16.251V65.01H70.962V24.984Z" fill="#EBEBEB"/>
<path d="M28.335 42.4709C28.335 42.4709 28.392 49.1879 28.734 51.2399L37.161 50.8409C37.161 50.8409 36.423 44.2409 36.708 42.4709H28.335Z" fill="#E0E0E0"/>
<path d="M32.487 43.4191H32.61C32.7273 43.4147 32.8448 43.4207 32.961 43.4371C33.1457 43.4645 33.3255 43.518 33.495 43.5961C33.7195 43.7072 33.9178 43.8647 34.077 44.0581C34.2727 44.2932 34.4113 44.5704 34.482 44.8681C34.5479 45.2165 34.5178 45.5764 34.395 45.9091C34.3322 46.09 34.2529 46.2647 34.158 46.4311C34.0573 46.6004 33.9672 46.7757 33.888 46.9561C33.72 47.3386 33.6049 47.7424 33.546 48.1561V48.1831H33.519H32.688H31.815H31.782V48.1531C31.7446 47.7414 31.6054 47.3455 31.377 47.0011C31.275 46.8271 31.164 46.6681 31.077 46.5031C30.9681 46.3478 30.868 46.1865 30.777 46.0201C30.6231 45.7014 30.5768 45.3413 30.645 44.9941C30.694 44.6942 30.8054 44.4081 30.972 44.1541C31.1143 43.9499 31.301 43.7807 31.518 43.6591C31.786 43.5169 32.0798 43.4302 32.382 43.4041H32.502C32.502 43.4041 32.502 43.4041 32.472 43.4041H32.382C32.2675 43.4176 32.1542 43.4396 32.043 43.4701C31.8656 43.5164 31.6951 43.586 31.536 43.6771C31.3237 43.797 31.142 43.9644 31.005 44.1661C30.8501 44.4178 30.748 44.6985 30.705 44.9911C30.6396 45.3276 30.6859 45.6763 30.837 45.9841C30.9289 46.148 31.029 46.3072 31.137 46.4611C31.242 46.6201 31.353 46.7851 31.455 46.9591C31.6918 47.3114 31.8353 47.7181 31.872 48.1411L31.839 48.1081H32.712H33.546L33.513 48.1381C33.573 47.7191 33.6901 47.3103 33.861 46.9231C33.9434 46.7412 34.0355 46.5639 34.137 46.3921C34.2302 46.2294 34.3085 46.0587 34.371 45.8821C34.4925 45.5596 34.5246 45.2103 34.464 44.8711C34.3956 44.5806 34.2634 44.309 34.077 44.0761C33.9222 43.885 33.7291 43.7287 33.51 43.6171C33.344 43.5368 33.1671 43.4812 32.985 43.4521C32.8708 43.4346 32.7555 43.4245 32.64 43.4221H32.547C32.499 43.4221 32.487 43.4221 32.487 43.4191Z" fill="#EBEBEB"/>
<path d="M32.919 48.102C32.9184 48.0931 32.9184 48.084 32.919 48.075V47.9971C32.919 47.9281 32.892 47.8261 32.874 47.6971C32.835 47.4331 32.778 47.055 32.742 46.584C32.742 46.467 32.724 46.344 32.721 46.215C32.7135 46.0802 32.7135 45.9449 32.721 45.81C32.7242 45.6653 32.7558 45.5226 32.814 45.39C32.8788 45.2468 32.9942 45.1325 33.138 45.069C33.2146 45.0369 33.299 45.028 33.3806 45.0434C33.4622 45.0589 33.5375 45.0981 33.597 45.156C33.6287 45.1854 33.6537 45.2212 33.6702 45.2611C33.6868 45.3009 33.6946 45.3439 33.693 45.387C33.6913 45.4739 33.6619 45.558 33.609 45.627C33.5548 45.6972 33.4849 45.7537 33.405 45.792C33.3257 45.8293 33.2421 45.8565 33.156 45.873C32.8046 45.9449 32.4435 45.9571 32.088 45.909C32.0001 45.8971 31.9142 45.8728 31.833 45.837C31.7538 45.8014 31.6824 45.7504 31.623 45.687C31.5621 45.6236 31.5196 45.5448 31.5 45.459C31.4811 45.3751 31.4917 45.2871 31.53 45.21C31.5648 45.1324 31.6282 45.0711 31.707 45.039C31.7444 45.023 31.7848 45.0146 31.8255 45.0146C31.8663 45.0146 31.9066 45.023 31.944 45.039C32.0164 45.0719 32.0786 45.1237 32.124 45.189C32.1663 45.2531 32.1967 45.3242 32.214 45.399C32.2394 45.5417 32.2535 45.6862 32.256 45.831L32.298 46.602C32.319 47.073 32.34 47.4541 32.352 47.7211C32.352 47.8501 32.352 47.9521 32.352 48.0211V48.126C32.3527 48.1171 32.3527 48.108 32.352 48.0991C32.352 48.0811 32.352 48.0541 32.352 48.0211C32.352 47.9881 32.352 47.8471 32.334 47.7211C32.334 47.4541 32.295 47.073 32.268 46.602C32.268 46.368 32.241 46.11 32.226 45.831C32.2241 45.688 32.209 45.5454 32.181 45.405C32.1663 45.3332 32.1378 45.2649 32.097 45.204C32.0525 45.1429 31.9938 45.0935 31.926 45.06C31.8914 45.0453 31.8541 45.0377 31.8165 45.0377C31.7789 45.0377 31.7416 45.0453 31.707 45.06C31.634 45.0905 31.5751 45.1472 31.542 45.219C31.5075 45.2919 31.498 45.3742 31.515 45.453C31.5352 45.5329 31.5755 45.6062 31.632 45.666C31.7538 45.7861 31.9121 45.8622 32.082 45.882C32.258 45.9051 32.4357 45.9132 32.613 45.906C32.7904 45.9014 32.9671 45.8813 33.141 45.846C33.2252 45.83 33.307 45.8027 33.384 45.765C33.46 45.7285 33.5267 45.6752 33.579 45.609C33.6286 45.5442 33.6568 45.4656 33.66 45.384C33.6598 45.3444 33.6518 45.3051 33.6364 45.2685C33.6209 45.232 33.5984 45.1988 33.57 45.171C33.5136 45.1172 33.4429 45.0807 33.3663 45.0658C33.2897 45.0509 33.2105 45.0583 33.138 45.087C33.0048 45.1472 32.8981 45.2538 32.838 45.387C32.781 45.5179 32.7494 45.6584 32.745 45.801C32.745 45.939 32.745 46.071 32.745 46.2C32.745 46.329 32.745 46.452 32.766 46.572C32.802 47.043 32.856 47.421 32.889 47.682C32.907 47.814 32.922 47.9131 32.931 47.9821V48.06C32.9287 48.0745 32.9246 48.0886 32.919 48.102V48.102Z" fill="#EBEBEB"/>
<path d="M31.8 48.1471C31.8137 48.2395 31.8217 48.3327 31.824 48.4261C31.824 48.6261 31.836 48.8691 31.86 49.1551V49.1371L32.43 49.8001H32.4L33.057 49.7641H33.03L33.354 49.3681L33.519 49.1671V49.1941C33.519 48.8071 33.501 48.4441 33.495 48.1141L33.531 48.1471H32.304H31.8C31.8388 48.1415 31.8782 48.1415 31.917 48.1471L32.262 48.1291L33.51 48.0811H33.546V48.1171C33.546 48.4501 33.567 48.8131 33.579 49.1971V49.2001C33.525 49.2661 33.471 49.3351 33.414 49.4011L33.087 49.8001H33.069L32.412 49.8331H32.4L31.842 49.1701C31.842 48.8701 31.842 48.6301 31.842 48.4201C31.8226 48.33 31.8086 48.2388 31.8 48.1471Z" fill="#EBEBEB"/>
<path d="M33.504 49.0951C33.504 49.0951 33.48 49.0951 33.441 49.0681C33.3852 49.0431 33.3281 49.0211 33.27 49.0021C33.0774 48.9348 32.8739 48.9043 32.67 48.9121C32.4639 48.9166 32.2605 48.9593 32.07 49.0381L31.905 49.1161L31.845 49.1461C31.8605 49.1299 31.8788 49.1167 31.899 49.1071C31.9522 49.0748 32.0073 49.0457 32.064 49.0201C32.2532 48.9361 32.4571 48.8902 32.664 48.8851C32.8686 48.8775 33.0727 48.9112 33.264 48.9841C33.3218 49.0047 33.378 49.0298 33.432 49.0591L33.504 49.0951Z" fill="#EBEBEB"/>
<path d="M33.501 48.834L33.441 48.807L33.27 48.738C33.0769 48.6726 32.8738 48.6421 32.67 48.648C32.4643 48.6554 32.2613 48.698 32.07 48.774C31.998 48.804 31.944 48.831 31.905 48.852L31.845 48.882L31.899 48.843C31.9517 48.8107 32.0069 48.7826 32.064 48.759C32.2529 48.6739 32.4569 48.627 32.664 48.621C32.8684 48.6164 33.0719 48.65 33.264 48.72C33.336 48.75 33.393 48.777 33.432 48.798C33.471 48.819 33.504 48.831 33.501 48.834Z" fill="#EBEBEB"/>
<path d="M33.486 48.5821L33.426 48.5581C33.384 48.5401 33.327 48.5131 33.255 48.4891C33.0619 48.4237 32.8587 48.3933 32.655 48.3991C32.4489 48.4031 32.2453 48.4459 32.055 48.5251C31.983 48.5551 31.929 48.5821 31.89 48.6031L31.83 48.6331L31.884 48.5941C31.9368 48.5611 31.992 48.532 32.049 48.5071C32.2387 48.4246 32.4423 48.3788 32.649 48.3721C32.8534 48.3678 33.0568 48.4013 33.249 48.4711C33.3067 48.4931 33.3629 48.5192 33.417 48.5491C33.4419 48.5554 33.4654 48.5666 33.486 48.5821V48.5821Z" fill="#EBEBEB"/>
<path d="M18.951 31.5C18.951 31.5 19.008 38.22 19.35 40.269L27.777 39.87C27.777 39.87 27.036 33.27 27.321 31.5H18.951Z" fill="#EBEBEB"/>
<path d="M26.052 34.308C25.1167 34.4465 24.1741 34.5306 23.229 34.56C22.2867 34.6469 21.3399 34.676 20.394 34.647C21.3296 34.5104 22.272 34.4262 23.217 34.395C24.1596 34.3118 25.1061 34.2827 26.052 34.308V34.308Z" fill="#EBEBEB"/>
<path d="M26.052 35.73C25.1169 35.8709 24.1742 35.956 23.229 35.985C22.2875 36.0683 21.3419 36.0973 20.397 36.072C21.3323 35.9333 22.2749 35.8492 23.22 35.82C24.1614 35.735 25.1071 35.7049 26.052 35.73V35.73Z" fill="#EBEBEB"/>
<path d="M24.621 37.128C24.0924 37.242 23.5537 37.3023 23.013 37.308C22.4764 37.3626 21.9356 37.3626 21.399 37.308C21.9266 37.1941 22.4643 37.1338 23.004 37.128C23.5416 37.0734 24.0834 37.0734 24.621 37.128V37.128Z" fill="#EBEBEB"/>
<path d="M18.552 51.255C18.552 51.255 18.609 57.972 18.951 60.024L27.378 59.625C27.378 59.625 26.637 53.025 26.922 51.255H18.552Z" fill="#EBEBEB"/>
<path d="M25.653 54.075C24.7178 54.2154 23.7752 54.3006 22.83 54.33C21.8884 54.4132 20.9429 54.4423 19.998 54.417C20.9323 54.2782 21.8739 54.1941 22.818 54.165C23.7604 54.0799 24.7071 54.0499 25.653 54.075V54.075Z" fill="#EBEBEB"/>
<path d="M25.653 55.5001C24.7177 55.6389 23.7751 55.723 22.83 55.752C21.8884 55.8353 20.9429 55.8644 19.998 55.8391C20.9333 55.7004 21.8759 55.6162 22.821 55.5871C23.7626 55.5038 24.7081 55.4747 25.653 55.5001V55.5001Z" fill="#EBEBEB"/>
<path d="M24.222 56.898C23.6945 57.0117 23.1566 57.071 22.617 57.075C22.0799 57.1346 21.5381 57.1397 21 57.09C21.5276 56.9761 22.0653 56.9158 22.605 56.91C23.1422 56.8504 23.684 56.8464 24.222 56.898V56.898Z" fill="#EBEBEB"/>
<path d="M41.583 33.2671L42.417 52.6471L66.609 52.9381L65.523 33.5221L41.583 33.2671Z" fill="#EBEBEB"/>
<path d="M65.334 33.129H41.301V51.276H65.334V33.129Z" fill="#F5F5F5"/>
<path d="M65.334 51.2761C65.334 51.2761 65.334 51.1591 65.334 50.9371C65.334 50.7151 65.334 50.3911 65.334 49.9711C65.334 49.1191 65.334 47.8711 65.316 46.2991C65.316 43.1341 65.295 38.6071 65.28 33.1291L65.349 33.1951H41.319L41.403 33.1141C41.403 39.6391 41.403 45.8191 41.403 51.2611L41.328 51.1861L58.662 51.2221L63.594 51.2431H64.905H65.244H65.361H64.92L63.6 51.3001L58.689 51.3211L41.289 51.3571H41.214V51.2851C41.214 45.8431 41.214 39.6631 41.214 33.1381V33.0541H41.298H65.328H65.4V33.1231C65.4 38.6161 65.373 43.1611 65.364 46.3231C65.364 47.8981 65.364 49.1311 65.346 49.9801C65.346 50.3941 65.346 50.7121 65.346 50.9341C65.34 51.1681 65.334 51.2761 65.334 51.2761Z" fill="#E0E0E0"/>
<path d="M53.943 36.972H44.202V49.2331H53.943V36.972Z" fill="#F5F5F5"/>
<path d="M53.943 49.2331C53.9397 49.2122 53.9397 49.1909 53.943 49.1701V48.9961C53.943 48.8341 53.943 48.6121 53.943 48.3271C53.943 47.7271 53.943 46.8841 53.925 45.8101C53.925 43.6531 53.901 40.5991 53.886 36.9721L53.961 37.0471H44.22C44.199 37.0471 44.376 36.8911 44.301 36.9661V40.2991C44.301 41.3881 44.301 42.4501 44.301 43.4791C44.301 45.5401 44.301 47.4691 44.301 49.2211L44.235 49.1521L51.288 49.1881L53.265 49.2061H53.79H53.976C53.9191 49.2102 53.8619 49.2102 53.805 49.2061H53.295L51.33 49.2241L44.235 49.2601H44.166V49.1911C44.166 47.4391 44.166 45.5101 44.166 43.4491C44.166 42.4201 44.166 41.3491 44.166 40.2691V36.9781C44.091 37.0501 44.265 36.8731 44.25 36.8941H53.991H54.066V36.9691C54.051 40.6141 54.036 43.6861 54.027 45.8551L54.009 48.3541C54.009 48.6341 54.009 48.8531 54.009 49.0111C54.009 49.0771 54.009 49.1311 54.009 49.1761C53.9893 49.1976 53.9672 49.2168 53.943 49.2331V49.2331Z" fill="#E0E0E0"/>
<path d="M63.243 34.167H44.574V35.934H63.243V34.167Z" fill="#F5F5F5"/>
<path d="M63.243 35.9341C63.243 35.9341 63.243 35.8891 63.243 35.8141C63.243 35.7391 63.243 35.6131 63.243 35.4691C63.243 35.1691 63.243 34.7281 63.222 34.1671L63.255 34.2001C60.108 34.2301 52.932 34.2511 44.586 34.2511C44.751 34.0831 44.631 34.2031 44.67 34.1671V35.9281L44.589 35.8441L57.822 35.8801L61.794 35.9041H62.874H63.159C63.192 35.9016 63.2251 35.9016 63.258 35.9041H63.171H62.898H61.836L57.882 35.9311L44.589 35.9641H44.508V35.8831C44.508 35.6011 44.508 35.3101 44.508 35.0161V34.1161L44.592 34.0321C52.938 34.0321 60.114 34.0531 63.261 34.0831H63.297V34.1161C63.297 34.6831 63.297 35.1271 63.279 35.4391C63.279 35.5801 63.279 35.6881 63.279 35.7721C63.2766 35.8278 63.2644 35.8826 63.243 35.9341V35.9341Z" fill="#E0E0E0"/>
<path d="M63.243 36.972H55.134V44.361H63.243V36.972Z" fill="#F5F5F5"/>
<path d="M63.243 44.361C63.243 44.361 63.243 44.31 63.243 44.22V43.818C63.243 43.458 63.243 42.951 63.225 42.318C63.225 41.016 63.204 39.183 63.189 36.978L63.258 37.05H55.158L55.239 36.969V38.952C55.239 39.6 55.239 40.236 55.239 40.857C55.239 42.096 55.239 43.257 55.239 44.355L55.164 44.283L61.014 44.319L62.673 44.34H63.117C63.1689 44.3356 63.2211 44.3356 63.273 44.34C63.2261 44.3443 63.1789 44.3443 63.132 44.34H62.703L61.062 44.358L55.164 44.394H55.092V44.319C55.092 43.236 55.092 42.06 55.092 40.821C55.092 40.2 55.092 39.564 55.092 38.916V36.933C55.017 37.005 55.191 36.831 55.176 36.849H63.276H63.348V36.918C63.333 39.141 63.321 40.992 63.312 42.318C63.312 42.948 63.297 43.449 63.294 43.818C63.294 43.976 63.294 44.105 63.294 44.205C63.2842 44.2591 63.2671 44.3116 63.243 44.361V44.361Z" fill="#E0E0E0"/>
<path d="M63.243 45.519H55.134V49.233H63.243V45.519Z" fill="#F5F5F5"/>
<path d="M63.243 49.2331C63.243 49.2331 63.243 49.1371 63.243 48.9631L63.228 48.2191C63.228 47.5621 63.21 46.6471 63.195 45.5191L63.255 45.5791L55.155 45.6031C55.08 45.6781 55.254 45.5011 55.236 45.5221V47.4331C55.236 48.0541 55.236 48.6571 55.236 49.2331L55.155 49.1551L60.954 49.1911L62.646 49.2151H63.102H63.264C63.2161 49.2195 63.1679 49.2195 63.12 49.2151H62.679L61.008 49.2391L55.155 49.2751H55.077V49.1971C55.077 48.6211 55.077 48.0181 55.077 47.3971V45.4861C55.059 45.4861 55.233 45.3271 55.161 45.4021L63.261 45.4231H63.3V45.4831C63.3 46.6261 63.276 47.5561 63.27 48.2191C63.27 48.5191 63.27 48.7681 63.27 48.9511C63.2701 49.0457 63.2611 49.1402 63.243 49.2331V49.2331Z" fill="#E0E0E0"/>
<path d="M53.7 36.993C50.682 41.16 47.214 45.066 44.199 49.233Z" fill="#EBEBEB"/>
<path d="M44.202 49.2331C44.202 49.2331 44.223 49.1821 44.28 49.0951L44.535 48.7231C44.757 48.3991 45.09 47.9401 45.51 47.3791C46.347 46.2511 47.544 44.7271 48.888 43.0621C50.232 41.3971 51.441 39.8851 52.299 38.7781L53.316 37.4671L53.595 37.1101C53.661 37.0321 53.697 36.9901 53.703 36.9931C53.6813 37.042 53.6541 37.0883 53.622 37.1311L53.367 37.5031C53.145 37.8271 52.812 38.2861 52.392 38.8501C51.555 39.9751 50.358 41.4991 49.014 43.1641C47.67 44.8291 46.464 46.3411 45.603 47.4481L44.586 48.7621L44.307 49.1161C44.2767 49.159 44.2414 49.1983 44.202 49.2331Z" fill="#E0E0E0"/>
<path d="M53.943 49.233C53.907 49.26 51.696 46.533 49.008 43.155C46.32 39.777 44.166 37.002 44.208 36.972C44.25 36.942 46.452 39.672 49.143 43.053C51.834 46.434 53.979 49.2 53.943 49.233Z" fill="#E0E0E0"/>
<path d="M42.417 36.9991C42.417 37.3005 42.3276 37.5952 42.1602 37.8458C41.9927 38.0964 41.7547 38.2917 41.4762 38.4071C41.1978 38.5224 40.8913 38.5526 40.5957 38.4938C40.3001 38.435 40.0285 38.2899 39.8154 38.0767C39.6023 37.8636 39.4571 37.592 39.3983 37.2964C39.3395 37.0008 39.3697 36.6944 39.485 36.4159C39.6004 36.1374 39.7957 35.8994 40.0463 35.7319C40.297 35.5645 40.5916 35.4751 40.893 35.4751C41.297 35.4759 41.6841 35.6367 41.9698 35.9223C42.2554 36.208 42.4162 36.5952 42.417 36.9991V36.9991Z" fill="#E0E0E0"/>
<path d="M67.344 33.3C67.344 33.6014 67.2546 33.8961 67.0872 34.1467C66.9197 34.3973 66.6817 34.5926 66.4032 34.708C66.1247 34.8233 65.8183 34.8535 65.5227 34.7947C65.2271 34.7359 64.9555 34.5908 64.7424 34.3776C64.5292 34.1645 64.3841 33.8929 64.3253 33.5973C64.2665 33.3017 64.2967 32.9953 64.412 32.7168C64.5274 32.4383 64.7227 32.2003 64.9733 32.0328C65.2239 31.8654 65.5186 31.776 65.82 31.776C66.224 31.7768 66.6111 31.9376 66.8968 32.2232C67.1824 32.5089 67.3432 32.8961 67.344 33.3V33.3Z" fill="#E0E0E0"/>
<path d="M126.96 43.9141H109.398V69.3721H126.96V43.9141Z" fill="#E0E0E0"/>
<path d="M126.081 43.9141H108.519V69.3721H126.081V43.9141Z" fill="#F5F5F5"/>
<path d="M123.9 46.671H110.7V66.615H123.9V46.671Z" fill="#EBEBEB"/>
<path d="M123.9 66.615C123.9 66.615 123.9 66.579 123.9 66.516C123.9 66.453 123.9 66.357 123.9 66.234C123.9 65.982 123.9 65.616 123.9 65.139C123.9 64.185 123.9 62.79 123.9 61.032C123.9 57.516 123.9 52.536 123.879 46.671L123.924 46.716H110.7L110.748 46.668C110.748 54.192 110.748 61.128 110.748 66.612L110.709 66.573L120.309 66.594H122.964H123.66H123.903H123.669H122.979H120.333L110.703 66.612H110.664V66.576C110.664 61.092 110.664 54.156 110.664 46.632V46.584H110.7H123.9H123.942V46.626C123.942 52.503 123.927 57.492 123.921 61.026C123.921 62.781 123.921 64.17 123.921 65.124C123.921 65.595 123.921 65.958 123.921 66.207C123.921 66.33 123.921 66.42 123.921 66.486L123.9 66.615Z" fill="#E0E0E0"/>
<path d="M126.129 43.9141C126.044 44.0756 125.944 44.2284 125.829 44.3701C125.625 44.6431 125.334 45.0121 125.004 45.4141C124.674 45.8161 124.365 46.1701 124.137 46.4251C124.021 46.5678 123.891 46.6994 123.75 46.8181C123.85 46.6633 123.962 46.5168 124.086 46.3801L124.932 45.3541L125.775 44.3281C125.883 44.1816 126.001 44.0432 126.129 43.9141V43.9141Z" fill="#E0E0E0"/>
<path d="M123.966 66.5491C124.621 67.5933 125.393 68.5595 126.267 69.4291Z" fill="#EBEBEB"/>
<path d="M126.267 69.4291C126.121 69.3222 125.987 69.1994 125.868 69.0631C125.561 68.7524 125.271 68.4259 124.998 68.0851C124.725 67.7442 124.47 67.3897 124.233 67.0231C124.127 66.875 124.038 66.7161 123.966 66.5491C124.084 66.6864 124.192 66.8317 124.29 66.9841C124.482 67.2571 124.755 67.6261 125.073 68.0251C125.391 68.4241 125.694 68.7691 125.916 69.0181C126.044 69.1457 126.161 69.2831 126.267 69.4291V69.4291Z" fill="#E0E0E0"/>
<path d="M108.516 69.3511L110.817 66.5131Z" fill="#EBEBEB"/>
<path d="M110.817 66.5131C110.835 66.5131 110.337 67.1791 109.704 67.9621C109.329 68.4459 108.928 68.9096 108.504 69.3511C109.221 68.3654 109.989 67.4181 110.805 66.5131H110.817Z" fill="#E0E0E0"/>
<path d="M108.519 43.9141C108.913 44.3401 109.286 44.7856 109.635 45.2491C110.007 45.6945 110.355 46.1602 110.676 46.6441C110.281 46.216 109.908 45.7674 109.56 45.3001C109.187 44.8584 108.839 44.3957 108.519 43.9141V43.9141Z" fill="#E0E0E0"/>
<path d="M119.787 50.7209H115.368V63.2699H119.787V50.7209Z" fill="#E0E0E0"/>
<path d="M122.913 16.8636L120.399 16.8772L120.466 29.387L122.98 29.3734L122.913 16.8636Z" fill="#E0E0E0"/>
<path d="M105.129 16.8969L98.6191 16.9321L98.6565 23.838L105.166 23.8028L105.129 16.8969Z" fill="#EBEBEB"/>
<path d="M111.606 16.8648L105.096 16.9L105.133 23.8059L111.643 23.7707L111.606 16.8648Z" fill="#F5F5F5"/>
<path d="M98.628 18.846C102.954 18.882 107.292 18.846 111.618 18.786C111.636 18.786 111.654 18.7788 111.667 18.7658C111.68 18.7529 111.687 18.7353 111.687 18.717C111.687 18.6987 111.68 18.6812 111.667 18.6683C111.654 18.6553 111.636 18.648 111.618 18.648C107.288 18.624 102.958 18.65 98.628 18.726C98.6121 18.726 98.5968 18.7324 98.5856 18.7436C98.5743 18.7549 98.568 18.7701 98.568 18.786C98.568 18.802 98.5743 18.8172 98.5856 18.8285C98.5968 18.8397 98.6121 18.846 98.628 18.846V18.846Z" fill="#E0E0E0"/>
<path d="M106.387 23.691L94.558 23.755L94.5884 29.3829L106.417 29.3189L106.387 23.691Z" fill="#EBEBEB"/>
<path d="M118.161 23.6273L106.332 23.6913L106.363 29.3192L118.192 29.2552L118.161 23.6273Z" fill="#F5F5F5"/>
<path d="M94.566 25.323C102.426 25.413 110.31 25.323 118.167 25.206C118.185 25.206 118.203 25.1987 118.216 25.1858C118.229 25.1729 118.236 25.1553 118.236 25.137C118.236 25.1187 118.229 25.1012 118.216 25.0882C118.203 25.0753 118.185 25.068 118.167 25.068C110.307 25.026 102.423 25.032 94.566 25.203C94.5501 25.203 94.5348 25.2093 94.5236 25.2206C94.5123 25.2318 94.506 25.2471 94.506 25.263C94.506 25.2789 94.5123 25.2942 94.5236 25.3054C94.5348 25.3167 94.5501 25.323 94.566 25.323V25.323Z" fill="#E0E0E0"/>
<path d="M135.972 29.385H90.144V31.401H135.972V29.385Z" fill="#E0E0E0"/>
<path d="M99.507 30.354H97.647V37.233H99.507V30.354Z" fill="#E0E0E0"/>
<path d="M127.278 30.354H125.418V37.233H127.278V30.354Z" fill="#E0E0E0"/>
<path d="M125.365 12.2004L122.851 12.214L122.944 29.4187L125.458 29.4051L125.365 12.2004Z" fill="#EBEBEB"/>
<path d="M129.295 15.404L125.389 15.4252L125.464 29.369L129.37 29.3478L129.295 15.404Z" fill="#F5F5F5"/>
<path d="M129.267 18.093C127.969 18.1847 126.665 18.1847 125.367 18.093C126.666 18.0053 127.968 18.0053 129.267 18.093Z" fill="#E0E0E0"/>
<path d="M129.267 17.5081C127.969 17.5998 126.665 17.5998 125.367 17.5081C126.666 17.4203 127.968 17.4203 129.267 17.5081V17.5081Z" fill="#E0E0E0"/>
<path d="M129.267 27.252C127.969 27.3437 126.665 27.3437 125.367 27.252C126.666 27.1642 127.968 27.1642 129.267 27.252Z" fill="#E0E0E0"/>
<path d="M129.267 26.6671C127.969 26.7588 126.665 26.7588 125.367 26.6671C126.666 26.5794 127.968 26.5794 129.267 26.6671V26.6671Z" fill="#E0E0E0"/>
<path d="M127.377 25.3891C127.338 25.3891 127.308 23.9821 127.308 22.2481C127.308 20.5141 127.338 19.1071 127.377 19.1071C127.416 19.1071 127.443 20.5141 127.443 22.2481C127.443 23.9821 127.413 25.3891 127.377 25.3891Z" fill="#E0E0E0"/>
<path d="M133.56 18.8311H129.309V29.3551H133.56V18.8311Z" fill="#EBEBEB"/>
<path d="M131.556 26.6281C131.429 26.6355 131.303 26.616 131.184 26.5711C131.066 26.5261 130.958 26.4565 130.868 26.367C130.778 26.2775 130.709 26.1701 130.663 26.0517C130.618 25.9333 130.598 25.8067 130.605 25.6801C130.598 25.5422 130.626 25.4047 130.686 25.2804C130.747 25.1562 130.837 25.0491 130.95 24.9691L131.046 25.1041C130.956 25.1699 130.883 25.2569 130.835 25.3573C130.786 25.4577 130.763 25.5686 130.767 25.6801C130.767 25.8894 130.85 26.0901 130.998 26.238C131.146 26.386 131.347 26.4691 131.556 26.4691C131.765 26.4691 131.966 26.386 132.114 26.238C132.262 26.0901 132.345 25.8894 132.345 25.6801C132.349 25.5682 132.326 25.457 132.277 25.3565C132.228 25.2559 132.154 25.1692 132.063 25.1041L132.162 24.9691C132.273 25.0502 132.363 25.1576 132.422 25.2816C132.482 25.4057 132.51 25.5426 132.504 25.6801C132.511 25.8064 132.491 25.9328 132.446 26.0509C132.401 26.1691 132.331 26.2764 132.242 26.3659C132.152 26.4553 132.045 26.5249 131.927 26.5701C131.809 26.6153 131.682 26.6351 131.556 26.6281V26.6281Z" fill="#EBEBEB"/>
<path d="M132.264 24.708L132.123 24.627C132.27 24.433 132.35 24.1956 132.348 23.952C132.348 23.559 132.207 23.4 131.997 23.4C131.451 23.4 131.853 24.642 131.118 24.642C130.836 24.642 130.605 24.405 130.605 23.931C130.601 23.7036 130.665 23.4802 130.788 23.289L130.932 23.373C130.819 23.5379 130.76 23.734 130.764 23.934C130.764 24.3 130.914 24.462 131.115 24.462C131.676 24.462 131.28 23.22 131.994 23.22C132.294 23.22 132.504 23.484 132.504 23.961C132.513 24.2303 132.428 24.4944 132.264 24.708V24.708Z" fill="#EBEBEB"/>
<path d="M132.264 22.995L132.123 22.914C132.27 22.72 132.35 22.4826 132.348 22.239C132.348 21.846 132.207 21.687 131.997 21.687C131.451 21.687 131.853 22.926 131.118 22.926C130.836 22.926 130.605 22.692 130.605 22.218C130.601 21.9906 130.665 21.7672 130.788 21.576L130.932 21.657C130.819 21.8232 130.761 22.0201 130.764 22.221C130.764 22.587 130.914 22.749 131.115 22.749C131.676 22.749 131.28 21.507 131.994 21.507C132.294 21.507 132.504 21.768 132.504 22.245C132.514 22.5152 132.429 22.7804 132.264 22.995V22.995Z" fill="#EBEBEB"/>
<path d="M124.071 15.867C124.47 15.867 124.794 15.5433 124.794 15.144C124.794 14.7447 124.47 14.421 124.071 14.421C123.672 14.421 123.348 14.7447 123.348 15.144C123.348 15.5433 123.672 15.867 124.071 15.867Z" fill="#E0E0E0"/>
<path d="M124.293 17.13H123.846V27.366H124.293V17.13Z" fill="#E0E0E0"/>
<path d="M141.243 136.2C141.243 136.242 112.266 136.278 76.53 136.278C40.794 136.278 11.811 136.248 11.811 136.2C11.811 136.152 40.782 136.122 76.53 136.122C112.278 136.122 141.243 136.164 141.243 136.2Z" fill="#263238"/>
<path d="M46.854 33.0721C42.039 40.6441 42.354 51.1441 47.616 58.4131C51.123 63.2611 56.382 66.5131 60.558 70.7911C64.734 75.0691 67.908 81.3841 65.703 86.9461C63.459 92.6071 56.886 94.9081 51.966 98.4961C46.5377 102.45 42.8525 108.353 41.6845 114.966C40.5164 121.58 41.9564 128.388 45.702 133.962H96.828C96.828 133.962 105.81 116.847 94.263 103.8C82.716 90.7531 76.515 90.5431 76.941 81.9871C77.367 73.4311 83.355 70.6561 86.778 67.4461C90.201 64.2361 106.878 56.7571 97.041 33.0691L46.854 33.0721Z" fill="#EBEBEB"/>
<path d="M46.854 33.072H47.733H50.325H60.303L97.041 33.045H97.08V33.081C97.8331 34.8746 98.4743 36.7132 99 38.586C99.5521 40.5469 99.9157 42.556 100.086 44.586C100.263 46.708 100.154 48.8441 99.762 50.937C99.3315 53.1066 98.5513 55.1917 97.452 57.111C96.8824 58.09 96.2385 59.0237 95.526 59.904C94.7987 60.7962 94.0119 61.6381 93.171 62.424C92.3194 63.2243 91.4272 63.9803 90.498 64.689C89.568 65.409 88.596 66.087 87.648 66.807C87.174 67.164 86.748 67.566 86.286 67.968C85.824 68.37 85.365 68.745 84.891 69.123C83.946 69.879 82.992 70.623 82.092 71.46C80.2136 73.0882 78.7701 75.1585 77.892 77.484C77.4701 78.6768 77.2039 79.9191 77.1 81.18C77.073 81.48 77.031 81.81 77.019 82.128C77.007 82.446 76.995 82.764 77.019 83.082C77.0258 83.7205 77.0901 84.3571 77.211 84.984C77.4489 86.2545 77.9675 87.4557 78.729 88.5C79.5126 89.5442 80.4002 90.5061 81.378 91.371C83.319 93.144 85.38 94.839 87.351 96.669C89.322 98.499 91.251 100.407 93.111 102.426C94.06 103.425 94.9477 104.481 95.769 105.588C96.5953 106.709 97.3135 107.905 97.914 109.161C99.1281 111.707 99.874 114.451 100.116 117.261C100.361 120.11 100.193 122.98 99.618 125.781C99.3385 127.196 98.9718 128.593 98.52 129.963C98.0759 131.345 97.5345 132.693 96.9 133.998L96.879 134.04H45.66L45.639 134.007C43.2415 130.397 41.7711 126.252 41.358 121.938C40.9424 117.794 41.5502 113.612 43.128 109.758C44.6276 106.074 46.9366 102.775 49.884 100.104C51.3143 98.8414 52.859 97.7146 54.498 96.738C56.094 95.748 57.705 94.83 59.226 93.828C60.7485 92.8764 62.1471 91.7397 63.39 90.444C64.577 89.1716 65.4574 87.6447 65.964 85.98C66.4081 84.3559 66.4778 82.6521 66.168 80.997C65.8721 79.3998 65.3392 77.8558 64.587 76.416C63.8676 75.0297 63.0049 73.7226 62.013 72.516C61.0556 71.3586 60.0148 70.2727 58.899 69.267C56.736 67.275 54.519 65.532 52.527 63.741C51.528 62.841 50.583 61.941 49.71 61.02C48.8639 60.1184 48.0839 59.1569 47.376 58.143C46.0964 56.2837 45.1099 54.2389 44.451 52.08C43.8739 50.2157 43.5391 48.2848 43.455 46.335C43.413 45.891 43.431 45.453 43.431 45.024C43.431 44.595 43.431 44.178 43.47 43.773C43.509 43.368 43.53 42.972 43.56 42.573C43.59 42.174 43.671 41.817 43.722 41.454C44.0534 39.2442 44.7297 37.1001 45.726 35.1C45.8609 34.7906 46.0153 34.49 46.188 34.2L46.557 33.573C46.752 33.24 46.857 33.072 46.857 33.072L46.557 33.582L46.2 34.2C46.0314 34.4913 45.8791 34.7918 45.744 35.1C44.7567 37.105 44.0886 39.2519 43.764 41.463C43.713 41.823 43.653 42.195 43.608 42.576C43.563 42.957 43.548 43.356 43.518 43.761C43.488 44.166 43.488 44.583 43.485 45.009C43.482 45.435 43.47 45.873 43.512 46.317C43.5988 48.2604 43.9366 50.1844 44.517 52.041C45.1751 54.1922 46.1606 56.2291 47.439 58.08C48.1451 59.0897 48.9242 60.0462 49.77 60.942C50.64 61.866 51.585 62.766 52.584 63.642C54.576 65.442 56.784 67.167 58.962 69.162C60.0865 70.175 61.1353 71.2689 62.1 72.435C63.0974 73.6503 63.9651 74.9665 64.689 76.362C65.4483 77.8107 65.9863 79.365 66.285 80.973C66.5992 82.6458 66.5295 84.3681 66.081 86.01C65.5721 87.6941 64.6832 89.2388 63.483 90.525C62.234 91.8282 60.8295 92.9728 59.301 93.933C57.774 94.938 56.163 95.856 54.57 96.846C52.9379 97.82 51.3994 98.9428 49.974 100.2C47.0447 102.857 44.7492 106.138 43.257 109.8C41.6888 113.634 41.0861 117.795 41.502 121.917C41.9151 126.206 43.3782 130.328 45.762 133.917L45.702 133.884H96.828L96.759 133.926C97.3925 132.624 97.9319 131.279 98.373 129.9C98.8225 128.536 99.1872 127.145 99.465 125.736C100.037 122.949 100.204 120.093 99.96 117.258C99.7227 114.463 98.9818 111.734 97.773 109.203C97.1768 107.956 96.4647 106.768 95.646 105.654C94.8266 104.553 93.943 103.501 93 102.504C91.15 100.49 89.233 98.574 87.249 96.756C85.281 94.929 83.226 93.237 81.279 91.455C80.2934 90.583 79.3979 89.6141 78.606 88.563C77.8296 87.506 77.2978 86.2897 77.049 85.002C76.9289 84.3658 76.8636 83.7204 76.854 83.073C76.839 82.752 76.854 82.431 76.854 82.11C76.854 81.789 76.908 81.471 76.932 81.153C77.0421 79.8845 77.3143 78.6354 77.742 77.436C78.6277 75.09 80.0847 73.0019 81.981 71.361C82.881 70.527 83.844 69.771 84.789 69.018C85.263 68.64 85.728 68.259 86.181 67.869C86.634 67.479 87.081 67.059 87.549 66.699C88.503 65.979 89.472 65.301 90.399 64.584C91.3254 63.8785 92.2155 63.1265 93.066 62.331C93.9014 61.5486 94.6841 60.7118 95.409 59.826C96.1159 58.9487 96.7566 58.0202 97.326 57.048C98.4191 55.142 99.1952 53.071 99.624 50.916C100.014 48.8401 100.124 46.7212 99.951 44.616C99.7834 42.5864 99.4227 40.5773 98.874 38.616C98.3556 36.738 97.7224 34.8935 96.978 33.093L97.029 33.126L60.312 33.099H50.328H47.73L46.854 33.072Z" fill="#263238"/>
<path d="M95.001 46.959C102.531 48.198 90.66 61.536 83.937 66.798C80.037 69.843 75.867 73.149 74.019 77.733C71.919 82.935 73.476 88.779 72.462 94.011C72.4293 94.1914 72.3296 94.3528 72.1829 94.4627C72.0361 94.5727 71.8532 94.623 71.6709 94.6036C71.4886 94.5842 71.3204 94.4966 71.2 94.3583C71.0796 94.22 71.016 94.0413 71.022 93.858C71.07 90.423 70.98 86.991 70.422 83.61C69.615 78.81 67.773 74.073 64.422 70.56C61.677 67.689 58.08 65.784 55.155 63.102C50.883 59.187 46.494 54.138 46.065 48.36C46.065 48.36 54.267 41.76 58.821 42.585C64.143 43.56 69.381 51.771 77.625 50.832C83.361 50.175 86.268 45.525 95.001 46.959Z" fill="#1807D2"/>
<path d="M95.67 118.344C95.481 116.46 94.977 114.33 93.306 113.442C92.295 112.902 91.062 112.962 89.952 113.253C88.842 113.544 87.801 114.051 86.703 114.378C84.5202 115.02 82.1892 114.945 80.052 114.165C78.009 113.415 76.257 112.065 74.352 110.991C72.447 109.917 70.236 109.131 68.124 109.656C64.482 110.556 62.586 114.948 58.986 116.007C57.384 116.475 55.665 116.211 54.039 115.845C52.413 115.479 50.778 115.002 49.113 115.065C47.805 115.113 46.446 115.566 45.531 116.46L45.507 116.487C45.3547 116.636 45.2161 116.799 45.093 116.973C43.977 118.473 43.797 120.462 44.142 122.28C44.526 124.317 45.477 126.198 46.497 128.001C47.697 130.125 49.065 132.237 51.051 133.653C53.505 135.402 56.586 134.196 59.589 134.433C66.588 134.985 74.118 135.36 81.12 134.82C84.819 134.52 88.284 134.934 91.218 132.663C93.282 131.067 94.626 128.661 95.274 126.135C95.922 123.609 95.931 120.939 95.67 118.344Z" fill="#1807D2"/>
<g opacity="0.24">
<path opacity="0.24" d="M82.458 114.738C82.065 115.338 81.894 116.154 82.275 116.766C82.656 117.378 83.175 117.939 83.337 118.644C83.598 119.748 82.932 120.828 82.437 121.851C81.5208 123.68 81.1749 125.742 81.444 127.77C81.7278 129.805 82.7785 131.654 84.381 132.939C85.092 133.488 86.016 133.914 86.874 133.644C87.681 133.392 88.2 132.573 88.374 131.742C88.548 130.911 88.401 130.056 88.296 129.219C87.8074 125.318 87.9086 121.366 88.596 117.495C88.71 116.85 88.818 116.112 88.41 115.599C88.1157 115.3 87.7419 115.092 87.333 114.999C85.773 114.48 84.09 115.056 82.473 114.75" fill="black"/>
</g>
<path d="M41.949 136.284C41.949 136.284 41.808 133.938 44.868 132.63H98.643C98.643 132.63 101.448 134.052 101.793 136.23L41.949 136.284Z" fill="#263238"/>
<path d="M97.5 33.3571L97.413 33.396L46.848 33.072C46.848 33.072 46.668 32.9581 46.401 32.7451C46.0858 32.4981 45.8558 32.1587 45.7434 31.7744C45.6309 31.3901 45.6416 30.9802 45.774 30.6023C45.9063 30.2243 46.1537 29.8974 46.4814 29.6672C46.8091 29.4371 47.2006 29.3153 47.601 29.3191L96.681 29.7151C98.7 29.7331 99.336 32.4931 97.5 33.3571Z" fill="#263238"/>
<g opacity="0.24">
<path opacity="0.24" d="M89.4 52.647C89.502 52.842 89.121 53.247 88.398 53.907C87.675 54.567 86.598 55.434 85.26 56.523C83.6535 57.8503 81.9486 59.0537 80.16 60.123C79.049 60.7664 77.8798 61.3037 76.668 61.728C76.0113 61.955 75.341 62.1403 74.661 62.283C73.9467 62.4347 73.2214 62.529 72.492 62.565C71.014 62.6454 69.5343 62.4417 68.133 61.965C66.8941 61.5144 65.7169 60.9097 64.629 60.165C63.621 59.499 62.754 58.839 61.929 58.206C61.104 57.573 60.369 56.964 59.703 56.388C57.048 54.087 55.65 52.395 55.92 52.068C56.19 51.741 58.08 52.806 61.02 54.606L63.42 56.076C64.281 56.598 65.202 57.177 66.144 57.711C67.0788 58.2597 68.0694 58.7073 69.099 59.046C70.1526 59.3615 71.253 59.4914 72.351 59.43C74.655 59.31 76.89 58.5 78.825 57.564C80.76 56.628 82.512 55.536 84.03 54.684C85.2314 53.9751 86.4873 53.3631 87.786 52.854C88.737 52.521 89.313 52.458 89.4 52.647Z" fill="black"/>
</g>
<path d="M71.058 100.278C71.2706 100.193 71.5079 100.196 71.7186 100.285C71.9292 100.374 72.0963 100.543 72.1837 100.754C72.271 100.966 72.2716 101.203 72.1852 101.415C72.0989 101.627 71.9326 101.796 71.7223 101.886C71.512 101.976 71.2747 101.98 71.0618 101.896C70.8488 101.813 70.6774 101.649 70.5845 101.44C70.4916 101.231 70.4849 100.993 70.5656 100.779C70.6464 100.565 70.8082 100.392 71.016 100.296" fill="#1807D2"/>
<path d="M52.974 61.014C52.9083 60.96 52.848 60.8997 52.794 60.834L52.305 60.3C52.098 60.063 51.825 59.787 51.546 59.436L50.592 58.236C50.265 57.774 49.896 57.276 49.524 56.736L48.975 55.863C48.882 55.713 48.783 55.563 48.693 55.404L48.429 54.918C47.6306 53.503 47.0051 51.9972 46.566 50.433C46.1248 48.87 45.8868 47.2568 45.858 45.633C45.858 45.258 45.879 44.895 45.885 44.538C45.885 44.361 45.885 44.187 45.909 44.016C45.933 43.845 45.945 43.677 45.963 43.512C46.002 43.182 46.026 42.861 46.071 42.555C46.116 42.249 46.179 41.955 46.23 41.682C46.314 41.121 46.464 40.632 46.569 40.182C46.626 39.966 46.671 39.762 46.728 39.582L46.893 39.081L47.124 38.394C47.1461 38.3122 47.1762 38.2328 47.214 38.157C47.2017 38.2407 47.1816 38.323 47.154 38.403C47.103 38.577 47.037 38.808 46.95 39.099L46.8 39.6C46.749 39.783 46.707 39.987 46.653 40.2C46.557 40.635 46.416 41.127 46.353 41.7C46.305 41.976 46.257 42.267 46.206 42.57C46.155 42.873 46.143 43.191 46.107 43.521C46.107 43.686 46.074 43.851 46.056 44.022C46.038 44.193 46.056 44.367 46.038 44.541C46.038 44.895 46.014 45.255 46.017 45.627C46.0463 47.2412 46.2812 48.8451 46.716 50.4C47.1528 51.9527 47.77 53.4489 48.555 54.858C48.642 55.02 48.729 55.182 48.813 55.344C48.897 55.506 49.002 55.644 49.092 55.8L49.632 56.673C49.998 57.225 50.361 57.723 50.679 58.173L51.615 59.373C51.885 59.73 52.152 60.009 52.35 60.255L52.818 60.81C52.8742 60.8746 52.9263 60.9428 52.974 61.014V61.014Z" fill="#263238"/>
<path d="M50.127 105.582C50.1419 105.547 50.16 105.514 50.181 105.483L50.361 105.201C50.442 105.075 50.541 104.925 50.661 104.745L50.85 104.445C50.925 104.346 51.012 104.247 51.099 104.145L51.699 103.425C51.93 103.176 52.194 102.918 52.473 102.636C53.1199 102.013 53.8074 101.434 54.531 100.902C56.124 99.7021 58.179 98.5021 60.405 97.0951C61.5755 96.3738 62.7006 95.5813 63.774 94.7221C64.9255 93.8048 65.9425 92.7303 66.795 91.5301C68.3554 89.1326 69.2033 86.3414 69.24 83.4811C69.278 81.1498 68.8876 78.8313 68.088 76.6411C67.5584 75.1631 66.8936 73.737 66.102 72.3811C65.823 71.8981 65.595 71.5321 65.439 71.2831L65.262 71.0011C65.223 70.9381 65.205 70.9021 65.205 70.9021C65.2318 70.929 65.255 70.9593 65.274 70.9921L65.466 71.2681C65.631 71.5081 65.868 71.8681 66.153 72.3511C66.9691 73.6997 67.6523 75.1244 68.193 76.6051C69.0141 78.8044 69.4209 81.1367 69.393 83.4841C69.3803 84.1609 69.3252 84.8362 69.228 85.5061C69.1308 86.2068 68.9835 86.8995 68.787 87.5791C68.3772 89.018 67.7402 90.3822 66.9 91.6201C66.0388 92.8334 65.0106 93.9191 63.846 94.8451C62.7663 95.7051 61.6352 96.4985 60.459 97.2211C58.224 98.6161 56.166 99.8041 54.573 100.995C53.8496 101.52 53.1602 102.09 52.509 102.702C52.23 102.981 51.963 103.233 51.729 103.479L51.129 104.184C51.039 104.292 50.952 104.391 50.877 104.484L50.682 104.769L50.382 105.216L50.19 105.489C50.1715 105.522 50.1505 105.553 50.127 105.582Z" fill="#263238"/>
<path d="M47.337 110.883C47.3189 110.932 47.2968 110.979 47.271 111.024L47.055 111.405C46.959 111.567 46.845 111.771 46.728 112.005C46.611 112.239 46.461 112.515 46.335 112.83C46.269 112.986 46.197 113.148 46.125 113.316C46.053 113.484 45.993 113.67 45.921 113.856C45.777 114.228 45.663 114.636 45.531 115.056C45.0092 116.937 44.8293 118.896 45 120.84C45.051 121.284 45.087 121.71 45.165 122.1C45.198 122.295 45.225 122.487 45.264 122.667C45.303 122.847 45.345 123.021 45.384 123.186C45.45 123.519 45.549 123.81 45.621 124.068C45.693 124.326 45.765 124.548 45.831 124.728L45.972 125.142C45.9922 125.189 46.0054 125.238 46.011 125.289C45.9821 125.247 45.9589 125.202 45.942 125.154C45.897 125.043 45.843 124.911 45.774 124.749C45.6833 124.535 45.6042 124.317 45.537 124.095C45.456 123.837 45.351 123.546 45.276 123.213C45.234 123.048 45.192 122.874 45.147 122.694C45.102 122.514 45.075 122.319 45.036 122.124C44.952 121.728 44.91 121.302 44.856 120.855C44.6682 118.899 44.8493 116.925 45.39 115.035C45.525 114.603 45.645 114.192 45.798 113.82C45.873 113.634 45.933 113.451 46.011 113.28L46.233 112.791C46.365 112.491 46.533 112.212 46.65 111.972C46.7557 111.766 46.8729 111.565 47.001 111.372L47.241 111.003C47.301 110.922 47.331 110.88 47.337 110.883Z" fill="#263238"/>
<path d="M84.426 118.095L84.366 118.137L84.18 118.254L83.451 118.692L82.923 118.992C82.725 119.103 82.506 119.205 82.272 119.322C81.798 119.55 81.276 119.841 80.658 120.075L79.698 120.468C79.365 120.6 79.002 120.705 78.636 120.831C77.907 121.098 77.097 121.29 76.254 121.509C72.5526 122.376 68.7132 122.478 64.971 121.809C64.113 121.635 63.297 121.485 62.553 121.257C62.181 121.149 61.815 121.065 61.473 120.957L60.495 120.6C59.868 120.399 59.328 120.138 58.845 119.934C58.605 119.829 58.38 119.736 58.179 119.634L57.633 119.349L56.883 118.95L56.691 118.842L56.628 118.803C56.628 118.803 56.655 118.803 56.7 118.83L56.898 118.923L57.66 119.295L58.209 119.565C58.413 119.661 58.641 119.748 58.881 119.85C59.364 120.042 59.904 120.297 60.534 120.489L61.5 120.84C61.842 120.954 62.208 121.035 62.58 121.14C63.321 121.362 64.134 121.503 64.98 121.674C68.7049 122.319 72.5209 122.217 76.206 121.374C77.046 121.158 77.853 120.975 78.582 120.714C78.948 120.591 79.308 120.492 79.641 120.36L80.601 119.979C81.219 119.751 81.744 119.469 82.218 119.25C82.452 119.136 82.674 119.037 82.872 118.95L83.406 118.65L84.147 118.236L84.342 118.134C84.402 118.101 84.426 118.092 84.426 118.095Z" fill="#263238"/>
<path d="M87.555 54.6001C87.5366 54.6218 87.5155 54.641 87.492 54.6571L87.294 54.8191C87.111 54.9661 86.856 55.1731 86.529 55.4191C85.863 55.9471 84.897 56.7121 83.676 57.6241C82.2551 58.7118 80.765 59.7059 79.215 60.6001C78.2932 61.1159 77.3323 61.5583 76.341 61.9231C75.2717 62.3121 74.1564 62.5602 73.023 62.6611C70.8195 62.7848 68.6222 62.3275 66.651 61.3351C65.7985 60.9021 64.9757 60.413 64.188 59.8711C63.456 59.3551 62.787 58.8541 62.196 58.3711C60.996 57.4171 60.078 56.6101 59.43 56.0581L58.689 55.4161L58.5 55.2481L58.437 55.1851C58.437 55.1851 58.464 55.1851 58.509 55.2331L58.71 55.3921L59.469 56.0101C60.129 56.5501 61.071 57.3421 62.265 58.2841C62.865 58.7551 63.528 59.2501 64.263 59.7601C65.048 60.2927 65.8667 60.7737 66.714 61.2001C68.6656 62.1728 70.8368 62.6205 73.014 62.4991C74.1338 62.3998 75.236 62.1558 76.293 61.7731C77.2775 61.4132 78.2324 60.9768 79.149 60.4681C80.6966 59.5901 82.1885 58.6173 83.616 57.5551C84.84 56.6551 85.815 55.9051 86.496 55.3921L87.279 54.7921L87.486 54.6421C87.5068 54.6247 87.53 54.6106 87.555 54.6001Z" fill="#263238"/>
<g opacity="0.24">
<path opacity="0.24" d="M60.498 120.615C61.92 119.517 63.918 119.781 65.676 120.153C67.434 120.525 69.204 121.122 70.983 120.873C72.324 120.684 73.554 120.027 74.883 119.739C76.212 119.451 77.811 119.664 78.546 120.801C72.6715 122.694 66.3413 122.629 60.507 120.615" fill="black"/>
</g>
<path d="M110.1 112.473L103.65 105.24L103.584 114.033L105.528 119.673L86.202 123.024L85.383 107.775L83.991 96.0751C83.9083 95.3775 84.0589 94.6722 84.4192 94.0693C84.7796 93.4663 85.3295 92.9996 85.983 92.7421L91.302 90.6421L98.802 92.0161L101.817 93.1621C103.081 93.6435 104.208 94.4273 105.099 95.4451L114.171 105.819" fill="#1807D2"/>
<path d="M103.2 103.5C103.564 103.495 103.928 103.469 104.289 103.422C105.159 103.289 105.97 102.9 106.617 102.303C107.264 101.707 107.719 100.931 107.922 100.074C107.997 99.7164 108.052 99.3548 108.087 98.9911C108.111 99.0891 108.12 99.1903 108.114 99.2911C108.116 99.5634 108.088 99.8351 108.03 100.101C107.848 100.992 107.391 101.803 106.723 102.419C106.055 103.036 105.21 103.427 104.307 103.536C104.037 103.571 103.765 103.577 103.494 103.554C103.394 103.552 103.294 103.534 103.2 103.5Z" fill="#EBEBEB"/>
<path d="M103.761 113.658C103.806 113.658 103.818 110.61 103.788 106.854C103.758 103.098 103.695 100.053 103.65 100.053C103.605 100.053 103.593 103.098 103.623 106.857C103.653 110.616 103.716 113.658 103.761 113.658Z" fill="#263238"/>
<path d="M103.053 115.893L91.377 111.192C90.9154 111.006 90.515 110.695 90.2208 110.294C89.9266 109.893 89.7504 109.417 89.712 108.921L88.857 97.7251C88.857 97.7251 88.959 92.9611 85.983 92.7301L84.3 93.3961C82.113 94.5571 81.573 97.7431 81.87 100.2C82.293 103.692 82.47 108.636 82.941 111.666C83.331 114.147 84.741 116.328 87.177 116.967L101.559 120.081L103.053 115.893Z" fill="#1807D2"/>
<path d="M89.025 99.432C89.0445 99.5158 89.0566 99.6011 89.061 99.687C89.079 99.87 89.106 100.116 89.136 100.425C89.196 101.082 89.28 102.006 89.382 103.14C89.484 104.274 89.598 105.657 89.73 107.169C89.76 107.55 89.793 107.937 89.826 108.333C89.8492 108.736 89.8993 109.137 89.976 109.533C90.0574 109.934 90.2607 110.299 90.558 110.58C90.8779 110.861 91.2417 111.088 91.635 111.252C94.854 112.644 97.821 113.796 99.975 114.603L102.534 115.545L103.23 115.8C103.311 115.827 103.391 115.86 103.467 115.899C103.382 115.884 103.299 115.86 103.218 115.83L102.513 115.602C101.913 115.398 101.013 115.095 99.939 114.702C97.77 113.922 94.8 112.788 91.569 111.402C91.1604 111.23 90.7824 110.993 90.45 110.7C90.131 110.397 89.9131 110.003 89.826 109.572C89.7486 109.17 89.6994 108.763 89.679 108.354C89.646 107.955 89.616 107.568 89.586 107.187C89.469 105.687 89.361 104.307 89.286 103.155C89.211 102.003 89.136 101.094 89.088 100.437C89.067 100.137 89.052 99.879 89.043 99.696C89.0294 99.6087 89.0234 99.5204 89.025 99.432V99.432Z" fill="#263238"/>
<path d="M82.335 105.519C82.347 105.568 82.3541 105.618 82.356 105.669L82.395 106.101C82.431 106.5 82.476 107.037 82.533 107.691C82.59 108.345 82.68 109.158 82.797 110.04C82.9118 110.995 83.0871 111.942 83.322 112.875C83.4324 113.356 83.6253 113.813 83.892 114.228C84.1526 114.609 84.4446 114.967 84.765 115.299C85.311 115.861 85.9416 116.334 86.634 116.7C87.2794 117.028 87.9715 117.255 88.686 117.372C88.6352 117.379 88.5838 117.379 88.533 117.372C88.3879 117.362 88.2436 117.343 88.101 117.315C87.5733 117.217 87.0622 117.044 86.583 116.802C85.8711 116.444 85.2226 115.971 84.663 115.404C84.3313 115.068 84.0301 114.704 83.763 114.315C83.4829 113.889 83.2798 113.417 83.163 112.92C82.9249 111.98 82.7515 111.025 82.644 110.061C82.536 109.161 82.464 108.375 82.416 107.703C82.368 107.031 82.341 106.485 82.326 106.107C82.326 105.933 82.326 105.789 82.326 105.672C82.3208 105.621 82.3239 105.569 82.335 105.519Z" fill="#263238"/>
<path d="M87.327 113.352C87.3577 113.133 87.43 112.923 87.54 112.731C87.7806 112.253 88.1141 111.828 88.5211 111.48C88.928 111.132 89.4002 110.869 89.91 110.706C90.1167 110.627 90.3368 110.589 90.558 110.595C90.3617 110.677 90.1614 110.749 89.958 110.811C89.4757 110.998 89.0284 111.264 88.635 111.6C88.2426 111.936 87.909 112.336 87.648 112.782C87.438 113.127 87.351 113.361 87.327 113.352Z" fill="#263238"/>
<path d="M89.625 104.838C89.6505 104.846 89.6747 104.857 89.697 104.871L89.907 104.982C90.1778 105.116 90.4563 105.233 90.741 105.333C91.7908 105.701 92.9167 105.798 94.014 105.615C95.6439 105.324 97.1001 104.419 98.082 103.086C98.6689 102.316 99.0369 101.402 99.147 100.44C99.2015 99.9347 99.1483 99.4235 98.991 98.9401C98.8251 98.4466 98.5359 98.0036 98.151 97.6531C97.7716 97.2979 97.2937 97.0658 96.78 96.9871C96.5366 96.9435 96.2865 96.9557 96.0485 97.0227C95.8105 97.0898 95.5909 97.2099 95.406 97.3741C95.2386 97.538 95.1417 97.7608 95.136 97.9951C95.1412 98.228 95.2211 98.4531 95.364 98.6371C95.513 98.8149 95.6957 98.9613 95.9017 99.0679C96.1077 99.1745 96.3328 99.2392 96.564 99.2581C97.3764 99.3593 98.2012 99.255 98.9628 98.9547C99.7244 98.6543 100.398 98.1676 100.923 97.5391C101.321 97.05 101.62 96.4887 101.805 95.8861C101.943 95.4294 102.018 94.956 102.027 94.4791C102.03 94.1778 102.008 93.8767 101.961 93.5791C101.943 93.4861 101.928 93.4081 101.919 93.3481C101.916 93.3211 101.916 93.294 101.919 93.2671C102.043 93.6548 102.104 94.06 102.099 94.4671C102.102 94.9511 102.035 95.4331 101.901 95.8981C101.567 97.0189 100.846 97.9847 99.8664 98.6237C98.8869 99.2626 97.7124 99.5331 96.552 99.3871C96.3043 99.3652 96.0633 99.2946 95.8429 99.1793C95.6226 99.0639 95.4272 98.9062 95.268 98.7151C95.1051 98.5054 95.0145 98.2486 95.01 97.9831C95.0103 97.7101 95.118 97.4482 95.31 97.2541C95.5116 97.0741 95.7511 96.9418 96.0107 96.867C96.2704 96.7922 96.5436 96.7769 96.81 96.8221C97.3556 96.9029 97.8634 97.149 98.265 97.5271C98.6712 97.8941 98.9751 98.3603 99.147 98.8801C99.3104 99.3829 99.3656 99.9145 99.309 100.44C99.1919 101.423 98.8115 102.356 98.208 103.14C97.3752 104.276 96.1931 105.109 94.8424 105.51C93.4918 105.911 92.047 105.858 90.729 105.36C90.3396 105.235 89.9684 105.06 89.625 104.838Z" fill="#EBEBEB"/>
<path d="M81.975 101.853C82.0257 101.763 82.0905 101.682 82.167 101.613C82.3587 101.41 82.5697 101.226 82.797 101.064C83.5629 100.538 84.4537 100.222 85.38 100.149C85.8882 100.092 86.4022 100.113 86.904 100.212C87.3118 100.297 87.7064 100.436 88.077 100.626C88.3258 100.751 88.5645 100.896 88.791 101.058C88.8786 101.112 88.9576 101.179 89.025 101.256C89.007 101.28 88.659 101.016 88.029 100.725C87.2078 100.344 86.297 100.199 85.398 100.305C84.4953 100.376 83.6239 100.668 82.86 101.154C82.281 101.541 81.996 101.874 81.975 101.853Z" fill="#EBEBEB"/>
<path d="M83.844 93.846C84.1286 94.1141 84.4462 94.3449 84.789 94.533C85.1634 94.7249 85.5704 94.845 85.989 94.887C86.4986 94.9381 87.013 94.8661 87.489 94.677C87.9556 94.478 88.3673 94.1692 88.689 93.777C88.9546 93.4497 89.1579 93.0766 89.289 92.676C89.3968 92.2999 89.4583 91.912 89.472 91.521C89.5012 91.6244 89.5143 91.7316 89.511 91.839C89.516 92.1332 89.4766 92.4265 89.394 92.709C89.2717 93.1305 89.0678 93.524 88.794 93.867C88.4651 94.2972 88.0282 94.6327 87.5276 94.8393C87.027 95.0458 86.4806 95.1161 85.944 95.043C85.509 94.9937 85.088 94.8592 84.705 94.647C84.4472 94.5055 84.2125 94.3254 84.009 94.113C83.938 94.0349 83.8821 93.9444 83.844 93.846Z" fill="#EBEBEB"/>
<path d="M94.02 112.257C94.0205 112.182 94.0286 112.108 94.044 112.035C94.0859 111.827 94.1555 111.625 94.251 111.435C94.6324 110.736 95.252 110.198 95.997 109.917C97.0935 109.481 98.3071 109.438 99.432 109.794C100.05 109.977 100.758 110.205 101.232 110.808C101.351 110.962 101.426 111.145 101.45 111.339C101.473 111.532 101.443 111.728 101.364 111.906C101.183 112.253 100.89 112.529 100.533 112.689C100.188 112.86 99.8106 112.954 99.426 112.965C99.0442 112.984 98.6681 112.867 98.364 112.635C98.2236 112.515 98.1092 112.368 98.0277 112.202C97.9462 112.037 97.8993 111.856 97.89 111.672C97.8703 111.328 97.9246 110.983 98.049 110.661C98.5011 109.567 99.3622 108.693 100.449 108.225C101.17 107.904 101.96 107.768 102.747 107.829C103.034 107.851 103.316 107.91 103.587 108.006C103.587 108.027 103.287 107.928 102.741 107.889C102.089 107.854 101.437 107.952 100.824 108.177C100.211 108.403 99.6507 108.751 99.177 109.2C98.7372 109.621 98.3943 110.133 98.172 110.7C98.0556 111.003 98.0055 111.327 98.025 111.651C98.0337 111.815 98.076 111.976 98.1493 112.123C98.2225 112.27 98.3252 112.4 98.451 112.506C98.7253 112.717 99.0655 112.823 99.411 112.806C99.7717 112.797 100.126 112.709 100.449 112.548C100.775 112.403 101.043 112.152 101.211 111.837C101.279 111.684 101.304 111.515 101.284 111.349C101.264 111.183 101.199 111.025 101.097 110.892C100.888 110.628 100.62 110.416 100.314 110.274C100.018 110.132 99.7095 110.017 99.393 109.929C98.2978 109.575 97.1143 109.605 96.039 110.016C95.3102 110.28 94.6967 110.79 94.305 111.459C94.1751 111.711 94.0793 111.98 94.02 112.257V112.257Z" fill="#EBEBEB"/>
<path d="M86.244 116.472C86.244 116.442 86.688 116.406 87.363 116.172C88.2442 115.862 89.0337 115.336 89.6594 114.642C90.285 113.948 90.727 113.109 90.945 112.2C91.116 111.504 91.11 111.051 91.14 111.054C91.161 111.158 91.1661 111.264 91.155 111.369C91.1481 111.657 91.1139 111.943 91.053 112.224C90.8585 113.162 90.4174 114.031 89.7751 114.741C89.1327 115.451 88.3125 115.978 87.399 116.265C87.1255 116.354 86.8443 116.417 86.559 116.454C86.4554 116.475 86.3493 116.481 86.244 116.472V116.472Z" fill="#EBEBEB"/>
<path d="M82.458 107.769C82.5024 107.744 82.5498 107.725 82.599 107.712C82.695 107.682 82.833 107.64 83.016 107.592C83.5353 107.455 84.0728 107.401 84.609 107.43C84.9814 107.458 85.3464 107.548 85.689 107.697C86.088 107.869 86.4354 108.142 86.697 108.489C86.9842 108.883 87.1234 109.365 87.09 109.851C87.0707 110.11 86.9917 110.36 86.859 110.583C86.7247 110.818 86.5124 110.998 86.259 111.093C86.1254 111.139 85.9821 111.148 85.8436 111.121C85.7051 111.093 85.5762 111.03 85.47 110.937C85.2899 110.739 85.1923 110.479 85.197 110.211C85.1815 109.733 85.276 109.258 85.473 108.822C85.7468 108.201 86.2202 107.689 86.8181 107.368C87.416 107.047 88.104 106.935 88.773 107.049C88.9168 107.071 89.0584 107.107 89.196 107.154C89.289 107.19 89.337 107.211 89.334 107.217C89.331 107.223 89.133 107.154 88.764 107.109C88.2425 107.046 87.7135 107.114 87.225 107.307C86.5013 107.597 85.922 108.163 85.614 108.879C85.4308 109.295 85.3436 109.747 85.359 110.202C85.3526 110.431 85.4342 110.655 85.587 110.826C85.673 110.899 85.7766 110.949 85.8876 110.97C85.9986 110.991 86.1131 110.983 86.22 110.946C86.4422 110.864 86.6289 110.707 86.748 110.502C86.8674 110.3 86.9392 110.073 86.958 109.839C86.9895 109.388 86.8633 108.941 86.601 108.573C86.3574 108.243 86.0316 107.982 85.656 107.817C85.3277 107.668 84.9769 107.575 84.618 107.541C84.0934 107.502 83.5659 107.539 83.052 107.652C82.665 107.727 82.464 107.781 82.458 107.769Z" fill="#EBEBEB"/>
<g opacity="0.3">
<path opacity="0.3" d="M99.696 114.558C98.448 113.853 97.227 113.31 95.922 112.719C94.617 112.128 93.336 111.363 92.481 110.211C90.87 108.039 91.053 104.904 89.406 102.762C89.514 104.202 89.621 105.643 89.727 107.085C89.826 108.405 89.625 109.713 90.474 110.61C91.191 111.366 92.589 111.945 93.579 112.272C95.568 112.929 97.71 113.904 99.696 114.558" fill="black"/>
</g>
<path d="M120 131.013C120 131.013 129.771 133.713 130.164 133.857C130.764 134.064 130.653 136.221 129.738 136.185C129.303 136.17 122.238 136.449 121.338 136.395C120.438 136.341 117.738 135.276 117.738 135.276L120 131.013Z" fill="#1807D2"/>
<path d="M124.059 134.742C124.18 134.383 124.324 134.032 124.491 133.692C124.701 133.378 124.932 133.077 125.181 132.792C124.833 132.982 124.545 133.265 124.347 133.608C124.149 133.952 124.049 134.343 124.059 134.739V134.742Z" fill="#263238"/>
<path d="M123.039 134.28C123.087 134.28 123.186 133.827 123.447 133.317C123.708 132.807 124.014 132.45 123.981 132.417C123.696 132.639 123.463 132.922 123.301 133.244C123.138 133.567 123.048 133.922 123.039 134.283V134.28Z" fill="#263238"/>
<path d="M122.1 134.025C122.148 133.675 122.224 133.33 122.328 132.993C122.481 132.675 122.659 132.369 122.859 132.078C122.549 132.287 122.311 132.585 122.175 132.933C122.039 133.281 122.013 133.662 122.1 134.025Z" fill="#263238"/>
<path d="M122.259 132.762C122.345 132.53 122.381 132.283 122.364 132.036C122.361 131.767 122.328 131.5 122.265 131.238C122.227 131.084 122.178 130.932 122.118 130.785C122.09 130.692 122.036 130.609 121.962 130.545C121.913 130.509 121.852 130.49 121.791 130.494C121.729 130.497 121.671 130.522 121.626 130.563C121.55 130.636 121.504 130.734 121.497 130.839C121.49 130.925 121.49 131.011 121.497 131.097C121.498 131.258 121.518 131.418 121.557 131.574C121.622 131.836 121.723 132.087 121.857 132.321C121.964 132.547 122.113 132.75 122.295 132.921C122.319 132.921 122.154 132.678 121.959 132.279C121.845 132.048 121.759 131.805 121.704 131.553C121.672 131.406 121.656 131.256 121.656 131.106C121.656 130.956 121.656 130.77 121.746 130.698C121.764 130.682 121.787 130.673 121.811 130.673C121.834 130.673 121.857 130.682 121.875 130.698C121.924 130.746 121.961 130.805 121.983 130.869C122.04 131.01 122.09 131.154 122.13 131.301C122.199 131.55 122.242 131.805 122.259 132.063C122.277 132.483 122.232 132.759 122.259 132.762Z" fill="#263238"/>
<path d="M122.247 132.663C122.048 132.58 121.832 132.545 121.617 132.561C121.383 132.561 121.151 132.589 120.924 132.645C120.784 132.677 120.649 132.726 120.522 132.792C120.442 132.833 120.377 132.898 120.338 132.979C120.298 133.06 120.286 133.151 120.303 133.239C120.325 133.323 120.37 133.4 120.431 133.462C120.493 133.523 120.57 133.568 120.654 133.59C120.798 133.626 120.948 133.626 121.092 133.59C121.323 133.537 121.54 133.435 121.728 133.29C121.906 133.171 122.059 133.019 122.181 132.843C122.001 132.949 121.827 133.066 121.662 133.194C121.48 133.319 121.277 133.407 121.062 133.455C120.943 133.485 120.818 133.485 120.699 133.455C120.643 133.441 120.591 133.412 120.549 133.371C120.508 133.331 120.478 133.28 120.462 133.224C120.453 133.169 120.462 133.113 120.488 133.063C120.514 133.014 120.555 132.975 120.606 132.951C120.717 132.89 120.836 132.843 120.96 132.813C121.175 132.752 121.397 132.713 121.62 132.699C122.001 132.651 122.241 132.69 122.247 132.663Z" fill="#263238"/>
<path d="M125.559 134.847C125.601 134.548 125.666 134.254 125.754 133.965C125.891 133.697 126.051 133.441 126.231 133.2C125.946 133.355 125.724 133.604 125.602 133.904C125.479 134.204 125.464 134.537 125.559 134.847V134.847Z" fill="#263238"/>
<path d="M118.743 135.3C118.861 135.375 118.988 135.435 119.121 135.48C119.476 135.615 119.838 135.727 120.207 135.816C121.432 136.083 122.685 136.202 123.939 136.17C125.403 136.152 126.723 136.086 127.68 136.047L128.811 135.987C128.95 135.985 129.088 135.971 129.225 135.945C129.087 135.923 128.947 135.916 128.808 135.924H127.677L123.939 135.996C122.697 136.028 121.455 135.927 120.234 135.696C119.298 135.507 118.755 135.267 118.743 135.3Z" fill="#263238"/>
<path d="M118.455 135.522C118.455 135.543 118.734 135.387 119.187 135.189C119.763 134.917 120.403 134.813 121.035 134.889C121.657 135.024 122.218 135.356 122.634 135.837C122.807 136.042 122.995 136.234 123.195 136.413C123.066 136.175 122.906 135.955 122.718 135.759C122.525 135.535 122.308 135.334 122.07 135.159C121.772 134.938 121.425 134.792 121.059 134.733C120.396 134.653 119.724 134.78 119.136 135.096C118.888 135.2 118.658 135.344 118.455 135.522V135.522Z" fill="#263238"/>
<path d="M109.617 128.316C109.617 128.316 100.371 134.37 100.041 134.616C99.543 134.991 100.113 136.782 100.977 136.473C101.385 136.326 109.143 134.166 109.977 133.842C110.811 133.518 113.058 131.7 113.058 131.7L109.617 128.316Z" fill="#1807D2"/>
<path d="M106.872 133.104C106.761 132.723 106.546 132.381 106.253 132.114C105.96 131.846 105.599 131.665 105.21 131.589C105.535 131.784 105.847 132.001 106.143 132.237C106.404 132.511 106.647 132.8 106.872 133.104V133.104Z" fill="#263238"/>
<path d="M107.7 132.354C107.582 132.012 107.39 131.699 107.138 131.44C106.885 131.181 106.578 130.981 106.239 130.854C106.215 130.896 106.62 131.154 107.019 131.55C107.418 131.946 107.658 132.378 107.7 132.354Z" fill="#263238"/>
<path d="M108.534 131.82C108.533 131.442 108.389 131.079 108.132 130.803C107.917 130.498 107.596 130.284 107.232 130.203C107.51 130.42 107.772 130.658 108.015 130.914C108.212 131.202 108.385 131.505 108.534 131.82V131.82Z" fill="#263238"/>
<path d="M108 130.671C108.024 130.671 107.898 130.41 107.793 129.978C107.73 129.728 107.693 129.471 107.682 129.213C107.672 129.061 107.672 128.909 107.682 128.757C107.681 128.689 107.699 128.621 107.733 128.562C107.746 128.542 107.766 128.527 107.79 128.522C107.813 128.516 107.838 128.52 107.859 128.532C107.964 128.574 108.018 128.754 108.069 128.898C108.113 129.041 108.143 129.187 108.159 129.336C108.182 129.593 108.174 129.852 108.135 130.107C108.072 130.545 107.985 130.812 108.009 130.821C108.133 130.606 108.214 130.37 108.249 130.125C108.307 129.862 108.327 129.593 108.309 129.324C108.297 129.163 108.268 129.004 108.222 128.85C108.197 128.767 108.167 128.686 108.132 128.607C108.092 128.509 108.017 128.429 107.922 128.382C107.866 128.356 107.803 128.351 107.744 128.367C107.685 128.383 107.633 128.419 107.598 128.469C107.548 128.553 107.522 128.648 107.523 128.745C107.49 129.172 107.539 129.602 107.667 130.011C107.73 130.252 107.844 130.477 108 130.671V130.671Z" fill="#263238"/>
<path d="M107.967 130.572C107.967 130.596 108.195 130.488 108.567 130.395C108.784 130.343 109.007 130.313 109.23 130.305C109.358 130.296 109.486 130.304 109.611 130.329C109.666 130.337 109.718 130.362 109.758 130.401C109.797 130.439 109.824 130.49 109.833 130.545C109.836 130.605 109.822 130.664 109.794 130.717C109.766 130.769 109.725 130.814 109.674 130.845C109.571 130.91 109.454 130.949 109.332 130.959C109.113 130.98 108.891 130.958 108.681 130.893C108.485 130.82 108.285 130.761 108.081 130.716C108.25 130.851 108.444 130.953 108.651 131.016C108.874 131.101 109.112 131.137 109.35 131.121C109.498 131.113 109.642 131.068 109.767 130.989C109.841 130.943 109.902 130.879 109.942 130.802C109.983 130.725 110.002 130.638 109.998 130.551C109.987 130.462 109.948 130.378 109.886 130.313C109.824 130.248 109.742 130.205 109.653 130.191C109.512 130.166 109.369 130.16 109.227 130.173C108.994 130.189 108.763 130.232 108.54 130.302C108.331 130.347 108.135 130.439 107.967 130.572V130.572Z" fill="#263238"/>
<path d="M102.153 136.14C102.153 136.155 102.309 136.047 102.381 135.783C102.453 135.438 102.391 135.079 102.207 134.778C102.118 134.617 102.018 134.463 101.907 134.316C101.817 134.191 101.711 134.078 101.592 133.98C101.507 133.91 101.402 133.867 101.292 133.857C101.214 133.857 101.175 133.872 101.175 133.881C101.175 133.89 101.34 133.896 101.511 134.07C101.612 134.172 101.701 134.285 101.778 134.406C101.886 134.551 101.986 134.701 102.078 134.856C102.244 135.125 102.315 135.442 102.282 135.756C102.247 135.887 102.204 136.015 102.153 136.14V136.14Z" fill="#263238"/>
<path d="M105.474 133.659C105.486 133.497 105.464 133.334 105.407 133.181C105.351 133.028 105.262 132.889 105.147 132.774C105.055 132.64 104.934 132.528 104.793 132.445C104.653 132.363 104.496 132.312 104.334 132.297C104.579 132.471 104.809 132.666 105.021 132.879C105.194 133.126 105.345 133.387 105.474 133.659V133.659Z" fill="#263238"/>
<path d="M112.107 132.021C111.963 132.101 111.827 132.193 111.699 132.297C111.333 132.551 110.952 132.785 110.559 132.996C109.977 133.304 109.376 133.574 108.759 133.803C108.057 134.064 107.259 134.31 106.443 134.55C104.778 135.03 103.272 135.468 102.186 135.795L100.893 136.2C100.733 136.242 100.578 136.299 100.428 136.368C100.592 136.346 100.753 136.311 100.911 136.263L102.21 135.9C103.305 135.6 104.814 135.18 106.479 134.7C107.31 134.457 108.099 134.205 108.801 133.935C109.426 133.697 110.032 133.415 110.616 133.089C111.008 132.867 111.383 132.616 111.738 132.339C111.87 132.243 111.993 132.137 112.107 132.021V132.021Z" fill="#263238"/>
<path d="M112.449 132.144C112.2 132.034 111.936 131.964 111.666 131.934C111.009 131.812 110.33 131.896 109.722 132.174C109.393 132.346 109.111 132.595 108.9 132.9C108.726 133.141 108.58 133.4 108.465 133.674C108.345 133.917 108.259 134.175 108.21 134.442C108.346 134.21 108.466 133.97 108.57 133.722C108.82 133.136 109.254 132.648 109.806 132.33C110.387 132.069 111.029 131.976 111.66 132.063C112.14 132.102 112.443 132.168 112.449 132.144Z" fill="#263238"/>
<path d="M128.832 113.553C128.832 113.553 131.607 114.543 131.616 117.654C131.64 123.609 119.58 130.176 119.58 130.176L103.53 119.544L102.525 119.136C102.525 119.136 124.2 111 128.832 113.553Z" fill="#263238"/>
<path d="M111.66 124.914C111.808 124.832 111.948 124.738 112.08 124.632C112.341 124.44 112.716 124.158 113.175 123.801C114.096 123.093 115.344 122.085 116.691 120.93C118.038 119.775 119.22 118.692 120.06 117.891C120.48 117.492 120.816 117.162 121.047 116.931C121.172 116.818 121.286 116.695 121.389 116.562C121.251 116.659 121.121 116.767 121.002 116.886L119.982 117.807C119.121 118.584 117.927 119.655 116.583 120.807C115.239 121.959 114.003 122.979 113.106 123.711L112.041 124.581C111.905 124.682 111.778 124.793 111.66 124.914V124.914Z" fill="#455A64"/>
<path d="M124.302 115.779C123.252 115.668 122.202 115.978 121.38 116.64C121.407 116.685 121.98 116.31 122.802 116.076C123.624 115.842 124.302 115.83 124.302 115.779Z" fill="#455A64"/>
<path d="M122.919 114.84C122.548 114.998 122.221 115.244 121.968 115.558C121.714 115.872 121.542 116.244 121.467 116.64C121.515 116.64 121.689 116.157 122.094 115.662C122.499 115.167 122.946 114.882 122.919 114.84Z" fill="#455A64"/>
<path d="M129.714 133.704C129.714 133.686 129.522 133.647 129.3 133.83C129.038 134.074 128.874 134.404 128.838 134.76C128.785 135.11 128.835 135.467 128.982 135.789C129.096 136.032 129.222 136.146 129.237 136.134C129.197 136.001 129.148 135.87 129.09 135.744C128.985 135.436 128.954 135.107 129 134.784C129.036 134.463 129.167 134.159 129.378 133.914C129.549 133.737 129.717 133.731 129.714 133.704Z" fill="#263238"/>
<path d="M125.139 103.818L119.424 118.308L94.815 118.71L94.359 117.378L102.984 117.066L107.13 104.211L125.139 103.818Z" fill="#455A64"/>
<path d="M113.646 110.1C113.835 110.005 114.047 109.967 114.258 109.99C114.468 110.013 114.667 110.096 114.831 110.229C114.97 110.36 115.067 110.53 115.108 110.717C115.149 110.904 115.133 111.099 115.062 111.276C114.985 111.453 114.86 111.605 114.701 111.715C114.542 111.825 114.355 111.888 114.162 111.897C113.959 111.91 113.757 111.856 113.587 111.744C113.417 111.632 113.288 111.468 113.22 111.276C113.156 111.061 113.161 110.832 113.236 110.621C113.31 110.409 113.449 110.227 113.634 110.1" fill="#EBEBEB"/>
<path d="M121.098 130.902C121.098 130.902 98.424 116.028 97.5 115.719C96.576 115.41 94.326 113.94 92.085 114.558C89.844 115.176 87.828 117.189 86.823 120.129C86.247 121.809 85.977 124.674 85.848 126.825C85.6761 129.397 86.5097 131.936 88.173 133.905C88.9098 134.824 89.8885 135.519 90.999 135.912C91.236 135.987 91.482 136.05 91.734 136.104C96.021 137.034 100.434 135.108 102.834 131.442L103.362 130.638C103.362 130.638 118.197 136.086 118.428 136.011L121.098 130.902Z" fill="#263238"/>
<path d="M93.048 126.807C93.088 126.827 93.1291 126.845 93.171 126.861L93.543 127.008L94.98 127.563L100.323 129.576C102.591 130.422 105.309 131.43 108.36 132.54C111.411 133.65 114.789 134.865 118.401 136.086L118.464 136.11L118.497 136.047L120.27 132.663L121.17 130.938L121.203 130.872L121.14 130.833L103.845 119.853L98.649 116.577L97.239 115.695L96.87 115.47C96.786 115.419 96.741 115.398 96.741 115.398L96.861 115.485L97.221 115.722L98.616 116.622L103.8 119.949L121.068 130.971L121.038 130.863C120.753 131.412 120.438 131.997 120.138 132.588L118.368 135.972L118.467 135.933C114.867 134.715 111.477 133.503 108.423 132.402L100.374 129.474L95.001 127.5L93.555 126.972L93.177 126.84L93.048 126.807Z" fill="#455A64"/>
<path d="M95.4 73.992C95.787 72.945 96.642 72.492 97.725 72.231C98.2697 72.1043 98.837 72.1109 99.3786 72.2503C99.9203 72.3898 100.42 72.658 100.836 73.032C101.385 73.533 101.787 74.232 102.465 74.532C103.584 75.039 105.015 74.298 106.065 74.919C106.38 75.1049 106.622 75.3942 106.748 75.7378C106.874 76.0815 106.877 76.4582 106.757 76.804C106.637 77.1498 106.401 77.4432 106.089 77.6345C105.776 77.8257 105.408 77.903 105.045 77.8531C105.774 78.1951 105.909 79.2931 105.408 79.9231C104.907 80.5531 103.98 80.7241 103.203 80.5051C102.437 80.2412 101.758 79.7734 101.238 79.152C100.692 78.552 100.212 77.907 99.618 77.352C99.0478 76.7728 98.2913 76.4136 97.482 76.338C96.393 76.296 95.382 77.031 94.815 77.958C94.248 78.885 94.029 79.9861 93.87 81.0661C93.711 82.1461 93.591 83.2441 93.174 84.2521C93.126 84.3721 93.054 84.5011 92.931 84.5281C92.748 84.5671 92.616 84.3661 92.544 84.1951C91.7231 82.2684 91.2889 80.1992 91.266 78.1051C91.251 76.905 91.389 75.756 92.142 74.805C92.895 73.854 94.632 73.263 95.391 73.977" fill="#263238"/>
<path d="M92.844 78.831L91.176 90.945C91.1091 91.4342 91.1425 91.9319 91.2741 92.4078C91.4057 92.8837 91.6328 93.3278 91.9415 93.7131C92.2502 94.0985 92.6341 94.417 93.0698 94.6492C93.5056 94.8814 93.984 95.0226 94.476 95.064V95.064C95.4075 95.145 96.3344 94.8647 97.0648 94.2811C97.7953 93.6975 98.2734 92.8554 98.4 91.929C98.523 91.029 98.628 90.258 98.649 90.165C98.649 90.165 101.772 90.3 102.414 87.279C102.714 85.818 103.119 82.758 103.446 79.986C103.611 78.5515 103.231 77.1075 102.38 75.9404C101.53 74.7734 100.272 73.9687 98.856 73.686L98.556 73.629C95.361 73.173 93.201 75.633 92.844 78.831Z" fill="#FFBE9D"/>
<path d="M98.646 90.1231C97.2418 89.8654 95.9459 89.196 94.923 88.2001C94.923 88.2001 95.421 90.5641 98.496 90.9001L98.646 90.1231Z" fill="#EB996E"/>
<path d="M102.141 81.8401C102.12 81.953 102.055 82.0531 101.961 82.1188C101.867 82.1844 101.75 82.2104 101.637 82.1911C101.581 82.1849 101.527 82.1675 101.478 82.1399C101.429 82.1123 101.387 82.0751 101.352 82.0306C101.318 81.986 101.293 81.935 101.279 81.8806C101.265 81.8263 101.263 81.7696 101.271 81.7141C101.291 81.6007 101.356 81.4999 101.45 81.4336C101.545 81.3673 101.661 81.3409 101.775 81.3601C101.831 81.3667 101.885 81.3845 101.934 81.4124C101.983 81.4403 102.026 81.4778 102.06 81.5226C102.094 81.5673 102.119 81.6185 102.133 81.6731C102.147 81.7276 102.149 81.7844 102.141 81.8401Z" fill="#263238"/>
<path d="M102.483 81.342C102.417 81.39 102.138 81.0809 101.673 80.9879C101.208 80.895 100.818 81.0629 100.773 80.9879C100.728 80.913 100.83 80.8679 101.001 80.7899C101.229 80.6886 101.483 80.6623 101.727 80.715C101.969 80.7613 102.19 80.8844 102.357 81.066C102.486 81.21 102.513 81.324 102.483 81.342Z" fill="#263238"/>
<path d="M97.545 81.084C97.5245 81.1975 97.4601 81.2983 97.3657 81.3645C97.2714 81.4308 97.1547 81.4572 97.041 81.438C96.9851 81.431 96.9312 81.4129 96.8824 81.385C96.8335 81.357 96.7907 81.3196 96.7564 81.275C96.7221 81.2303 96.697 81.1793 96.6825 81.1249C96.668 81.0705 96.6644 81.0138 96.672 80.958C96.6946 80.8456 96.7595 80.7462 96.8533 80.6803C96.9471 80.6145 97.0626 80.5871 97.176 80.604C97.232 80.6106 97.2862 80.6284 97.3352 80.6563C97.3843 80.6841 97.4273 80.7215 97.4616 80.7662C97.496 80.811 97.5211 80.8621 97.5354 80.9167C97.5497 80.9713 97.553 81.0281 97.545 81.084V81.084Z" fill="#263238"/>
<path d="M97.89 80.517C97.824 80.562 97.545 80.253 97.08 80.16C96.615 80.067 96.225 80.235 96.18 80.16C96.135 80.085 96.237 80.04 96.408 79.962C96.6363 79.8622 96.8901 79.836 97.134 79.887C97.3761 79.936 97.5972 80.0586 97.767 80.238C97.893 80.4 97.92 80.496 97.89 80.517Z" fill="#263238"/>
<path d="M98.889 84.3001C99.1496 84.271 99.4128 84.2761 99.672 84.3151C99.795 84.3151 99.912 84.3151 99.948 84.2461C99.9861 84.1271 99.9861 83.9991 99.948 83.8801C99.894 83.5801 99.837 83.2441 99.777 82.9021C99.546 81.5161 99.405 80.3881 99.459 80.3791C99.513 80.3701 99.759 81.4861 99.978 82.8721C100.032 83.2141 100.086 83.5381 100.134 83.8501C100.181 84.0089 100.169 84.1792 100.101 84.3301C100.076 84.368 100.042 84.3996 100.002 84.4225C99.9628 84.4453 99.9186 84.4589 99.873 84.4621C99.8044 84.4718 99.7347 84.4718 99.666 84.4621C99.4013 84.4407 99.1402 84.3863 98.889 84.3001V84.3001Z" fill="#263238"/>
<path d="M97.455 84.354C97.533 84.354 97.431 84.87 97.791 85.314C98.151 85.758 98.691 85.812 98.691 85.884C98.691 85.956 98.553 85.956 98.325 85.917C98.0279 85.8622 97.7594 85.7051 97.566 85.473C97.3828 85.2481 97.2936 84.9611 97.317 84.672C97.341 84.456 97.422 84.342 97.455 84.354Z" fill="#263238"/>
<path d="M98.373 78.7141C98.304 78.8341 97.851 78.6811 97.29 78.6361C96.729 78.5911 96.261 78.6541 96.21 78.5251C96.189 78.4651 96.291 78.3631 96.492 78.2761C96.7587 78.1708 97.0465 78.1297 97.332 78.1561C97.6192 78.178 97.897 78.2685 98.142 78.4201C98.325 78.5401 98.4 78.6601 98.373 78.7141Z" fill="#263238"/>
<path d="M102.579 79.962C102.477 80.052 102.18 79.878 101.793 79.794C101.406 79.71 101.067 79.7249 101.016 79.5989C100.992 79.5389 101.064 79.4429 101.229 79.3709C101.444 79.2863 101.68 79.2706 101.904 79.3259C102.13 79.3736 102.335 79.4924 102.489 79.6649C102.6 79.7999 102.627 79.917 102.579 79.962Z" fill="#263238"/>
<path d="M92.643 81.1231C92.595 81.0901 90.684 80.0911 90.336 82.1761C89.988 84.2611 92.154 84.1801 92.166 84.1201C92.178 84.0601 92.643 81.1231 92.643 81.1231Z" fill="#FFBE9D"/>
<path d="M91.662 83.223C91.662 83.223 91.623 83.244 91.557 83.262C91.4644 83.2842 91.3667 83.2702 91.284 83.223C91.1625 83.1159 91.0722 82.978 91.0226 82.8238C90.9729 82.6696 90.9658 82.5049 91.002 82.347C91.026 82.1669 91.0906 81.9946 91.191 81.843C91.2194 81.7808 91.2623 81.7263 91.316 81.6841C91.3698 81.6418 91.4329 81.613 91.5 81.6C91.5439 81.5964 91.5877 81.6081 91.6239 81.6333C91.6601 81.6585 91.6863 81.6956 91.698 81.738C91.716 81.798 91.698 81.84 91.698 81.843C91.698 81.846 91.749 81.816 91.746 81.729C91.7428 81.6756 91.7217 81.6249 91.686 81.585C91.6617 81.5581 91.6321 81.5365 91.5991 81.5215C91.566 81.5066 91.5303 81.4986 91.494 81.498C91.406 81.5006 91.32 81.5257 91.2444 81.5708C91.1688 81.616 91.106 81.6797 91.062 81.756C90.9428 81.9221 90.8656 82.1146 90.837 82.3171C90.78 82.7401 90.93 83.169 91.218 83.304C91.2713 83.3298 91.3298 83.3432 91.389 83.3432C91.4482 83.3432 91.5067 83.3298 91.56 83.304C91.65 83.274 91.668 83.229 91.662 83.223Z" fill="#EB996E"/>
<path d="M104.196 79.5C103.491 79.538 102.787 79.4083 102.142 79.1215C101.497 78.8347 100.929 78.3989 100.485 77.85C99.885 77.076 99.486 76.065 98.619 75.597C98.3204 75.4501 97.9957 75.3638 97.6635 75.3433C97.3314 75.3227 96.9985 75.3681 96.684 75.477C96.0581 75.7008 95.4844 76.0499 94.998 76.503C95.274 78.159 94.539 79.803 93.822 81.303C93.7602 81.4799 93.6408 81.631 93.483 81.732C93.201 81.873 92.865 81.651 92.694 81.384C92.4544 80.9365 92.3501 80.4288 92.394 79.923C92.4004 78.7704 92.6349 77.6305 93.084 76.569C93.54 75.5044 94.2983 74.5969 95.265 73.959C96.5049 73.202 97.9902 72.9557 99.408 73.272C100.818 73.6 102.089 74.363 103.041 75.453C103.505 75.9362 103.842 76.5268 104.022 77.172" fill="#263238"/>
<path d="M20.238 128.355C20.2511 128.311 20.2692 128.269 20.292 128.229L20.46 127.866C20.6669 127.397 20.8345 126.911 20.961 126.414C21.291 125.124 21.405 123.153 20.916 120.813C20.6529 119.537 20.3062 118.279 19.878 117.048C19.437 115.713 18.927 114.297 18.51 112.764C18.0392 111.165 17.8116 109.505 17.835 107.838C17.898 106.095 18.414 104.355 18.981 102.624C19.548 100.893 20.133 99.195 20.307 97.491C20.5036 95.8514 20.1749 94.1918 19.368 92.751C18.615 91.365 17.673 90.183 16.968 88.956C16.3072 87.8198 15.8198 86.5912 15.522 85.311C15.097 83.455 15.0664 81.5305 15.432 79.662C15.5665 78.979 15.7674 78.3108 16.032 77.667C16.025 77.7129 16.0139 77.758 15.999 77.802L15.879 78.183C15.1731 80.4869 15.0975 82.9379 15.66 85.281C15.9606 86.5466 16.449 87.76 17.109 88.881C17.814 90.081 18.762 91.281 19.527 92.67C20.3464 94.1391 20.6813 95.8294 20.484 97.5C20.307 99.234 19.716 100.941 19.152 102.672C18.588 104.403 18.075 106.122 18.012 107.835C17.9859 109.485 18.2073 111.129 18.669 112.713C19.08 114.237 19.587 115.653 20.019 116.994C20.4436 118.232 20.7853 119.497 21.042 120.78C21.519 123.138 21.381 125.13 21.042 126.423C20.9098 126.922 20.731 127.407 20.508 127.872C20.43 128.022 20.367 128.139 20.322 128.229C20.2981 128.274 20.27 128.316 20.238 128.355V128.355Z" fill="#263238"/>
<path d="M17.925 90.165C17.925 90.165 16.488 85.575 19.065 82.887C19.085 82.8653 19.1105 82.8497 19.1389 82.8417C19.1672 82.8338 19.1972 82.8338 19.2255 82.8419C19.2538 82.85 19.2793 82.8658 19.2992 82.8875C19.319 82.9092 19.3325 82.936 19.338 82.965C19.476 83.724 19.647 86.034 17.925 90.165Z" fill="#1807D2"/>
<path d="M18.786 84.417C18.7812 84.7016 18.748 84.985 18.687 85.263C18.594 85.863 18.483 86.532 18.36 87.288C18.237 88.044 18.132 88.731 18.039 89.313C18.0147 89.5972 17.9635 89.8785 17.886 90.153C17.8617 89.8679 17.8708 89.581 17.913 89.298C17.961 88.773 18.054 88.053 18.183 87.261C18.312 86.469 18.45 85.761 18.564 85.242C18.6061 84.9594 18.6806 84.6826 18.786 84.417V84.417Z" fill="#263238"/>
<path d="M19.611 100.995C19.611 100.995 20.49 96.2639 24.024 95.0999C24.0518 95.0902 24.0819 95.0884 24.1107 95.0948C24.1395 95.1012 24.1659 95.1154 24.1871 95.136C24.2083 95.1565 24.2233 95.1825 24.2305 95.2112C24.2378 95.2398 24.2369 95.2698 24.228 95.2979C24 96.0239 23.067 98.1479 19.611 100.995Z" fill="#1807D2"/>
<path d="M23.061 96.3149C22.9238 96.5644 22.762 96.7996 22.578 97.0169C22.224 97.4909 21.804 98.0429 21.342 98.6549L20.1 100.296C19.9449 100.535 19.7682 100.759 19.572 100.965C19.6835 100.701 19.8255 100.452 19.995 100.221C20.295 99.7799 20.7 99.1859 21.195 98.5469C21.69 97.9079 22.137 97.3469 22.476 96.9389C22.6463 96.7091 22.8426 96.4997 23.061 96.3149V96.3149Z" fill="#263238"/>
<path d="M18.657 112.86C18.657 112.86 18.123 108.078 21.165 105.93C21.1889 105.913 21.2172 105.903 21.2467 105.9C21.2762 105.898 21.3056 105.904 21.3318 105.918C21.358 105.932 21.3798 105.953 21.3948 105.978C21.4099 106.003 21.4176 106.033 21.417 106.062C21.408 106.83 21.135 109.131 18.657 112.86Z" fill="#1807D2"/>
<path d="M20.598 107.379C20.5409 107.658 20.4545 107.931 20.34 108.192C20.136 108.747 19.899 109.392 19.632 110.118L18.933 112.044C18.8586 112.318 18.7582 112.584 18.633 112.839C18.6647 112.555 18.7281 112.275 18.822 112.005C18.969 111.498 19.197 110.805 19.476 110.055C19.755 109.305 20.028 108.63 20.235 108.147C20.3265 107.878 20.4483 107.62 20.598 107.379V107.379Z" fill="#263238"/>
<path d="M21.318 124.8C21.318 124.8 20.955 120 24.072 117.966C24.0964 117.949 24.1249 117.94 24.1545 117.938C24.184 117.937 24.2134 117.944 24.2392 117.958C24.2651 117.972 24.2865 117.994 24.3009 118.019C24.3153 118.045 24.3223 118.074 24.321 118.104C24.282 118.869 23.928 121.158 21.318 124.8Z" fill="#1807D2"/>
<path d="M23.454 119.4C23.382 119.678 23.2815 119.947 23.154 120.204C22.929 120.75 22.668 121.404 22.377 122.1L21.606 124.002C21.5274 124.267 21.425 124.524 21.3 124.77C21.3403 124.487 21.4138 124.21 21.519 123.945C21.681 123.444 21.936 122.763 22.242 122.022C22.548 121.281 22.842 120.615 23.067 120.141C23.1684 119.881 23.2982 119.632 23.454 119.4V119.4Z" fill="#263238"/>
<path d="M15.861 86.133C15.861 86.133 11.598 83.907 11.514 80.184C11.5127 80.1544 11.5196 80.1251 11.5341 80.0993C11.5485 80.0735 11.5699 80.0522 11.5958 80.0379C11.6216 80.0235 11.651 80.0167 11.6805 80.0181C11.7101 80.0196 11.7386 80.0292 11.763 80.046C12.396 80.484 14.151 81.993 15.861 86.133Z" fill="#1807D2"/>
<path d="M12.399 81.4619C12.5983 81.6652 12.7762 81.8884 12.93 82.1279L14.13 83.7899L15.33 85.4489C15.5128 85.6667 15.6755 85.9007 15.816 86.1479C15.5904 85.9673 15.3888 85.7586 15.216 85.5269C14.877 85.1249 14.43 84.5489 13.962 83.8979C13.494 83.2469 13.086 82.6439 12.801 82.1999C12.6393 81.9701 12.5044 81.7224 12.399 81.4619V81.4619Z" fill="#263238"/>
<path d="M20.439 96.0001C20.439 96.0001 16.05 94.0381 15.738 90.3271C15.7355 90.2979 15.7411 90.2686 15.7542 90.2424C15.7673 90.2163 15.7873 90.1942 15.8121 90.1787C15.837 90.1632 15.8656 90.1548 15.8948 90.1545C15.9241 90.1543 15.9529 90.162 15.978 90.1771C16.638 90.5641 18.483 91.9651 20.439 96.0001Z" fill="#1807D2"/>
<path d="M16.701 91.542C16.9116 91.7334 17.1026 91.9455 17.271 92.175L18.573 93.762L19.878 95.343C20.0728 95.5447 20.2476 95.7647 20.4 96C20.1712 95.8238 19.9629 95.6226 19.779 95.4C19.416 95.016 18.936 94.47 18.429 93.849C17.922 93.228 17.478 92.649 17.169 92.226C16.9876 92.0164 16.8306 91.7869 16.701 91.542Z" fill="#263238"/>
<path d="M17.913 106.992C17.913 106.992 14.898 103.242 16.314 99.792C16.3248 99.7647 16.3429 99.741 16.3663 99.7234C16.3897 99.7057 16.4175 99.6949 16.4467 99.6921C16.4759 99.6893 16.5053 99.6947 16.5316 99.7075C16.558 99.7204 16.5802 99.7403 16.596 99.765C17.001 100.428 18 102.513 17.913 106.992Z" fill="#1807D2"/>
<path d="M16.611 101.325C16.7119 101.591 16.7853 101.866 16.83 102.147C16.956 102.726 17.103 103.404 17.268 104.154C17.433 104.904 17.568 105.579 17.709 106.155C17.7893 106.428 17.8445 106.709 17.874 106.992C17.7408 106.738 17.64 106.467 17.574 106.188C17.424 105.681 17.247 104.988 17.079 104.19C16.911 103.392 16.779 102.69 16.695 102.174C16.636 101.895 16.6079 101.61 16.611 101.325V101.325Z" fill="#263238"/>
<path d="M20.901 119.934C20.901 119.934 16.542 117.9 16.296 114.18C16.2941 114.151 16.3001 114.122 16.3135 114.096C16.3268 114.071 16.3469 114.049 16.3716 114.034C16.3963 114.019 16.4247 114.011 16.4537 114.011C16.4826 114.01 16.5111 114.018 16.536 114.033C17.19 114.444 19.011 115.875 20.901 119.934Z" fill="#1807D2"/>
<path d="M17.235 115.419C17.4433 115.613 17.6312 115.829 17.796 116.061C18.162 116.526 18.594 117.069 19.071 117.669L20.349 119.274C20.5411 119.484 20.7138 119.711 20.865 119.952C20.6418 119.777 20.4404 119.575 20.265 119.352C19.911 118.965 19.44 118.41 18.945 117.78C18.45 117.15 18 116.568 17.7 116.139C17.5197 115.916 17.3638 115.675 17.235 115.419V115.419Z" fill="#263238"/>
<path d="M29.58 101.019C29.5842 101.055 29.5842 101.091 29.58 101.127C29.58 101.211 29.58 101.31 29.58 101.427C29.58 101.727 29.55 102.108 29.529 102.594C29.472 103.62 29.394 105.048 29.301 106.761C29.001 108.501 28.101 110.43 26.901 112.302C26.028 113.682 25.101 114.939 24.324 116.106C23.6057 117.125 22.9591 118.192 22.389 119.301C22.0162 120.053 21.7149 120.839 21.489 121.647C21.411 121.932 21.354 122.157 21.321 122.31C21.3077 122.389 21.2866 122.466 21.258 122.541C21.259 122.461 21.268 122.382 21.285 122.304C21.306 122.148 21.354 121.92 21.42 121.629C21.6236 120.802 21.9111 119.998 22.278 119.229C22.8356 118.107 23.4743 117.027 24.189 115.998C24.972 114.822 25.884 113.565 26.754 112.194C27.954 110.328 28.818 108.429 29.154 106.716C29.274 105.009 29.373 103.581 29.454 102.555C29.493 102.069 29.526 101.679 29.547 101.391C29.547 101.271 29.571 101.169 29.58 101.091C29.5774 101.067 29.5774 101.043 29.58 101.019V101.019Z" fill="#263238"/>
<path d="M27 111.96C27 111.96 28.845 107.517 26.523 104.607C26.505 104.584 26.4809 104.566 26.4533 104.555C26.4257 104.545 26.3958 104.542 26.3668 104.548C26.3379 104.554 26.3111 104.567 26.2894 104.587C26.2677 104.607 26.252 104.633 26.244 104.661C26.025 105.405 25.644 107.7 27 111.96Z" fill="#1807D2"/>
<path d="M26.649 106.158C26.7285 106.432 26.7778 106.713 26.796 106.998C26.862 107.52 26.934 108.243 26.991 109.044C27.048 109.845 27.075 110.571 27.075 111.096C27.0935 111.381 27.0763 111.667 27.024 111.948C26.9719 111.669 26.9467 111.386 26.949 111.102C26.91 110.502 26.862 109.821 26.811 109.056C26.76 108.291 26.709 107.598 26.67 107.01C26.635 106.727 26.628 106.442 26.649 106.158V106.158Z" fill="#263238"/>
<g opacity="0.3">
<path opacity="0.3" d="M27 111.96C27 111.96 28.845 107.517 26.523 104.607C26.505 104.584 26.4809 104.566 26.4533 104.555C26.4257 104.545 26.3958 104.542 26.3668 104.548C26.3379 104.554 26.3111 104.567 26.2894 104.587C26.2677 104.607 26.252 104.633 26.244 104.661C26.025 105.405 25.644 107.7 27 111.96Z" fill="black"/>
</g>
<path d="M21.27 122.664C21.27 122.664 22.749 118.089 20.199 115.377C20.1792 115.355 20.1539 115.34 20.1258 115.332C20.0976 115.323 20.0678 115.323 20.0396 115.331C20.0113 115.339 19.9858 115.354 19.9657 115.376C19.9457 115.397 19.9319 115.423 19.926 115.452C19.779 116.208 19.587 118.515 21.27 122.664Z" fill="#1807D2"/>
<path d="M20.463 116.907C20.5649 117.174 20.6364 117.452 20.676 117.735C20.784 118.248 20.916 118.962 21.039 119.757C21.162 120.552 21.246 121.272 21.288 121.797C21.3288 122.08 21.3348 122.367 21.306 122.652C21.2329 122.377 21.1847 122.096 21.162 121.812C21.075 121.212 20.973 120.543 20.862 119.784C20.751 119.025 20.643 118.341 20.562 117.756C20.5012 117.477 20.468 117.193 20.463 116.907Z" fill="#263238"/>
<g opacity="0.3">
<path opacity="0.3" d="M21.27 122.664C21.27 122.664 22.749 118.089 20.199 115.377C20.1792 115.355 20.1539 115.34 20.1258 115.332C20.0976 115.323 20.0678 115.323 20.0396 115.331C20.0113 115.339 19.9858 115.354 19.9657 115.376C19.9457 115.397 19.9319 115.423 19.926 115.452C19.779 116.208 19.587 118.515 21.27 122.664Z" fill="black"/>
</g>
<path d="M29.334 106.533C29.334 106.533 33.276 103.773 32.877 100.071C32.8744 100.042 32.8638 100.014 32.8462 99.99C32.8286 99.9663 32.8048 99.948 32.7774 99.9372C32.75 99.9263 32.7201 99.9232 32.6911 99.9283C32.6621 99.9334 32.635 99.9465 32.613 99.966C32.043 100.5 30.495 102.207 29.334 106.533Z" fill="#1807D2"/>
<g opacity="0.3">
<path opacity="0.3" d="M29.334 106.533C29.334 106.533 33.276 103.773 32.877 100.071C32.8744 100.042 32.8638 100.014 32.8462 99.99C32.8286 99.9663 32.8048 99.948 32.7774 99.9372C32.75 99.9263 32.7201 99.9232 32.6911 99.9283C32.6621 99.9334 32.635 99.9465 32.613 99.966C32.043 100.5 30.495 102.207 29.334 106.533Z" fill="black"/>
</g>
<path d="M32.166 101.454C32.0864 101.727 31.9767 101.991 31.839 102.24C31.614 102.717 31.287 103.365 30.906 104.073C30.525 104.781 30.159 105.408 29.874 105.852C29.7377 106.103 29.5693 106.335 29.373 106.542C29.4812 106.279 29.6127 106.026 29.766 105.786L30.747 103.986L31.725 102.186C31.8464 101.928 31.9942 101.682 32.166 101.454V101.454Z" fill="#263238"/>
<path d="M22.857 118.128C22.857 118.128 27.6 117.387 28.884 113.889C28.8946 113.861 28.8973 113.831 28.8918 113.802C28.8864 113.773 28.8729 113.746 28.8529 113.725C28.833 113.703 28.8074 113.687 28.779 113.679C28.7505 113.671 28.7204 113.671 28.692 113.679C27.951 113.889 25.8 114.756 22.857 118.128Z" fill="#1807D2"/>
<g opacity="0.3">
<path opacity="0.3" d="M22.857 118.128C22.857 118.128 27.6 117.387 28.884 113.889C28.8946 113.861 28.8973 113.831 28.8918 113.802C28.8864 113.773 28.8729 113.746 28.8529 113.725C28.833 113.703 28.8074 113.687 28.779 113.679C28.7505 113.671 28.7204 113.671 28.692 113.679C27.951 113.889 25.8 114.756 22.857 118.128Z" fill="black"/>
</g>
<path d="M27.636 114.816C27.4444 115.025 27.2312 115.213 27 115.377C26.589 115.707 26.01 116.145 25.356 116.61C24.702 117.075 24.096 117.48 23.649 117.756C23.414 117.919 23.1602 118.053 22.893 118.155C23.1052 117.966 23.3341 117.796 23.577 117.648L25.254 116.466L26.925 115.266C27.1458 115.092 27.384 114.941 27.636 114.816V114.816Z" fill="#263238"/>
<path d="M18.324 126.876L16.938 136.206H25.578L24.456 126.876H18.324Z" fill="#455A64"/>
<path d="M24.804 129.765C24.804 129.816 23.244 129.855 21.318 129.855C19.392 129.855 17.835 129.816 17.835 129.765C18.9937 129.676 20.1562 129.646 21.318 129.675C22.4808 129.646 23.6443 129.676 24.804 129.765V129.765Z" fill="#263238"/>
<path d="M24.975 130.5C24.975 130.548 23.364 130.59 21.375 130.59C19.386 130.59 17.775 130.548 17.775 130.5C17.775 130.452 19.386 130.41 21.375 130.41C23.364 130.41 24.975 130.458 24.975 130.5Z" fill="#263238"/>
</svg>
